<?xml version="1.0" encoding="UTF-8"?>
<svg id="Layer_1" data-name="Layer 1" xmlns="http://www.w3.org/2000/svg" viewBox="0 0 251.58 244.53">
  <defs>
    <style>
      .cls-1 {
        fill: #5ecae5;
      }

      .cls-2 {
        fill: #e1f5f9;
      }

      .cls-2, .cls-3, .cls-4 {
        stroke: #000;
        stroke-linecap: round;
        stroke-linejoin: round;
        stroke-width: 2px;
      }

      .cls-3 {
        fill: #fff;
      }

      .cls-4 {
        fill: none;
      }
    </style>
  </defs>
  <g>
    <rect class="cls-2" x="25.69" y="70.35" width="204.02" height="140.52"/>
    <g>
      <rect class="cls-4" x="18.79" y="27.11" width="217.81" height="189.85"/>
      <rect class="cls-3" x="38.46" y="10.54" width="13.55" height="33.13" rx="6.78" ry="6.78"/>
      <rect class="cls-3" x="204.11" y="10.54" width="13.55" height="33.13" rx="6.78" ry="6.78"/>
    </g>
  </g>
  <g>
    <path class="cls-1" d="M171.4,98.12h0c-1.68-2.82-5.65-3.11-7.71-.56l-34.48,42.5c-.84,1.04-2.45,.98-3.22-.11l-8.26-11.8c-2.81-4.02-8.66-4.27-11.82-.52h0c-2.18,2.59-2.34,6.31-.4,9.08l16.91,24.15c2.06,2.94,6.41,2.93,8.47-.01l4.86-6.97,35.46-50.65c1.06-1.52,1.14-3.52,.19-5.11Z"/>
    <path class="cls-1" d="M127.7,184.26c-24.46,0-44.36-19.9-44.36-44.36s19.9-44.36,44.36-44.36c5.99,0,11.8,1.17,17.27,3.49,2.01,.85,2.94,3.16,2.09,5.17-.85,2.01-3.16,2.94-5.17,2.1-4.49-1.9-9.27-2.86-14.2-2.86-20.11,0-36.47,16.36-36.47,36.47s16.36,36.47,36.47,36.47,36.47-16.36,36.47-36.47c0-3.2-.41-6.38-1.23-9.44-.56-2.1,.69-4.27,2.79-4.83,2.1-.56,4.26,.69,4.83,2.79,.99,3.72,1.5,7.58,1.5,11.47,0,24.46-19.9,44.36-44.36,44.36Z"/>
  </g>
</svg>