<?xml version="1.0" encoding="utf-8"?>
<!-- Generator: Adobe Illustrator 27.0.0, SVG Export Plug-In . SVG Version: 6.00 Build 0)  -->
<svg version="1.1" id="Layer_1" xmlns="http://www.w3.org/2000/svg" xmlns:xlink="http://www.w3.org/1999/xlink" x="0px" y="0px"
	 viewBox="0 0 829.5 109" style="enable-background:new 0 0 829.5 109;" xml:space="preserve">
<style type="text/css">
	.st0{fill:#47A5CF;}
	.st1{fill:#3A386A;}
	.st2{fill:#FFFFFF;stroke:#000000;stroke-width:0.5;stroke-miterlimit:10;}
	.st3{font-family:'Poppins-SemiBold';}
	.st4{font-size:56px;}
</style>
<g>
	<g>
		<polygon class="st0" points="22.1,88.3 62.7,22.8 115,88.3 82.1,55.5 85.3,80 73.2,59.3 75.5,89.9 65.9,57.9 62.4,78.7 59.2,54.6 
			46.4,76.8 51.5,52.5 		"/>
		<path class="st1" d="M63,22.7c0.4-1.2,2.7-2.5,3.5-3.4c1.3-1.3,2.7-2.6,4.1-3.8c2.7-2.3,6.1-4.2,9.8-4.1c2.6,0.1,5.1,1.2,7.3,2.7
			c5.2,3.5,9.1,8.4,13,13.4c12.2,15.6,24.4,31.2,36.6,46.7c2,2.5,4,5.1,6.8,6.6c3.7,2,8.2,1.7,12.4,1.8c0.7,0,1.7,0.2,1.9,0.9
			c0.1,0.4-0.2,1-0.4,1.3c-4.7,6.2-12.6,9.8-20.3,9.3c-1.5-0.1-3.1-0.4-4.4-1.1c-1.4-0.8-2.4-2-3.5-3.3
			c-12.9-15.9-25.4-32.1-37.5-48.5c-3.6-5-7.4-9.9-12.2-13.7c-2.4-1.9-5.1-3.3-8-4.2C68.8,22.4,66.1,22.8,63,22.7z"/>
		<path class="st0" d="M96.8,22.7c0.4-1.2,2.7-2.5,3.5-3.4c1.3-1.3,2.7-2.6,4.1-3.8c2.7-2.3,6.1-4.2,9.8-4.1
			c2.6,0.1,5.1,1.2,7.3,2.7c5.2,3.5,9.1,8.4,13,13.4c12.2,15.6,24.4,31.1,36.5,46.7c2,2.5,4,5.1,6.8,6.6c3.7,2,8.2,1.7,12.4,1.8
			c0.7,0,1.7,0.2,1.9,0.9c0.1,0.4-0.2,1-0.4,1.3c-4.7,6.2-12.6,9.8-20.3,9.3c-1.5-0.1-3.1-0.4-4.4-1.1c-1.4-0.8-2.4-2-3.5-3.3
			c-12.9-15.9-25.4-32.1-37.5-48.5c-3.6-5-7.4-9.9-12.2-13.7c-2.4-1.9-5.1-3.3-8-4.2C102.6,22.4,99.9,22.8,96.8,22.7z"/>
		<path class="st2" d="M97.7,66.1c0.6-3.9,2.7-8.1,4.6-11.5c2-3.7,4.2-7.3,6.8-10.6c5.1-6.6,11.5-12.2,18.8-16.5
			c0.8-0.4,1.6-0.9,2.4-1.3c4.1-2.2,8.6-4,13.2-4.1c1.5,0,3,0.1,4.3,0.8c2.8,1.4,4.2,4.7,5.2,7.7c-3.7,0.4-7.5,0.8-11.3,1.2
			c-0.4,0-0.6,0.1-0.9,0.4c-0.3,0.4-0.1,0.9,0.1,1.3c1.2,2.3,2.7,4.4,4.2,6.7c7.5,10.8,15.1,21.7,23.1,32.1c1.7,2.1,3.5,4.3,4.6,6.8
			c1.2,2.5,1.8,5.3,1.1,8c-10.1-11.9-18.7-23.3-28.6-35.3c-3.3-4-5.9-7.1-10.4-12.9c-0.8-1.1-1.4-2.1-2.4-2.9
			c-1.1-0.9-2.7-0.5-4-0.2c-2.4,0.7-4.4,2.3-6.4,3.9c-4.7,3.9-9,8.2-12.9,12.8c-2,2.2-3.9,4.5-5.9,6.8
			C101.5,61.3,99.8,64.1,97.7,66.1z"/>
	</g>
	<text transform="matrix(1 0 0 1 199.9253 67.325)" class="st3 st4">nepaltibettravel.com</text>
</g>
</svg>
