<?xml version="1.0" encoding="utf-8"?>
<!-- Generator: Adobe Illustrator 27.0.0, SVG Export Plug-In . SVG Version: 6.00 Build 0)  -->
<svg version="1.1" id="Layer_1" xmlns="http://www.w3.org/2000/svg" xmlns:xlink="http://www.w3.org/1999/xlink" x="0px" y="0px"
	 viewBox="0 0 770.6 109" style="enable-background:new 0 0 770.6 109;" xml:space="preserve">
<style type="text/css">
	.st0{fill:#47A5CF;}
	.st1{fill:#3A386A;}
	.st2{fill:#FFFFFF;stroke:#000000;stroke-width:0.5;stroke-miterlimit:10;}
	.st3{enable-background:new    ;}
	.st4{fill:#1E1E1E;}
</style>
<g>
	<polygon class="st0" points="6.5,91.6 52.3,17.8 111.3,91.6 74.2,54.7 77.8,82.3 64.1,58.9 66.7,93.4 55.9,57.4 51.9,80.8 
		48.3,53.6 33.9,78.7 39.7,51.3 	"/>
	<path class="st1" d="M52.6,17.7c0.5-1.3,3-2.8,4-3.8c1.5-1.5,3-2.9,4.6-4.3c3.1-2.6,6.9-4.7,11-4.6c2.9,0.1,5.7,1.4,8.2,3.1
		c5.9,3.9,10.3,9.5,14.7,15.1c13.8,17.6,27.5,35.2,41.3,52.7c2.2,2.8,4.5,5.7,7.7,7.4c4.2,2.2,9.2,1.9,14,2c0.8,0,1.9,0.2,2.1,1
		c0.1,0.5-0.2,1.1-0.5,1.5c-5.3,7-14.2,11.1-22.9,10.5c-1.7-0.1-3.5-0.4-5-1.2c-1.6-0.9-2.7-2.3-3.9-3.7
		c-14.5-17.9-28.6-36.2-42.3-54.7c-4.1-5.6-8.3-11.2-13.8-15.4c-2.7-2.1-5.7-3.7-9-4.7C59.2,17.4,56.1,17.8,52.6,17.7z"/>
	<path class="st0" d="M90.7,17.7c0.4-1.3,3-2.8,4-3.8c1.5-1.5,3-2.9,4.6-4.3c3.1-2.6,6.9-4.7,11-4.6c2.9,0.1,5.7,1.4,8.2,3.1
		c5.9,3.9,10.3,9.5,14.7,15.1c13.7,17.6,27.5,35.1,41.2,52.7c2.2,2.8,4.5,5.7,7.7,7.4c4.2,2.2,9.2,1.9,14,2c0.8,0,1.9,0.2,2.1,1
		c0.1,0.5-0.2,1.1-0.5,1.5c-5.3,7-14.2,11.1-22.9,10.5c-1.7-0.1-3.5-0.4-5-1.2c-1.6-0.9-2.7-2.3-3.9-3.7
		c-14.5-17.9-28.6-36.2-42.3-54.7c-4.1-5.6-8.3-11.2-13.8-15.4c-2.7-2.1-5.7-3.7-9-4.7C97.3,17.4,94.2,17.8,90.7,17.7z"/>
	<path class="st2" d="M91.7,66.6c0.7-4.4,3.1-9.1,5.2-13c2.2-4.2,4.7-8.2,7.7-11.9c5.8-7.4,13-13.8,21.2-18.6c0.9-0.5,1.8-1,2.7-1.5
		c4.6-2.5,9.7-4.5,14.9-4.6c1.7,0,3.4,0.1,4.9,0.9c3.2,1.6,4.7,5.3,5.9,8.7c-4.2,0.4-8.5,0.9-12.7,1.3c-0.4,0-0.7,0.1-1,0.4
		c-0.3,0.4-0.1,1,0.1,1.5c1.4,2.6,3,5,4.7,7.5c8.5,12.2,17,24.5,26.1,36.2c1.9,2.4,3.9,4.9,5.2,7.7c1.3,2.8,2,6,1.2,9
		c-11.5-13.3-21.2-26.2-32.4-39.7c-3.7-4.5-6.7-8-11.7-14.5c-0.9-1.2-1.6-2.4-2.7-3.3c-1.2-1-3-0.6-4.5-0.2c-2.7,0.8-5,2.6-7.2,4.4
		c-5.3,4.4-10.1,9.3-14.6,14.4c-2.2,2.5-4.4,5.1-6.6,7.7C96,61.2,94.1,64.4,91.7,66.6z"/>
</g>
<g class="st3">
	<path class="st4" d="M249.5,67.7h-10.3l-17.2-26v26h-10.3V25.6h10.3l17.2,26.1V25.6h10.3V67.7z"/>
	<path class="st4" d="M288.4,53.4h-23.2c0.2,2.1,0.8,3.7,2,4.8c1.2,1.1,2.6,1.6,4.4,1.6c2.6,0,4.3-1.1,5.3-3.2h10.9
		c-0.6,2.2-1.6,4.2-3,5.9c-1.5,1.8-3.3,3.1-5.5,4.1c-2.2,1-4.7,1.5-7.4,1.5c-3.3,0-6.2-0.7-8.8-2.1c-2.6-1.4-4.6-3.4-6-6
		c-1.4-2.6-2.2-5.6-2.2-9.1c0-3.5,0.7-6.5,2.1-9.1c1.4-2.6,3.4-4.6,6-6c2.6-1.4,5.5-2.1,8.8-2.1c3.2,0,6.1,0.7,8.6,2
		c2.5,1.4,4.5,3.3,5.9,5.8c1.4,2.5,2.1,5.5,2.1,8.8C288.5,51.4,288.5,52.4,288.4,53.4z M278,47.7c0-1.8-0.6-3.2-1.8-4.2
		s-2.7-1.6-4.5-1.6c-1.7,0-3.2,0.5-4.4,1.5c-1.2,1-1.9,2.4-2.2,4.3H278z"/>
	<path class="st4" d="M308.3,35.2c1.8-1,3.8-1.4,6.2-1.4c2.8,0,5.3,0.7,7.5,2.1c2.2,1.4,4,3.4,5.3,6c1.3,2.6,2,5.6,2,9.1
		c0,3.4-0.7,6.5-2,9.1c-1.3,2.6-3.1,4.6-5.3,6.1c-2.2,1.4-4.7,2.1-7.5,2.1c-2.3,0-4.4-0.5-6.1-1.4c-1.8-1-3.2-2.2-4.2-3.7v20.6
		h-10.3V34.2h10.3v4.7C305.2,37.4,306.6,36.1,308.3,35.2z M316.7,44.9c-1.4-1.5-3.2-2.2-5.2-2.2c-2,0-3.8,0.7-5.2,2.2
		c-1.4,1.5-2.1,3.5-2.1,6.1c0,2.6,0.7,4.6,2.1,6.1c1.4,1.5,3.2,2.2,5.2,2.2c2,0,3.8-0.8,5.2-2.2s2.2-3.5,2.2-6.1
		C318.8,48.3,318.1,46.3,316.7,44.9z"/>
	<path class="st4" d="M334.6,41.8c1.3-2.6,3.1-4.6,5.3-6c2.2-1.4,4.7-2.1,7.5-2.1c2.4,0,4.4,0.5,6.2,1.4c1.8,1,3.1,2.2,4.1,3.8v-4.7
		H368v33.5h-10.3v-4.7c-1,1.6-2.4,2.8-4.2,3.8c-1.8,1-3.9,1.4-6.2,1.4c-2.7,0-5.2-0.7-7.4-2.1c-2.2-1.4-4-3.4-5.3-6.1
		c-1.3-2.6-1.9-5.6-1.9-9.1C332.6,47.4,333.3,44.4,334.6,41.8z M355.6,44.9c-1.4-1.5-3.1-2.2-5.2-2.2s-3.8,0.7-5.2,2.2
		c-1.4,1.5-2.1,3.5-2.1,6c0,2.6,0.7,4.6,2.1,6.1c1.4,1.5,3.1,2.2,5.2,2.2s3.8-0.7,5.2-2.2c1.4-1.5,2.1-3.5,2.1-6.1
		C357.7,48.4,357,46.4,355.6,44.9z"/>
	<path class="st4" d="M385.7,23.3v44.4h-10.3V23.3H385.7z"/>
	<path class="st4" d="M436.1,25.6v8.2H425v33.9h-10.3V33.8h-11.2v-8.2H436.1z"/>
	<path class="st4" d="M442,29.1c-1.1-1.1-1.7-2.4-1.7-3.9c0-1.6,0.6-2.9,1.7-4s2.6-1.6,4.4-1.6c1.8,0,3.2,0.5,4.3,1.6
		c1.1,1.1,1.7,2.4,1.7,4c0,1.6-0.6,2.9-1.7,3.9c-1.1,1.1-2.6,1.6-4.3,1.6C444.7,30.7,443.2,30.2,442,29.1z M451.6,34.2v33.5h-10.3
		V34.2H451.6z"/>
	<path class="st4" d="M473.4,35.2c1.8-1,3.9-1.4,6.2-1.4c2.8,0,5.3,0.7,7.5,2.1c2.2,1.4,4,3.4,5.3,6c1.3,2.6,2,5.6,2,9.1
		c0,3.4-0.7,6.5-2,9.1c-1.3,2.6-3.1,4.6-5.3,6.1c-2.2,1.4-4.7,2.1-7.5,2.1c-2.4,0-4.4-0.5-6.2-1.4c-1.8-0.9-3.1-2.2-4.1-3.8v4.7H459
		V23.3h10.3v15.7C470.2,37.4,471.6,36.1,473.4,35.2z M481.8,44.9c-1.4-1.5-3.2-2.2-5.2-2.2c-2,0-3.8,0.7-5.2,2.2
		c-1.4,1.5-2.1,3.5-2.1,6.1c0,2.6,0.7,4.6,2.1,6.1c1.4,1.5,3.2,2.2,5.2,2.2c2,0,3.8-0.8,5.2-2.2c1.4-1.5,2.2-3.5,2.2-6.1
		C483.9,48.3,483.2,46.3,481.8,44.9z"/>
	<path class="st4" d="M531.1,53.4h-23.2c0.2,2.1,0.8,3.7,2,4.8c1.2,1.1,2.6,1.6,4.3,1.6c2.6,0,4.3-1.1,5.3-3.2h10.9
		c-0.6,2.2-1.6,4.2-3,5.9c-1.5,1.8-3.3,3.1-5.5,4.1c-2.2,1-4.7,1.5-7.4,1.5c-3.3,0-6.2-0.7-8.8-2.1c-2.6-1.4-4.6-3.4-6-6
		c-1.4-2.6-2.2-5.6-2.2-9.1c0-3.5,0.7-6.5,2.1-9.1c1.4-2.6,3.4-4.6,6-6c2.6-1.4,5.5-2.1,8.8-2.1c3.2,0,6.1,0.7,8.6,2
		c2.5,1.4,4.5,3.3,5.9,5.8c1.4,2.5,2.1,5.5,2.1,8.8C531.3,51.4,531.2,52.4,531.1,53.4z M520.8,47.7c0-1.8-0.6-3.2-1.8-4.2
		s-2.7-1.6-4.5-1.6c-1.7,0-3.2,0.5-4.4,1.5c-1.2,1-1.9,2.4-2.2,4.3H520.8z"/>
	<path class="st4" d="M555.4,59v8.7h-5.2c-3.7,0-6.6-0.9-8.7-2.7c-2.1-1.8-3.1-4.8-3.1-8.9V42.7h-4.1v-8.5h4.1V26h10.3v8.2h6.7v8.5
		h-6.7v13.4c0,1,0.2,1.7,0.7,2.2c0.5,0.4,1.3,0.7,2.4,0.7H555.4z"/>
	<path class="st4" d="M604.1,25.6v8.2h-11.2v33.9h-10.3V33.8h-11.2v-8.2H604.1z"/>
	<path class="st4" d="M624,35.4c1.8-1.1,3.8-1.6,6-1.6v10.9h-2.8c-2.6,0-4.5,0.6-5.8,1.7c-1.3,1.1-1.9,3-1.9,5.8v15.5h-10.3V34.2
		h10.3v5.6C620.7,37.9,622.2,36.5,624,35.4z"/>
	<path class="st4" d="M634.8,41.8c1.3-2.6,3.1-4.6,5.3-6c2.2-1.4,4.7-2.1,7.5-2.1c2.4,0,4.4,0.5,6.2,1.4c1.8,1,3.1,2.2,4.1,3.8v-4.7
		h10.3v33.5H658v-4.7c-1,1.6-2.4,2.8-4.2,3.8c-1.8,1-3.8,1.4-6.2,1.4c-2.7,0-5.2-0.7-7.4-2.1c-2.2-1.4-4-3.4-5.3-6.1
		c-1.3-2.6-1.9-5.6-1.9-9.1C632.9,47.4,633.5,44.4,634.8,41.8z M655.8,44.9c-1.4-1.5-3.1-2.2-5.2-2.2s-3.8,0.7-5.2,2.2
		c-1.4,1.5-2.1,3.5-2.1,6c0,2.6,0.7,4.6,2.1,6.1s3.2,2.2,5.2,2.2s3.8-0.7,5.2-2.2c1.4-1.5,2.1-3.5,2.1-6.1
		C658,48.4,657.2,46.4,655.8,44.9z"/>
	<path class="st4" d="M690.7,58.1l7.3-23.9h10.9L697,67.7h-12.7l-11.9-33.5h11L690.7,58.1z"/>
	<path class="st4" d="M744.6,53.4h-23.2c0.2,2.1,0.8,3.7,2,4.8c1.2,1.1,2.6,1.6,4.3,1.6c2.6,0,4.3-1.1,5.3-3.2H744
		c-0.6,2.2-1.6,4.2-3,5.9c-1.5,1.8-3.3,3.1-5.5,4.1c-2.2,1-4.7,1.5-7.4,1.5c-3.3,0-6.2-0.7-8.8-2.1c-2.6-1.4-4.6-3.4-6-6
		c-1.4-2.6-2.2-5.6-2.2-9.1c0-3.5,0.7-6.5,2.1-9.1c1.4-2.6,3.4-4.6,6-6c2.6-1.4,5.5-2.1,8.8-2.1c3.2,0,6.1,0.7,8.6,2
		c2.5,1.4,4.5,3.3,5.9,5.8c1.4,2.5,2.1,5.5,2.1,8.8C744.8,51.4,744.7,52.4,744.6,53.4z M734.3,47.7c0-1.8-0.6-3.2-1.8-4.2
		s-2.7-1.6-4.5-1.6c-1.7,0-3.2,0.5-4.4,1.5c-1.2,1-1.9,2.4-2.2,4.3H734.3z"/>
	<path class="st4" d="M760.4,23.3v44.4h-10.3V23.3H760.4z"/>
</g>
</svg>
