<?xml version="1.0" encoding="utf-8"?>
<!-- Generator: Adobe Illustrator 27.0.0, SVG Export Plug-In . SVG Version: 6.00 Build 0)  -->
<svg version="1.1" id="Layer_1" xmlns="http://www.w3.org/2000/svg" xmlns:xlink="http://www.w3.org/1999/xlink" x="0px" y="0px"
	 viewBox="0 0 962.7 109" style="enable-background:new 0 0 962.7 109;" xml:space="preserve">
<style type="text/css">
	.st0{fill:#47A5CF;}
	.st1{fill:#3A386A;}
	.st2{fill:#FFFFFF;stroke:#000000;stroke-width:0.5;stroke-miterlimit:10;}
	.st3{fill:#1E1E1E;}
	.st4{font-family:'Poppins-Bold';}
	.st5{font-size:60px;}
</style>
<g>
	<polygon class="st0" points="4.6,94.3 50.4,20.5 109.4,94.3 72.3,57.4 75.9,85 62.2,61.6 64.8,96.1 54,60.1 50,83.5 46.4,56.3 
		32,81.4 37.8,54 	"/>
	<path class="st1" d="M50.7,20.4c0.5-1.3,3-2.8,4-3.8c1.5-1.5,3-2.9,4.6-4.3c3.1-2.6,6.9-4.7,11-4.6c2.9,0.1,5.7,1.4,8.2,3.1
		c5.9,3.9,10.3,9.5,14.7,15.1c13.8,17.6,27.5,35.2,41.3,52.7c2.2,2.8,4.5,5.7,7.7,7.4c4.2,2.2,9.2,1.9,14,2c0.8,0,1.9,0.2,2.1,1
		c0.1,0.5-0.2,1.1-0.5,1.5c-5.3,7-14.2,11.1-22.9,10.5c-1.7-0.1-3.5-0.4-5-1.2c-1.6-0.9-2.7-2.3-3.9-3.7
		c-14.5-17.9-28.6-36.2-42.3-54.7c-4.1-5.6-8.3-11.2-13.8-15.4c-2.7-2.1-5.7-3.7-9-4.7C57.3,20.1,54.2,20.5,50.7,20.4z"/>
	<path class="st0" d="M88.8,20.4c0.4-1.3,3-2.8,4-3.8c1.5-1.5,3-2.9,4.6-4.3c3.1-2.6,6.9-4.7,11-4.6c2.9,0.1,5.7,1.4,8.2,3.1
		c5.9,3.9,10.3,9.5,14.7,15.1C145,43.5,158.8,61,172.5,78.6c2.2,2.8,4.5,5.7,7.7,7.4c4.2,2.2,9.2,1.9,14,2c0.8,0,1.9,0.2,2.1,1
		c0.1,0.5-0.2,1.1-0.5,1.5c-5.3,7-14.2,11.1-22.9,10.5c-1.7-0.1-3.5-0.4-5-1.2c-1.6-0.9-2.7-2.3-3.9-3.7
		c-14.5-17.9-28.6-36.2-42.3-54.7c-4.1-5.6-8.3-11.2-13.8-15.4c-2.7-2.1-5.7-3.7-9-4.7C95.4,20.1,92.3,20.5,88.8,20.4z"/>
	<path class="st2" d="M89.8,69.3c0.7-4.4,3.1-9.1,5.2-13c2.2-4.2,4.7-8.2,7.7-11.9c5.8-7.4,13-13.8,21.2-18.6c0.9-0.5,1.8-1,2.7-1.5
		c4.6-2.5,9.7-4.5,14.9-4.6c1.7,0,3.4,0.1,4.9,0.9c3.2,1.6,4.7,5.3,5.9,8.7c-4.2,0.4-8.5,0.9-12.7,1.3c-0.4,0-0.7,0.1-1,0.4
		c-0.3,0.4-0.1,1,0.1,1.5c1.4,2.6,3,5,4.7,7.5c8.5,12.2,17,24.5,26.1,36.2c1.9,2.4,3.9,4.9,5.2,7.7c1.3,2.8,2,6,1.2,9
		c-11.5-13.3-21.2-26.2-32.4-39.7c-3.7-4.5-6.7-8-11.7-14.5c-0.9-1.2-1.6-2.4-2.7-3.3c-1.2-1-3-0.6-4.5-0.2c-2.7,0.8-5,2.6-7.2,4.4
		c-5.3,4.4-10.1,9.3-14.6,14.4c-2.2,2.5-4.4,5.1-6.6,7.7C94.1,63.9,92.2,67.1,89.8,69.3z"/>
</g>
<text transform="matrix(1 0 0 1 196.2823 68.5758)" class="st3 st4 st5">Mac Treks &amp; Tours Nepal</text>
</svg>
