<?xml version="1.0" encoding="utf-8"?>
<!-- Generator: Adobe Illustrator 27.0.0, SVG Export Plug-In . SVG Version: 6.00 Build 0)  -->
<svg version="1.1" id="Layer_1" xmlns="http://www.w3.org/2000/svg" xmlns:xlink="http://www.w3.org/1999/xlink" x="0px" y="0px"
	 viewBox="0 0 200 108.99" style="enable-background:new 0 0 200 108.99;" xml:space="preserve">
<style type="text/css">
	.st0{fill:#47A5CF;}
	.st1{fill:#3A386A;}
	.st2{fill:#FFFFFF;stroke:#000000;stroke-width:0.5;stroke-miterlimit:10;}
</style>
<g>
	<polygon class="st0" points="4.61,95.39 50.36,21.54 109.45,95.39 72.34,58.46 75.94,86.03 62.25,62.61 64.77,97.19 53.96,61.17 
		50,84.58 46.4,57.37 31.99,82.42 37.75,55.04 	"/>
	<path class="st1" d="M50.7,21.49c0.45-1.27,2.96-2.8,4.03-3.82c1.53-1.45,3.02-2.95,4.63-4.3c3.11-2.6,6.91-4.74,10.96-4.58
		c2.94,0.12,5.71,1.44,8.16,3.06c5.87,3.9,10.32,9.54,14.67,15.09c13.76,17.57,27.53,35.15,41.29,52.72
		c2.21,2.82,4.51,5.72,7.69,7.38c4.21,2.21,9.23,1.88,13.98,1.96c0.82,0.01,1.85,0.2,2.06,0.99c0.14,0.54-0.2,1.08-0.53,1.53
		c-5.27,6.99-14.17,11.08-22.91,10.53c-1.72-0.11-3.48-0.4-4.98-1.25c-1.57-0.89-2.74-2.33-3.88-3.74
		C111.4,79.13,97.3,60.89,83.58,42.37c-4.12-5.56-8.29-11.23-13.8-15.43c-2.7-2.06-5.74-3.71-8.99-4.71
		C57.3,21.16,54.22,21.51,50.7,21.49z"/>
	<path class="st0" d="M88.78,21.49c0.45-1.27,2.96-2.8,4.03-3.82c1.53-1.45,3.02-2.95,4.63-4.3c3.11-2.6,6.91-4.74,10.96-4.58
		c2.94,0.12,5.71,1.44,8.16,3.06c5.87,3.9,10.32,9.54,14.67,15.09c13.76,17.57,27.53,35.15,41.29,52.72
		c2.21,2.82,4.51,5.72,7.69,7.38c4.21,2.21,9.23,1.88,13.98,1.96c0.82,0.01,1.85,0.2,2.06,0.99c0.14,0.54-0.2,1.08-0.53,1.53
		c-5.27,6.99-14.17,11.08-22.91,10.53c-1.72-0.11-3.48-0.4-4.98-1.25c-1.57-0.89-2.74-2.33-3.88-3.74
		c-14.47-17.94-28.57-36.18-42.29-54.7c-4.12-5.56-8.29-11.23-13.8-15.43c-2.7-2.06-5.74-3.71-8.99-4.71
		C95.37,21.16,92.29,21.51,88.78,21.49z"/>
	<path class="st2" d="M89.77,70.34c0.71-4.41,3.14-9.07,5.18-13.01c2.17-4.2,4.74-8.19,7.65-11.91
		c5.82-7.44,13.01-13.82,21.16-18.61c0.9-0.53,1.8-1.03,2.72-1.52c4.63-2.46,9.66-4.46,14.91-4.59c1.67-0.04,3.4,0.13,4.9,0.86
		c3.22,1.58,4.69,5.28,5.87,8.67c-4.24,0.42-8.48,0.85-12.72,1.27c-0.35,0.03-0.74,0.09-0.96,0.36c-0.34,0.4-0.12,1.01,0.12,1.47
		c1.35,2.61,3.04,5.04,4.71,7.46c8.48,12.24,16.96,24.48,26.14,36.2c1.91,2.43,3.86,4.87,5.19,7.65c1.33,2.79,2,6.01,1.2,8.99
		c-11.48-13.26-21.23-26.15-32.39-39.68c-3.67-4.45-6.72-7.97-11.74-14.48c-0.88-1.15-1.6-2.39-2.68-3.35
		c-1.15-1.02-3-0.64-4.48-0.2c-2.7,0.82-5.01,2.57-7.18,4.38c-5.26,4.39-10.06,9.3-14.6,14.42c-2.24,2.53-4.41,5.11-6.56,7.72
		C94.13,65,92.18,68.16,89.77,70.34z"/>
</g>
</svg>
