<?xml version="1.0" encoding="utf-8"?>
<!-- Generator: Adobe Illustrator 27.0.0, SVG Export Plug-In . SVG Version: 6.00 Build 0)  -->
<svg version="1.1" id="Layer_1" xmlns="http://www.w3.org/2000/svg" xmlns:xlink="http://www.w3.org/1999/xlink" x="0px" y="0px"
	 viewBox="0 0 1024 768" style="enable-background:new 0 0 1024 768;" xml:space="preserve">
<style type="text/css">
	.st0{fill:#0BA5E9;}
</style>
<g>
	<g>
		<path class="st0" d="M555.9,337.6c-1.1-1.7-3.2-2.5-4.8-3.6c0.7,1.6,0.8,2.1,0.1,3.7c-0.6,1.2-0.9,2.5-1.5,3.7
			c-0.4,0.8-1,1.7-1.2,2.5c-0.3,1-0.1,2-0.5,3c4.4-1.2,8.3-4,12-6.5c-0.7-0.1-2.5-0.1-3.1-0.6C556.4,339.5,556.3,338.2,555.9,337.6
			 M661.3,322.8c1.9,1.5,1.9,1.5,2,4.1C661.7,325.9,661.1,324.7,661.3,322.8 M568.7,329.6c-0.9,0.1-1.1-2.5-1.3-3.2l0.9-0.1
			C568.7,326.7,570.3,329.5,568.7,329.6 M701.5,355.7c1.2-6.9,2.8-13.8,4.8-20.6c1-3.3,2.1-6.6,3.3-9.8c1-2.8,3-5.8,3.4-8.8
			c-3.2,2.9-5.7,6.4-8.5,9.7c-2.6,3.1-5.3,6.2-7.8,9.4c-1,1.3-1.9,2.8-2,4.5c-0.1,1.9,1,3,1.8,4.6c0.8,1.6,1.3,3.7,1.7,5.4
			c0.4,1.9-0.2,2.9-0.9,4.6c-1.4-0.7-2.6-1.1-3.7-2.4c-1.1-1.3-2-2.9-3.1-4.3c-2.3-3-4.6-6.1-6.8-9.1c-4.5-6.1-8.5-12.3-11.9-19.1
			c-3.4-6.9-6.5-14-9.9-20.9c-0.7-1.5-1-3.1-2.9-3.1c-1.4,0-2.6,0.9-3.9,1.2c-0.3,0.1-0.7,0.2-1,0.2c0,0.3,0,0.7-0.2,1
			c-0.3,0.4-0.5,0.2-0.9,0.2c-0.6,0-1-0.4-1.6-0.3c-0.8,0.1-1.7,0.6-2.4,0.9v-1.9c-2.5,1.3-8.6,5.6-9.9,0.7
			c-0.1,0.9,0.1,2.5-0.8,3.1c-0.6,0.4-1.3,0-1.9,0.1c-0.8,0.1-1.5,0.7-2.2,0.9c0-1.3-1.1-1.2-2-1.3c-1.3-0.2-2.4-0.9-3.7-0.7
			c-1.3,0.2-2.2,0.8-3.5,0.1c-0.9-0.5-1.7-1.1-2.6-1.6c-0.9-0.5-1.1-0.9-1.4-1.7c-0.4-1-0.3-0.8-1.4-0.5c-2.2,0.6-3-2-3.4-3.8
			c-0.9-4.3,0.1-9,3-12.4c3.7-4.3,7.5-8.6,12.3-11.7c4.4-2.9,9.1-6.5,14.3-7.9c-4.1-9.2-10-17.8-15.2-26.5c-1.5,0.3-2.4,1.2-4,0.9
			c-1.3-0.2-1.2-0.1-1.7,1.2c-0.4,1.2-0.6,1.3-1.8,1.7c-1.2,0.4-0.2-0.4-1.1,0.6c-0.4,0.4-0.6,0.9-1.1,1.2c-1.8,1.2-4.1,0.5-6,1.3
			c-1.3,0.5-0.7,1.2-1.3,2.1c-0.7,1-1.9,0.5-2.9,0.3c-2.1-0.3-2.7,0.4-3.1,2.3c-0.3,1.4-0.5,2.2-2.1,2.5c-0.9,0.2-2.2-0.5-2.8,0
			c-0.2,0.2-0.1,0.8-0.2,1.1c-0.2,0.5-0.5,0.9-0.9,1.3c-0.7,0.8-1.7,1.5-2.7,1.9c-1,0.4-2,0.2-2.9,0.5c-1.4,0.5-1.1,2.1-1,3.2
			c-0.8-0.2-1-0.2-1.5-0.8c-0.2-0.3-0.1-0.7-0.5-0.9c-0.4-0.1-2.4,1.1-2.7,1.5c-0.8,1,0,2.5-0.2,3.7c-0.2,1.2-1.2,2.1-2,3
			c-0.3-0.7-0.5-1.5-0.8-2.2c-0.4,0.5-0.9,0.8-1.1,1.4c-0.1,0.3,0.2,0.7,0,1.1c-0.4,0.9-0.8,0.3-1.6,0.4c-0.7,0-2.5,0.5-2.1,1.6
			c0.2,0.7,1.6,0.5,1.4,1.5c-0.2,1.2-1.7,0.4-2.3,0.6c-0.8,0.3-0.5,1-0.8,1.7c-0.5,1.2-1.4,1.3-2.5,1.9c-1,0.6-1.4,1.3-1.8,2.3
			c-0.6,1.3-0.5,0.9-1.7,0.8c-0.8-0.1-1.1,0.1-1.4,0.8c-0.2,0.6,0.2,1.3,0,1.8c-0.3,0.6-1.6,1.4-2.1,2c-1.3,1.8-1.8,4-2.9,5.9
			c-0.5,0.8-1,1.7-1.6,2.4c-0.8,1-1.3,0.8-2.3,1.4c-1.7,0.9-1.2,3.3-1.4,4.8c-0.1,0.8-0.3,1.6-0.9,2.2c-0.3,0.4-1.6,0.8-1.3,1.5
			c0.3,0.9,1.3-0.1,1.1,1.3c-0.1,1.1-1.4,2-1.7,3.1c-0.2,0.8,0.1,1.5-0.1,2.2c-0.2,0.8-0.9,1.5-1.2,2.2c-0.3,0.8,0.2,1.8-0.1,2.4
			c-0.3,0.7-1.5,0.5-1.8,1.4c-0.3,1,0.5,2.5,0.6,3.5c0.1,0.6,0.4,1.3-0.1,1.9c-0.5,0.5-1.6,0.4-1.1,1.5c0.2,0.5,1,0.4,1.1,1.2
			c0.1,0.6-0.6,1.5-1,1.9c-1,1.1-2.9,2-1.5,3.4c0.2,0.2,0.5,0.1,0.7,0.4c0.3,0.4,0.3,1,0.4,1.5c0.4,1,0.9,2,1.5,2.9
			c2.4,3.4,6.4,5,9,8c3.2-3.2,6.5-6.3,9.5-9.7c2.6-2.9,5.1-5.8,8-8.4c1.5-1.3,3.3-2.3,4.5-3.9c1.2-1.5,1.7-3.4,2.6-5.1
			c1.8-3.3,4.4-6,6.3-9.2c3.8,2.5,2.2,8.8,1.1,12.3c-0.7,2.2-1.6,4.2-2.7,6.2c-0.9,1.7-2.3,3.3-2.7,5.2c-0.4,1.5,0.2,2.8,1.1,4.1
			c1.3,1.8,2.8,3.5,4.1,5.2l9.8,12.8c1.2-1.7,3.1-0.6,4.7-0.3c2.3,0.5,4.7,0.3,7,0.5c2.5,0.2,4.9,0.6,7.4,1c2.2,0.4,0.7,1.4,1.8,2.6
			c2.2-4,6.5-1.5,10-1.1c2.2,0.2,4.5,0.1,6.6,0.4c2.2,0.3,4.3,1,6.5,1.2c4.2,0.4,8,1.9,12.2,2.6c2.2,0.4,4.4,0.7,6.6,1.1
			c0.8,0.1,2.1,0.2,2.6,1c0.5,0.9-0.5,2.9-0.8,3.8c-0.4,1.3-0.7,3.2-1.6,4.3c-0.7,0.8-0.8,0.3-1.7,0.3c-1,0-0.6,0.2-1.3,0.9
			c-0.8,0.9-2,1-3.2,1.1c-0.5,0-1.6,0-2,0.3c-0.6,0.5-0.1,0.6-0.1,1.4c-0.1,1.4-2,2.4-3.1,3c-0.7,0.4-1.5,0.6-2.3,0.6
			c-0.5,0-1.1-0.5-1.6-0.3c-0.7,0.3-0.7,1.7-1.1,2.3c-0.8,1.1-1.8,0.3-2.9,0.8c-1.2,0.7-1.9,2.2-3.1,3c-2.3,1.5-5,1.7-6.1-1.2
			c-0.5,1-1.6,2.4-1.1,3.4c0.4,0.9,1.5,1.5,2.3,1.9c2.3,1.2,4.5,2.5,6.7,3.9c5,3.2,9.8,6.7,15.1,9.4c5.3,2.6,10.8,5.4,16.6,6.6
			c6,1.2,12,0.4,17.6-2c-0.8-1.6-1-2.7-1-4.6c0-1.8-0.1-3.6-0.1-5.3c0-3.5,0-7.1,0.1-10.6C699.5,369.8,700.2,362.7,701.5,355.7
			 M764.4,350.6c-0.5-1.9-1.1-3.9-1.3-5.9c-0.1-1.4,0.4-3.6-0.4-4.8c-0.4-0.5-1-0.7-1.2-1.4c-0.2-0.5,0.1-1.5,0-2.1
			c-0.2-1.5-0.8-2.8-1.3-4.2c-1.2-3.1-1.3-6.3-2.3-9.5c-0.6-1.7-1.6-3.2-2.2-4.9c-0.6-1.5-0.8-3.2-1-4.8c-0.2-1.7-0.2-3.4-0.6-5.1
			c-0.4-1.6-0.9-3.1-1.2-4.7c-0.8-3.8-1.8-7.5-3.1-11.2c-0.5-1.4-0.9-3.7-2.1-4.6c-0.9-0.7-2.1-0.5-3.1-0.4
			c-1.2,0.1-2.1,0.1-2.9,1.1c-1,1.3-1.6,2.6-2.8,3.8c-1.2,1.2-2.7,2.2-3.7,3.5c-0.8,1-0.4,1.4,0.5,2.2c-1.2,0.1-2.1-0.2-3,0.7
			c-0.9,0.9-1.5,2.4-2.1,3.5c-1.2,2.5-1.4,4.7-1.7,7.4l-1-1.5c-0.4,1.1-1,2.3-2.2,2.8c-1.5,0.6-1.4,0.4-1.4,2c0,2.4-2,3.8-3.2,5.6
			c-0.7,1-1.4,2.1-1.8,3.3c-0.6,1.4-0.2,2.4-0.1,3.9c0.2,2.2-1.9,3.9-3.2,5.5c-0.4,0.5-0.6,0.7-0.8,1.3c-0.2,0.4,0.1,0.7-0.3,1.2
			c-0.6,0.9-1.9,0.6-2.3,1.7c-0.5,1,0.2,2,0.3,2.9c0.2,1.5-0.8,3-1.3,4.4c-0.6,1.5-1,3.1-1.2,4.7c-0.1,0.9-0.2,1.9-0.1,2.8
			c0,0.4,0.3,1.5,0.1,1.9c-0.4,0.5-1.2-0.1-1.5,0.5c-0.7,1.2,1.9,1.5,2.4,1.7c-0.6,0.4-1.4,0.6-1.9,1.2c-0.6,0.7-0.2,1.1-0.5,1.9
			c-0.3,0.9-1.3,1.1-1.7,1.9c-0.3,0.8,0.3,1,0.7,1.6c0.8,1.6,0.1,4-0.2,5.6c-0.1,0.7-0.1,2.4-0.5,2.9c-0.3,0.3-0.8,0.2-1.1,0.5
			c-0.5,0.6,0,0.8,0.2,1.5c0.2,0.9,0.2,1.8,0,2.6c-0.2,0.8-0.8,1.6-0.9,2.4c-0.2,0.9,0.3,1.2,0.6,2.1c0.7,1.9,0.2,4.2,0,6.1
			c-0.3,2.2,0.5,4.3-0.1,6.4l-1.9-0.8c0.2,1,0.4,2,0.6,3l0.3,1.5c-0.1,0.6,0.1,0.9,0.6,0.8c1.1,0.3,2.7-1.4,3.6-1.9
			c2.7-1.5,5.5-2.6,8.3-3.9c2.9-1.3,5.3-3.2,7.9-4.9c2.7-1.8,5.5-3.3,8.2-5.1c11.4-8.1,23.7-14.9,35.6-22.2
			C765.7,357.4,765.1,353,764.4,350.6 M778.5,258.8c1.8,0.5,1.4,2,0.7,3.3c-0.7-0.6-1.9-1.4-2.2-2.3
			C776.6,258.6,777.5,258.5,778.5,258.8 M828.3,303.4c-0.1,0.5-0.2,2.3-0.5,2.6c-0.3,0.3-2-0.1-2.4-0.1c-1.4-0.1-2.4,0.2-3.7,0.5
			c-2.2,0.6-2.6-0.8-2.7-2.9c-1.7,3.4-4.6,5.1-8.2,5.8c-1.6,0.3-3.4,0.6-5,0.7c-1.2,0.1-2.6-0.1-3.9-0.3c-0.8-0.1-1.5-0.6-2.2-0.8
			c-1.6-0.3-0.2,0.9-1.3,1.2c-0.3,0.1-1.4-0.4-1.9-0.4c-0.7,0-1.4,0.1-2.1,0c-1.6-0.1-2.1-1-3.4-1.7c-0.7-0.4-1.1-0.3-1.8-0.2
			c-0.8,0.1-0.2,0.4-1.1,0.2c-0.3-0.1-0.8-0.4-1.1-0.5c-1.7-0.8-3.1-1.5-4.4-2.8c-1-1-2.2-1.7-3.2-2.6c-0.4-0.4-0.5-0.8-0.9-1.2
			c-0.4-0.5-0.4-0.4-0.9-0.7c-0.6-0.4-1-0.6-1.4-1.3c-0.6-1.1-0.6-2.6-0.7-3.8c-0.3-4.1,0.4-7.8,2.4-11.4c2.1-3.9,3.9-8.1,6.4-11.8
			c2.2-3.4,5.1-6.5,7.8-9.5c0.8-0.8,1.6-1.8,2.6-2.5c0.6-0.4,1.4-0.6,2-1.1c1.4-1.1,0.7-3.1,0.7-4.7c0.4,0.8,1.1,1.9,2.2,1.7
			c0.7-0.2,0.7-0.9,1.2-1.2c0.4-0.2,0.8-0.1,1.3-0.2c-1.7-8.2-3.8-16.5-6.5-24.4c-7.4,7.2-14.7,14.5-21.9,21.9
			c-3.7,3.8-7.1,7.9-10.8,11.8c-3.9,4-7.8,8-11.7,12c1.1,1,2.3,1.7,3,3c0.7,1.2,1.4,2.1,2.3,3.2c2.1,2.3,3.1,5.8,4.3,8.7
			c0.3,0.6,0.3,0.7,0.3,1.2c0,0.3-0.4,0.6-0.4,1c0,0.5,0.2,0.8,0.5,1.1c0.3,0.3,1,0.7,1.1,1.2c0.1,0.5-0.5,0.9-0.6,1.4
			c-0.8,2.2,1.8,3.7,2.7,5.4c0.5,0.9,0.7,1.9,0.1,2.8c-0.5,0.8-1.6,1.1-1,2.2c0.4,0.7,1.4,0.3,1.3,1.3c-0.1,0.5-1.1,1-0.2,1.6
			c0.8,0.5,1.7-0.4,1.4,1.1c-0.2,0.7-1.1,1.3-0.8,2.1c0.2,0.7,1.5,0.8,2.1,1.4c0.6,0.7,0.9,1.9,1.1,2.8c0.4,3.2,1.2,6,1.9,9.1
			c0.5,2.1-0.8,2.1-2.6,2.1c1.2,1.7,2.5,3.5,3.8,5.2c1.3,1.6,1.6,4.2,2.2,6.2c0.7,2.4,1.5,4.8,2.2,7.2c0.3,1.1,0.5,2.2,0.1,3.3
			c-0.5,1.3-0.5,1.3-0.3,2.6c5.8-3.3,11.2-7,16.7-10.8c2.6-1.8,5.3-3.6,7.8-5.5c2-1.5,4.1-3,5.4-5.2c3-5.1,7.5-9,11.6-13.3
			c2.1-2.2,4-4.9,6.5-6.5c2.5-1.6,5.1-3,7.5-4.6L828.3,303.4"/>
		<path class="st0" d="M645.7,371.3c2.3-1.1,4.5-2.6,6.8-3.9c2-1.1,3.8-1.6,5.5-3.1c0.7-0.6,1.4-0.9,2.2-1.3
			c1.1-0.5,1.9-1.5,2.8-2.2c-2.4-0.9-4.8-2.4-7.4-2.4c-1.2,0-2.3,0.4-3.5,0.2c-1.2-0.2-2.1-0.8-3.1-1.5c-1.7-1.3-2.5-1.1-4.4,0
			c-0.4,0.3-1.1,0.8-1.6,0.8c-0.9,0-0.8-0.6-1.1-1.2c-0.3-0.5,0.1-0.6-0.5-0.6c-0.4,0-0.6,0.5-1,0.6c-0.8,0.2-2.3-0.6-3.2-0.8
			c-1.4-0.2-2.4,0-3.8,0.1c-1.4,0.1-2.8-0.2-4.1-0.7c-1.2-0.4-2.4-1-3.6-1.4c-1.6-0.5-1.9,0.1-3.4,0.5c-2.2,0.5-4.4-2.7-6.4-1
			c3,4.4,7.1,8,10.9,11.7c2,2,4.1,3.9,6.3,5.7c1,0.8,2,1.6,3.1,2.4c0.5,0.4,0.9,0.7,1.4,1.1c0.8,0.6,0.8,0.8,1.5,0.5
			c1.1-0.5,1.9-1.5,3-2C643.4,372.3,644.5,371.9,645.7,371.3 M647.2,275.9c0.1,2,1.3,3.6-0.4,5.2c0-1-0.1-1.9-0.2-2.9
			C646.5,277.2,646,276.1,647.2,275.9 M645.2,267.4c-0.3,0.9-0.7,1.5-1.5,1.9c-1.2,0.6-2.8-0.4-3.6,0.5c-0.8,0.9-0.7,3-1.8,3.7
			c-0.3,0.2-0.7,0.1-1.1,0.4c-0.3,0.3-0.4,0.9-0.7,1.1c-0.6,0.4-1.1,0-1.6,0.2c-0.6,0.3-0.7,1-0.9,1.6c-0.2,0.6-0.2,1.4-0.6,1.8
			c-0.5,0.6-1.8,1-2.4,1.4c-2.4,1.5-4.7,2.9-7.1,4.4c0.7,0.7,2.2,1.5,2.4,2.6c0.1,0.7-0.4,0.8,0.2,1.4c0.3,0.3,1.2,0.5,1.5,0.7
			c1.3,0.7,2.7,1.3,4.2,1.6c1.7,0.4,3.5,0.2,5.2,0.6c1.8,0.4,3.6,0.8,5.5,0.7c1.6,0,3.1-0.5,4.7-0.6c3-0.3,6.8,0,9.3-2.1
			c-0.2-2.2-0.5-3.8-1.3-5.8c-0.7-1.9-1.5-3.8-2.2-5.6c-1.5-3.8-3.1-7.4-5.1-11c-0.4,2.5-1.4-0.8-2.3-0.8
			C645.4,266,645.4,266.9,645.2,267.4 M810,294.6c1.3,0.3,2.4,0.5,3.6,1.1c0.9,0.4,1.3,0.6,2-0.1c0.4-0.4,0.5-1,1.1-1.2
			c0.5-0.3,1.3-0.2,1.9-0.2c1.5-0.1,3-0.1,4.4-0.2c-1.7-1.6-3.4-3.3-5.1-4.9c-0.3,0.5-1,2.1-1.5,2.2c-0.2,0-0.6-0.5-0.9-0.5
			c-0.3,0-0.5,0.1-0.7,0.2c-0.6,0.3-0.9,0.9-1.6,1.1c-0.7,0.2-1.5-0.1-2.2-0.2C810.8,292.5,810.3,293.7,810,294.6 M807.9,273.4
			c0.3-1.2-0.3-2.5-0.1-3.7l-0.4-0.6c-0.3,0.7-0.5,1.5-1,2.1c-0.4,0.6-1,1-1.2,1.7c-0.5,1.2,0.1,2.1,0.7,3.2
			C806.6,275.1,807.6,274.5,807.9,273.4 M797.8,276c-1,0-0.6,0.5-0.8,1.3c-0.1,0.5-0.3,0.9-0.6,1.3c-0.5,0.8-1.8,1.6-1.1,2.8
			c0.6,0.9,0.7-0.2,1.2,0.2c0.5,0.5-3,4.1-3.6,4.3c-0.3,0.1-0.6-0.2-0.9,0c-0.2,0.2,0.1,2.3,0.1,2.7c0,1.1-0.1,2.3,0.8,3.1
			c1.1,0.9,2.8,1,4.1,1.5c0.9,0.4,1.7,0.9,2.6,1.1c1,0.3,1.8-0.3,2.6-0.2c0.6,0.1,1.8,1.1,2.5,1.4c0.8,0.4,1,0.5,1.8,0.2
			c0.5-0.2,1.3-0.5,1.6-0.9c0.5-0.6,0.1-0.6,0.2-1.4c0.1-1.5,1.7-1.3,2.7-1.7c-2.1-0.6-3.2-2.9-4.3-4.7c-0.5-0.8-1.4-1.8-1.6-2.7
			c-0.3-1.1,0.5-1.9,1-2.8c-0.7,0.3-3.4,1.5-2.1,0.1c0.4-0.5,2.9-1.2,1.9-2.4c-0.6-0.7-1.4,0.8-2.1,0.6c-0.8-0.2-1.8-1.6-2.5-2
			C800.5,277.3,798.8,276,797.8,276 M546.8,318c0-3.5,0.6-7,1.6-10.3c2.1-6.9,6.5-12.9,7.9-20c0.7-3.4,0.5-6.9,1.1-10.3
			c0.7-3.6,0.7-7.3,0.8-11c0.1-3.6,0.3-7.2,0.2-10.8c0-1.3-0.4-3.1-0.1-4.3c0.3-1.1,0.7-0.7,1.6-1c-0.6-0.4-1.9-0.6-2-1.4
			c-0.1-0.5,0.4-1.1,0.4-1.7c0-0.5-0.3-1-0.4-1.4c-0.8-2.5-1.9-6.4-0.5-8.8c-0.9-0.1-1.2-0.4-2,0c-0.9,0.4-1.7,1.3-2.5,1.9
			c-1.5,1.2-3,2.4-4.3,3.7c-2.5,2.6-4.6,5.5-6.8,8.3c-2.2,2.8-4.5,5.6-6.7,8.4c-1.8,2.2-4.5,5.4-7,2.5c-0.7,1-1.2,2-2.4,2.4
			c-1.5,0.6-2.1,1.2-3.1,2.4c-0.2,0.2-0.8,1.3-1.1,1.4c-0.6,0.2-0.2-0.2-0.7-0.5c-0.7-0.4-1-0.7-1.3,0.5c-0.1,0.5,0.2,1-0.1,1.6
			c-0.2,0.5-1,1-1.5,1.3c-1.1,0.6-2.3,0.6-3.4,1c-1.9,0.6-3.1,3.5-5.2,2.1c-0.8-0.5-1.4-1.3-2.3-0.8c-0.7,0.4-0.9,1.4-1.9,1
			c-0.6-0.2-1-0.9-1.7-1.2c-0.5-0.2-0.9-0.2-1.4-0.3c-1.1-0.1-2.1-0.1-3.2-0.4c-2.2-0.7-3.8-2.7-5.3-4.4c-1.1-1.2-0.8-2-0.5-3.6
			c0.3-1.4,0.5-2.7,0.9-4c0.7-2.6,1.5-5.3,2.8-7.7c1.5-2.8,3.6-5.2,5.6-7.7c4.1-5.1,8-10.6,12.5-15.4c0.8-0.9,2.3-1.9,2.1-3.3
			c-0.2-1.5-1.9-0.8-3-0.5c-2.8,0.7-5.5,2.1-8.2,3.1c-1.5,0.6-3.5,1.7-5.1,1c-1.5-0.7-3.9-2.6-3.1-4.4c0.6-1.3,1.4-2.3,1.7-3.8
			c0.3-1.4,0.5-2.7,0.8-4.1c0.7-3.2,1.5-6.4,2.5-9.6c1.8-6,4.1-11.9,6.1-17.9c-8.3,0.7-15.9,3.2-23.6,5.9c0.4,0.8,1.1,1.8,0.8,2.7
			c-0.3,1.1-1.8,0.7-2.2,1.5c-0.4,0.9,0.9,1.4,0.5,2.5c-0.3,1-1.3,2.1-1.8,2.9c2.5,1.6,1.6-1.8,3.3-2c0.5,2.7-0.6,4-1.7,6.3
			c-0.9,2,1.2,1.8,1.7,3.4c-1.2,0.2-2.1-0.4-2.6,1.1c-0.2,0.6,0.1,2.9-0.6,3c-0.5,0-0.4-1-0.8-1c-0.6-0.1-2,1.9-2.3,2.3
			c1.5,0,2.3,0.2,3.8,0.7c-0.9,0.9-1.9,1.8-2.8,2.7c0.9,0.4,2.4,0.4,2.8,1.4c0.4,0.9-0.2,2.6-0.3,3.5c0.4-0.6,0.9-1.9,1.5-2.3
			c0.8-0.5,1,0,0.9,1c-0.1,1.9-2.6,1.8-3,3.3c-0.4,1.5,1.8,0.5,1.9,2c0,0.9-1,1.6-0.5,2.5c-1.1-0.6-1.3-1-1.9-2.2
			c-0.4,1.5-1.3,4-0.8,5.6c0.4,1.3,1.3,1,0.3,2.3c-0.4,0.5-0.9,0.8-0.9,1.5c0,1.5,2.1,2.6,0.4,3.9c-0.6,0.5-1.3,0.6-1.6,1.5
			c-0.3,0.8,0,1.8-0.2,2.6c-0.5,1.7-1.7,2.9-2.9,4c-1.1,1-2.1,2.2-3.2,3.1c-0.6,0.5-0.9,0.8-1.3,1.4c-0.2,0.3,0,0.5-0.2,0.8
			c-0.3,0.3-1,0.3-1.4,0.3c-1.3,0.2-2.8,0.8-3.3,2.2c-1.6-1.2-3.2,0.3-4.7,0.7c-0.8,0.2-1.4,0.3-2.2-0.1c-1.1-0.6-1.1-0.7-2.5-0.5
			c-3.8,0.5-6.9-3.4-9.1-6.1c-1.5-1.9-2.4-4.4-2.8-6.8c-0.5-2.8-1-5.7-1.2-8.6c-0.5-6-0.3-12-0.1-18c-7,3.7-13.6,8.5-19.9,13.4
			c-6.3,4.8-11.6,10.8-17.3,16.4c1.4,0.1,2.8,0.6,4.3,0.6c0.7,0,1.4-0.1,2.1-0.4c0.4-0.2,0.7-0.4,1-0.6c0.3-0.5,0.6-0.6,1.1-0.3
			c1.4-0.1,2.7-0.4,4.1-0.6c1.8-0.3,3.7,0.3,5.5,0.6c3.3,0.6,6.8,0.2,10,1.2c2.8,0.9,5.7,2.2,8.4,3.3c2.6,1.1,4.8,3.6,7,5.3
			c1.3,1,2.6,1.4,4,2.3c1.3,0.8,2.3,2.5,3.2,3.7c2.2,2.8,4.6,5.5,6.8,8.3c1,1.3,1.9,2.6,2.4,4.1c0.3,0.8,0.3,1.6,0.6,2.4
			c0.2,0.7,0.7,1.1,1.1,1.6c1.3-3.6,2.6-7.3,4-10.9c0.5-1.4,2.9-8,4.8-5.5c1.6,2.2,0.7,6.7,0.2,9.1c-0.7,3.3-1.4,6.5-2.2,9.8
			c-1.5,6.5-2.8,13-4.6,19.4c-0.1,0.4-0.4,0.9-0.4,1.3c-0.1,0.7-0.3,0.3,0.2,0.8c0.3,0.3,0.9,0.2,1.1,0.5c0.5,0.6,0.3,2.6,0.3,3.3
			c-0.1,1.3-0.8,1.9-1.2,3.1c-0.3,1,0.2,2.1,0.2,3.1c0,2.6-1.3,5.4-1.8,8c-0.3,1.6,0.6,4.2-1.6,4.5c0.6,1-0.1,1.4-0.6,2.1
			c-0.6,0.9-0.7,1.8-1.1,2.8c-0.3,0.9-0.9,1.5-1,2.4c-0.1,0.8,0.3,1.6,0,2.4c-0.3,1-0.9,1.1-1.8,1.5c-0.8,0.4-0.6-0.1-0.8,0.7
			c-0.1,0.3,0,1.1,0,1.6c-0.4,1.9-1.9,3.2-3.1,4.5c-0.5,0.5-1.1,1.7-1.7,2c-0.8,0.4-2.1-0.3-2.9,0.1c-0.7,0.4-1.5,3.4-1.7,4.2
			c-0.6,1.6-1.1,3.2-1.6,4.7c-1.9,5.8-3.9,11.6-5.8,17.4c0.9,0,2.5-1,3.3-0.6c1,0.5,0.4,1.9,0.7,2.6c0.3,0.5,1.9,0.5,2.6,0.5
			c1.2,0.1,1.8-0.3,2.9-0.6c1.9-0.6,4.4-0.4,6.4-0.6c4.5-0.5,9.1-0.6,13.5-1.6c4.2-0.9,8.2-2.5,12.4-3.7c-1.9-1-2.3-3.5-2.8-5.4
			c-0.3-1.1-0.4-1.9-1-2.8c-0.7-1.1-1.3-2.2-1.7-3.5c-1.7-4.8-1.8-10.7-1.2-15.7c1.2-10.2,4.8-19.8,10.4-28.3
			c2.7-4.1,5.8-7.9,9.2-11.4c3.5-3.6,7.1-7.5,11.2-10.3c1.9-1.3,4-1.8,5.7-3.3c1.2-1.2,3.2-1.4,4.8-2.3c2.1-1.2,4-2.1,6.4-2.6
			c1.8-0.4,3.8-1.3,5.6-1c1.3,0.2,0.8,0.7,1.5,1.3c1,0.8,0.6-0.3,1.3-0.6c0.6-0.2,1,0.4,1.5,0.5c0.2,0.1,1.3,0.1,1.2,0
			c0.6,0.3,0.5,1.5,0.8,2.1c0.3,0.6,0.9,1,1.1,1.7c0.3,0.9,0.1,1.6-0.3,2.4c-0.4,0.9-1.1,1.3,0,2.1c-2.6,1.7-1,5.1-2.9,7.2
			c-0.7,0.7-2.2,1.7-2.1,2.8c0,1.2,2.1,1.6,1.1,2.8c-1,1.1-3.1,0.6-4.3,1.5c-1.2,1-0.8,2.6-0.9,3.9c-0.1,1-1.1,2.2-0.7,3.2
			c0.3,0.6,0.7,0.5,0.8,1.2c0,0.6-0.5,1.3-0.6,1.9l-1.3-0.6c-0.2,0.8-0.6,1.5-0.7,2.3c-0.1,0.9,0.3,1.4,0.5,2.2
			c0.2,0.8-0.3,2.3-0.3,3.3c-0.1,1.1-0.2,2.3-1,3.2c-0.5,0.5-1.1,0.6-1.6,1c-0.5,0.4-0.6,0.9-1,1.4c0.7-0.2,1.5-0.4,2.2-0.7
			c-0.3,1.4-0.8,2-1.8,3.1l-0.5-2.5c-0.3,0.9-0.8,1.5-0.7,2.5c0,0.8,0.4,1.6,0.4,2.4c0,1.6-1.2,2.6-0.7,4.2c0.6,1.9,0.7,2.8,0.1,4.7
			c-0.5,1.7-1.2,3.3-1.3,5.1c-0.1,2,0.8,3.7,0.6,5.7c-0.1,0.9-0.5,1.6,0.6,1.7c0.9,0.1,1.9-0.7,2.7-1.1c4-1.9,7.9-3.8,11.8-5.7
			c-0.7-1-0.6-1.1-0.1-2.3l1-2.8c0.7-2,1.5-4,2.2-6c1.4-3.7,3.3-7.4,4-11.4C547,325.2,546.7,321.6,546.8,318 M305.3,605.6l-3.9-2.5
			l2.3-1.7c0.8-0.6,1.2-1.2,1.7,0C305.9,602.7,305.3,604.3,305.3,605.6 M303.6,596.1c1.8,2.1-1.6,2.8-2.9,3
			C300.9,598.1,301.7,593.9,303.6,596.1 M343.9,588.6c-0.6-1.8-1.6-6.9-4.3-6.6c-0.7,0.1-1.3,0.7-2,0.8c-0.7,0-1.3-0.1-2-0.2
			c-1.4-0.1-3,0-4.4,0.4c-1.6,0.5-2.8,1.3-4.6,1.4c-1.3,0.1-2.6,0-3.8,0.3c-2.1,0.6-2,2.5-1.7,4.3c-0.4-0.4-0.8-0.7-1-1.2
			c-0.3-0.5-0.3-1.1-0.7-1.6c-0.9-0.9-1.9-0.5-3-0.4c-1.2,0.1-2.9-0.7-4.1-0.3c-0.5,0.2-0.8,0.8-1.4,1.1c-0.5,0.2-1,0.3-1.6,0.3
			c-1.2,0.1-2.4,0.5-3.5,0.5c-1.5,0-2.8-0.1-4.3,0.3c-1.4,0.4-2.7,1-4.1,1.3c-1.6,0.4-3.2,0.5-4.7,0.8c-3.1,0.6-6.2,2-9.5,2.2
			c-1.7,0.1-3.3,0.1-5,0.4c-0.5,0.1-1.7,0.1-2.1,0.3c-0.5,0.3-0.8,1.7-1.1,2.2c-2.9,6-5,12.3-7.3,18.5c-2.4,6.4-4.8,12.9-7.2,19.3
			c-1.1,3-2.6,6-3.5,9.1c-0.9,2.9,2.5,4.9,4.3,6.7c4.4,4.4,8.8,8.7,13.8,12.5c5,3.8,10.7,6.3,16.4,8.8c5.9,2.6,12,4.1,18.3,5
			c3.3,0.5,6.5,0.8,9.8,1c3.3,0.3,6.1-0.2,9.3-0.6c-0.3-0.7-1.4-2.1-1.2-2.9c0-0.2,0.5-0.6,0.6-0.9c0.2-0.4,0.1-0.8,0.1-1.2
			c0-1.9-0.7-3.7,1.7-4.4l0.2,3.1c1.2-1.8,0.4-3.6-0.3-5.4l-2.5,2.1c0.2-0.5,1.5-3.7,1.2-4c-0.4-0.3-1.1,0.5-1.5,0.1
			c-0.3-0.3,0-1-0.1-1.4c-0.2-0.6-0.9-1.1-0.9-1.8c0-0.9,1.2-1.7,1.8-2.3c0.8-0.9,1.2-1.5,1.2-2.7c0-1.7,0.8-1.6,2-2.7
			c2-1.8,2.1-4.3,1.1-6.6l2.6-0.2c-0.8-2-1.6-4-2.4-6.1c-0.8-2,0.3-3.1,0.8-4.9c1.2,1.2,2.4,2.4,3.6,3.5c0.3-3.8,1.3-7.6,0.9-11.5
			c-0.1-1.2-0.4-1.1,0.2-2c0.4-0.6,0.9-1.1,1.3-1.8c0.7-1.4,0.9-2.9,1-4.4c0.1-1.4,0.1-2.9,0.5-4.3c0.3-1,1.3-1.6,1.5-2.7
			c0.4-2-2.7-5.4-0.9-6.8c0.9-0.7,2.1,0,2.8-1.2c0.6-1,0.8-2.5,1.1-3.6c0.5-1.8,0.8-3.2,0.1-5C345,591.7,344.4,590.2,343.9,588.6
			 M372.7,496.8c-0.5-1-1.2-1.2-2.3-1.4c-4.7-0.9-9.4-0.9-14.1-1.3c-1.3-0.1-2.7-0.3-4-0.6c-1.1-0.3-2.1-0.9-3.2-1.1
			c-2.1-0.5-4.3,0.9-6.4,0.8c-1.1-0.1-2-0.7-3.1-1c-0.9-0.2-1.6,0-2.5,0c-1.7,0.1-3.4,0-5.1-0.2c-2.1-0.2-4.1-0.6-6.1-1.1
			c-1.3-0.4-3.3-0.7-4.3-1.8c-2.2,3.4-4.1,7-5.7,10.8c-1.6,3.7-3.7,7.1-5.6,10.6c-3.9,7.1-6.7,14.7-9.4,22.4
			c1.5-0.7,2.5-1.4,3.6,0.2c1,1.4,2.3,1,3.9,1.2c2.7,0.4,3,3.4,3.6,5.6c0.9-1.1,1.7-2.2,2.6-3.2c0.7,0.8,1.8,1.2,2.4,2.1
			c0.4,0.6,0.2,1.1,0.4,1.6c0.2,0.5,0.7,0.7,1.1,1.1c2.7-3.4,5.2,3,5.5,5.2l1-2.5c0.5,0.5,1.1,1,1.5,1.5c0.2,0.4,0.2,1,0.5,1.3
			c0.4,0.5,0.6,0.3,1.1,0.4c0.8,0.2,0.7,0.2,1.2,0.8c1.5,2,3.7,3.5,4.9,5.6c1.6,2.7,3.7,5.4,4.6,8.4c0.5,1.7,0.8,3.3,1.7,4.9
			c0.5,0.8,1.3,1.5,1.7,2.3c0.5,1-0.4,1.4-0.3,2.3c0.1,0.9,1.6,1.8,2.4,2.1c1.2,0.4,2.6,0.3,3.8,0.3c1.6,0,3.5,0,5-0.5
			c1.4-0.4,1.2-1.1,1.6-2.3c0.4-1.4,1.2-2.8,1.8-4.1c0.9-2,1.4-3.3-1.4-3.9c1.6-0.3,4.1-0.7,3.6-2.8c-0.2-1-1.1-1.7-1-2.8
			c0.1-1.1,1-1.5,1.9-2.1c1.6-1.1,2.7-3.2,3.3-5c0.3-1,0.4-1.8,0.1-2.8c-0.5-1.6-0.8-2.9-0.9-4.6l2.2,0.2c-0.2-0.6-0.2-1.1-0.5-1.7
			c-0.1-0.2-0.6-0.3-0.6-0.6c0-0.5,0.7-0.5,1-0.8c0.7-0.8,0.9-2.8,1.2-3.8c0.3-1,0.4-2.2,1-3c1-1.6,2.2,0.7,2-1.6
			c-0.1-1.2-0.2-2.9-1.7-3.1c-1.7-0.2-2.2,0.5-2.1-1.6c0.1-1.5-0.3-4.6,1.3-5.4c0.8-0.4,2-0.3,2.8-0.4c1-0.1,1.8,0.4,2.7,0.4
			c1.5-0.1,1.5-2.3,1.6-3.4c0.8-5,1.2-10.1,0.7-15.1C373.6,501.1,373.5,498.6,372.7,496.8"/>
		<path class="st0" d="M413,299.6c-0.1-3.6-0.1-3.6,1.9-5C415.5,296.9,414.2,298,413,299.6 M449.8,308.9c0.4-0.9,2.2-0.6,3-0.6
			c-0.4,0.7-1.6,2.5-2,3.9C450.4,311.4,449.4,309.7,449.8,308.9 M445.1,334.7c0.8-0.6,0.6-0.6,1-1.4c0.3-0.6,0.2-0.9,0.8-1.3
			c1.3-0.8,1.5-0.8,1.8-2.5c0.3-1.5,0.2-3.5,0.8-4.9c0.5-1,2-1.1,2-2.3c0-2.4-4.2-3.6-3.4-6c0.2-0.7,1-0.9,1.3-1.5
			c0.2-0.4,0.1-0.9,0.1-1.3c0.1-0.9,0.4-1.1,1.2-1.3c-0.1,0.4-0.1,0.8,0,1c0.5,1,2.7-0.2,3.2-0.9c1-1.5,0.1-4-0.3-5.5
			c-0.5-2.1-0.4-3.7-0.2-5.8l2.8,3c0.5-1.5,0.6-2.3,2-3.3c1.3-0.9,1.8-1.5,2.6-2.8c0.3-0.5,0.5-1,1.2-1.2c0.6-0.2,1.6,0.5,2.1,0.2
			c0.3-0.2,0.7-1.8,0.8-2.1c0.3-0.9,0.7-1.9,1-2.8c-2-5-3.6-10.2-6.5-14.7c-2.7-4.1-6.6-7.5-10.5-10.4c-2-1.5-3.9-3-6-4.3
			c-2.1-1.3-4.3-1.8-6.5-2.8c-2.2-1-4.8-2-7.2-2.2c-1.2-0.1-2.5,0.2-3.7,0.1c-1.4-0.2-2.7-0.6-4.1-0.9c0,7.2-2.6,14.5-5.1,21.1
			c-1.1,3-2.7,5.8-3.9,8.9c-1.2,3-2.3,6.1-3.6,9.1c-2.6,6.2-5,12.6-8.4,18.4c-0.3,0.5-0.6,0.9-0.5,1.3c0.1,0.1,0.5,0.4,0.6,0.5
			c0.3,0.4,0.6,0.8,0.9,1.2c0.6,1,0.8,2.2,1.2,3.2c0.9,2.5,2.6,4.9,3.9,7.2c1.5,2.6,3.5,4.9,5.7,7c1,1,2.6,1.9,3.2,3.2
			c0.5,1,0.5,2.2,0.8,3.3l0.4-2.5c0.9,1.9,3.2,2.1,4.9,3c2.1,1.2,4,2.7,6.2,3.7c2.3,1,4.7,1.8,7.1,2.2c1.2,0.2,2.5,0.3,3.8,0.3
			c1.3-0.1,2.2-0.7,3.3-1.1c-3.6-3.1-2.3-8.5-0.2-12.1l1.9,4.2c0.4-1,1.8-1.9,1.2-3.1c-0.4-0.7-0.9-0.5-1-1.3
			c-0.1-0.6,0.3-1.5,0.6-2C444.9,333.2,445,333.9,445.1,334.7 M434.5,358c-0.8-1.8-4.2-2.2-5.8-2.6c-2.8-0.6-5.4-2.2-7.9-3.5
			c-2.4-1.3-4.4-2.4-6.3-4.3c-0.9-0.9-1.7-1.1-2.8-1.6c-1.1-0.5-1.8-1.2-2.6-2.1c-1.6-1.8-3.7-3.2-5-5.3c-1.2-2.1-3-3.5-4.5-5.4
			c-1.8-2.3-3.1-4.9-4.6-7.3c-2.8,3-3.5,7.7-5.2,11.3c-2.1,4.5-4.1,9.1-6.1,13.7c-3.5,8.2-7,16.5-10.1,25c-0.1,0.3-0.7,1.3-0.6,1.7
			c0.1,0.3,0.9,0.7,1.1,0.9c0.7,0.7,1.1,1.5,1.6,2.3c1,1.4,2.1,2.8,3.2,4.1c2.7,2.9,5.8,5.5,9.2,7.5c1.5,0.8,3.6,2.5,5.3,2.4
			c2.2-0.2,3.8-0.3,6,0.2c2.1,0.5,4,0.9,6.2,0.8c0.9,0,1.8-0.1,2.6,0.2c0.6,0.2,1,0.9,1.7,0.9c0.8,0,1.3-0.7,2.1-1
			c0.7-0.2,1.4-0.3,2.1-0.2c1,0,3.5,1,4.3,0.2c0.9-0.9,0.6-3.4,2.2-3.7c1.2-0.2,3.8,2,4.8,2.7c-0.4-1.3-2-3.9-1.1-5.3
			c0.4-0.6,0.9-0.7,1.6-0.6c0.8,0.2,0.9,0.8,1.6,1.1c3.6,2,3.3-7.5,3.1-9l-2.7-0.2c0,0.8,0.3,2.7-0.3,3.1c-0.5,0.3-2.1,0-2.7,0
			c1.2,1.2,1.8,2.2,0,3.2c-1.3,0.7-2.9-0.1-3-1.6c-0.1-1.6,2.4-1.9,2-3.5c-0.6-2.2-2.5,1.5-2.9,2.2c-0.5-1.9-0.2-3.6,1.1-5.1
			c1.5-1.8,3.2-1.9,5.3-1.3c0.2-0.9,0.7-1.5,0.9-2.3c0.3-1-0.2-0.7-0.6-1.6c-0.7-1.4,0.7-1.9,1-3c0.2-0.7-0.1-1.3-0.5-1.9
			c-0.4-0.7-1.1-1.1,0-1.5c0.8-0.3,1.8,0.5,2.6-0.2c0.8-0.8,0.5-2.4,1-3.3c0.7-1.4,1.4-0.5,2.5-0.1c0.8,0.3,1.1,0.3,1.2-0.6
			c0-0.5,0-0.9-0.4-1.2c-0.6-0.5-1.4-0.2-2-0.3c-0.9-0.2-0.9-0.8-1.3-1.6c1.5-0.1,1.6,0.4,3,0.9c1.1,0.5,2.3,0.4,3.4,0
			c-0.8-0.3-1.7-0.3-2.4-0.8C434.7,359.5,434.9,358.8,434.5,358 M530.2,306c1.5-2.8,2.9-5.7,4.3-8.6c0.8-1.8,2.6-4.2,0.5-5.6
			c-1.4-1-4.1-2.3-5.9-1.6c-1.5,0.6-2.4,4.3-4.5,1.9c-0.4,1.1-1.7,0.9-2.5,1.5c-0.6,0.4-0.5,0.9-0.9,1.5c-0.4,0.6-1,1-1.4,1.5
			c-0.4-0.8-0.8-1.5-1.4-2.1c-0.5,0.8-0.4,1.3-0.6,2.1c-0.2,0.5-0.3,0.8-0.8,1c-1.1,0.4-2.2-1-2.8-1.7c0.3,1.2,0.5,2.6-0.3,3.6
			c-0.6,0.8-1.7,1-2.3,1.8c-0.7,0.9-0.7,1.7-1.9,2.1c-0.2,0.1-1,0.3-1.3,0.3c-0.3,0-0.4-0.5-0.5-0.5c-0.4,0-1,0.5-1.3,0.6
			c0.7,0.9,0.5,1.3-0.4,1.9c-1,0.7-0.9,0.8-1.4,2c-0.2,0.5-0.5,1-1,1.3c-0.5,0.3-1.2,0-1.7,0.4c-0.9,0.6-0.8,2.3-1.5,3.1
			c-1,1.1-2.2,1.8-3.1,3c-0.9,1.2-1.6,2.5-2.3,3.9c-1.3,2.6-3.1,5-3.3,8c-0.1,1.2,0,2.8-0.5,4c-0.6,1.1-1.8,1.6-2.3,2.9
			c-0.4,1.1-0.6,2.5-0.8,3.7c-0.2,1.4,0.7,2.5,0.1,3.9c-0.6,1.3-0.7,2.3-0.8,3.7c-0.1,1.3-1.2,2.3-0.5,3.4c0.6,1.1,1.3,1.9,1.5,3.3
			c0.2,1.5,0,2-1.3,2.6c0.8,1.3,1.6,2.3,2,3.8c0.4,1.4,0.9,2.6,1.8,3.8c1.8,2.3,4,3.5,4,6.8l24.1-8.1c-3.1-0.6-1.5-6-1.3-8
			c0.4-3.7,0.8-7.4,1.3-11.1c0.5-3.2,1.4-6.3,1.9-9.4c0.3-1.6,0.5-3.3,0.9-4.9c0.4-1.4,1.2-2.7,1.5-4.1c0.7-3.1,1.2-6,2.5-9
			C527.2,311.5,528.8,308.7,530.2,306 M296.5,582.6c0.6-0.4,1.2-0.4,2-0.4c1.9-0.2,3.5-0.6,5.4-1.2c2.2-0.7,4.6-1,6.9-1.4
			c2.2-0.4,4.4-0.3,6.5-0.9c2.1-0.6,3.8-1.2,6.1-1.3c2.5-0.1,3.9-1.2,5.9,0.8c1.8-2.5,4.4-2.5,7.3-2.9c1-0.1,2.2,0,2.5-1.2
			c0.2-1.1-0.7-2.7-1.2-3.6c-2.6-4.9-4.9-10.1-8.4-14.5c-3.4-4.3-7.9-9.1-12.7-11.8c-2.6-1.5-5.7-2.3-8.5-3.4c-3-1.2-6-2.5-9-3.8
			c-1.6,1.7-1.7,3.7-2.5,5.8c-0.7,2-2,3.7-2.6,5.7c-1.3,4-2.5,7.9-4.1,11.8c-3.5,8.2-6.9,16.4-10.1,24.7c5-0.8,9.9-1.3,14.9-1.6
			C295.9,583.4,295.8,583.1,296.5,582.6 M561,276.2c1.4,0.2,3.1,0.5,4,1.8c3.9-5.6,8.5-10.6,13.4-15.4c4.7-4.7,9.5-9.3,14.7-13.4
			c10.4-8.4,22-15.2,33.9-21.2c-3.8-4.4-7.5-8.8-11.3-13.1c-3.6-4-7.7-7.4-11.9-10.8c-0.3,3.4-0.9,6.8-0.9,10.2
			c0,3.4,0.5,6.8,0.5,10.2c0,2.8,0,5.7-0.8,8.4c-0.5,2.1-1.8,5.1-4.1,5.8c-3.1,0.9-8.4-0.6-10.7-2.8c-2-1.9-3.1-4.7-4.7-6.9
			c-1.1-1.5-2.2-2.1-4.1-1.6c-2.7,0.9-5.4,2.5-8,3.8c-2.9,1.5-5.8,2.9-8.7,4.4c0.2,0.1,1.4,0.8,1.4,1c0,0.1-0.7,1.5-0.7,1.8
			c-0.1,1.1,0.4,2.1,0.8,3.2c0.3,1.1,0.6,2.2,0.6,3.3c0,1.2-0.7,2-1,3.2c-0.3,1.2,0.6,1.6,1.1,2.6c0.5,1,0.5,2.2,0.3,3.3
			c-0.2,0.9-0.7,1.8-0.7,2.7c0,0.5,0.4,1,0.3,1.5c-0.1,0.5-0.7,0.8-1.1,1.1c1.6,1,1.9,0.9,1.2,2.6c-0.4,1.2-0.3,2.4-0.1,3.7
			c0.1,0.7,0.8,2.5,0.3,3.2c-0.4,0.6-1.8,0.1-2.5,0.1c0.2,1.3,0.6,1.1,1.2,2.2c0.4,0.7,0.3,1.6,0.3,2.3
			C563.8,275.4,562.6,275.6,561,276.2 M329.6,484.6c2.1,0.6,4.1,1.1,6.3,1.2c1.9,0.1,3.9,0.2,5.6,1c0.6,0.3,1.4,1.1,2.1,1.1
			c0.8,0,0.6-0.6,1.2-1c0.6-0.4,1,0,1.5,0.2c0.8,0.2,1.7,0.2,2.5,0.2c2.4,0.1,4.7,0.1,7.1,0.2c2.1,0.1,4.2,0.4,6.3,0.4
			c2.2,0,4.5,0,6.7,0c-1.8-3.4-3.2-6.9-6-9.7c-1.4-1.4-2.6-2.9-3.9-4.4c-1.3-1.4-2.9-2.5-4.4-3.7c-1.5-1.3-2.8-2.7-4.6-3.7
			c-0.7-0.4-1.6-1-2.4-1.2c-0.7-0.2-1.3-0.1-1.9-0.5c-0.7-0.4-1.4-1.3-2.1-1.8c-0.7-0.5-1.5-1-2.3-1.4c-1.6-0.9-3.2-1.6-4.7-2.6
			c-4.7,8.6-8.9,17.5-12.8,26.5C325.7,484.2,327.5,484,329.6,484.6 M452.3,218.9c0.4,0.5,0.9,1,1.2,1.7c0.3,0.7,0.1,1.4,0.3,2.1
			c0.3,0.8,1.2,1.2,0.6,2.3c-0.4,0.7-1.4,0.9-1.6,1.7c-0.5,1.5,1.2,2.9,1.9,4.1c0.4,0.7,0.7,1.5,0.5,2.3c-0.1,0.5-0.5,0.9-0.7,1.3
			c-0.2,0.8,0,0,0.1,0.8c0.1,0.8,0.4,1.7,0.5,2.5c0.1,0.9-0.2,1.9-0.1,2.7c0.4,1.9,1.7,4.5,2.8,6.1c1,1.4,1.7,1.9,3.3,1.3
			c8.4-3.3,10.1-12.4,11.8-20.2c1-4.6,1.6-9.1,1.6-13.8c0.1-4.9,0.4-9.9,0.1-14.8c-1.4,0.4-3.1,0.5-4.1,1.7c-0.5,0.6-0.5,1.4-1,2
			c-0.7,0.8-2.1,1.5-3,2.1l-13.2,9.9l-1.8,1.4c-0.6,0.5-0.8,0.4-0.7,1.1C451.1,217.8,452,218.5,452.3,218.9 M511.3,246.3
			c-0.8,1-2.3,1.3-3.3,2.2c-0.9,0.9-1.5,2.1-1.9,3.3c-0.6,1.6-1.2,2.8-1.3,4.5c0,1.6-0.5,3.1-0.8,4.7c-0.2,1.1-0.1,1.4,1,1.7
			c1.5,0.4,3.3,0.4,4.8,0.2c7.3-0.8,13.1-6.4,17.6-11.7c5.1-6.1,9.2-12.9,13.5-19.5c-2.1-1.2-4.4-2.1-6.4-3.4
			c-1.9-1.3-3.6-2.9-5.4-4.2c-0.3,0.8-0.3,1.7-0.6,2.4c-0.4,0.9-0.9,1-1.6,1.5c-1.4,0.9-2.5,2.1-3.4,3.4c-0.8,1.2-1.2,2.8-2.2,3.9
			c-0.9,1-2.3,1.4-3.3,2.3c-1.5,1.2-2.8,3.4-4.1,4.9C513,243.7,512.2,245.1,511.3,246.3 M374.5,313.2c0.3,0.8,0.9,1.9,0.4,2.7
			c-0.8,1.5-1.6-0.7-2.3-1.1c0.2,1.3,0.3,2.6,0.7,3.8c0.2,0.8,0.5,1.7,0.4,2.6c-0.2,0.9-0.9,1.5-1,2.4c0,0.9,0.5,1.8,0.6,2.7
			c-1.5-0.2-1.8-0.4-2.7,0.7c0.4,0.1,1.3,0.2,1.6,0.4c0.4,0.3,0.2,0.2,0.3,0.8c0.1,0.9,0,2.3-0.1,3.2c0,1.1-0.6,0.9-1.1,1.6
			c-0.3,0.5-0.2,1.5-0.2,2.1c0.1,0.8,0.8,1.6,0.7,2.4c-0.1,1-1,1-1.5,1.7c-0.6,0.9-0.1,1.6,0.2,2.6c0.4,1.3,0.3,2.7,0.5,4
			c6.4-13,11.5-26.6,18.7-39.2c0.2-0.3,0.4-0.6,0.5-0.9c-0.2-0.1-0.4-0.3-0.6-0.4c-0.1-0.6-0.1-1.4-0.1-2.1c-0.1-1.5-0.5-3-0.7-4.5
			c-0.2-1.7,0.2-3.3,0-5c-0.1-0.6-0.2-1.1-0.2-1.7c0-0.9,0.5-1.5,0.5-2.3c0.1-0.8-0.4-1.9-0.4-2.7c0-0.7,0.1-1.3,0.2-2
			c0.3-1.8,0.8-3.5,1.1-5.3c0.5-3.6,0.6-7.3,1.2-11c-1,1.4-2.1,2.8-3,4.2c-1,1.4-1.6,3-2.4,4.5c-0.7,1.2-1.6,2.4-2.6,3.5
			c-0.8,0.9-0.8,0.9-0.5,2c0.1,0.5,0.3,1,0.2,1.6c-0.3,2.2-3.6,1.5-3.2,3.9c0.2,1.2,1.2,2.3,0.7,3.6c-0.4,1.2-1.8,1.8-2.3,2.9
			c-0.6,1.3,0.2,2.1,0.2,3.4c0,1.1-0.4,1.9-1.2,2.6c-1,1-1,1.7-1.2,3.1c-0.2,1.3-0.7,2.5-1.3,3.6c-0.6,1.1-1.4,1.4-1.1,2.7
			C373.6,311.4,374.1,312.3,374.5,313.2 M359.1,333c1.1,4.2,2.8,8.3,5.1,12c0.4-2.1,1-4.2,1.1-6.4c0.1-2.2,0.2-4.3,0.4-6.5
			c0.4-4,1.2-8.1,2-12c1.7-8.4,3.4-16.7,5.1-25.1c-2.6,4.2-5.2,8.3-7.8,12.5c-1.3,2-2.5,4.1-3.8,6.1c-1,1.7-2.9,3.8-3.2,5.7
			c-0.3,2.2-0.1,4.9,0,7.2C358.2,328.8,358.6,330.9,359.1,333 M396,283c0,0.6,0.4,1.2,0.6,1.8c0.1,0.7,0.1,1.4,0.1,2.1
			c0,1.7,0.1,3.4,0.2,5.1c3.5-4.8,5.3-10.4,8.4-15.4c1.3-2.1,2.8-4.2,3.8-6.6c1.1-2.6,2.1-5.1,3.3-7.6c0.7-1.4,1.4-2.7,2.1-4.1
			c0.3-0.7,0.7-1,0.3-1.6c-0.1-0.3-0.6-0.6-0.9-0.7c-0.9-0.2-1.4,0.9-2.1,1.2c-1,0.5-2.2,0.3-3.2,0.7c-2.3,0.8-4.6,2.2-6.9,3.2
			c-0.7,0.3-1.3,0.4-1.2,1.3c0.1,0.8,0.9,0.6,0,1.3c-0.4,0.4-1,0.2-1.5,0.1c0,1.7,0.3,2.7-0.5,4.2c-0.7,1.2-0.4,2.1-0.5,3.4
			c-0.1,1.5-0.7,3-1.2,4.3c-0.5,1.3-1.3,2.2-0.5,3.5c0.4,0.7,1.3,1.2,0.8,2.1C396.7,282.1,395.9,281.8,396,283 M386.1,505.4
			c-2.5-1.5-0.1-3,0-4.4V505.4z M382.3,497c-0.4,0-1.7,0.2-1.9,0.5c-0.1,0.2,0.1,1.8,0.1,2c0,1.2-0.1,2.5-0.1,3.7
			c0.1,1.3,0.7,2.4,0.8,3.6c0,1.1-0.7,1.7-1,2.8c-0.4,1.3,0.1,5,1.6,5.4c0-0.3,0.1-2.7,0.3-2.8c0.7-0.3,1.1,1.5,1.3,2
			c2-1.9,2.5-4.6,3.5-7.2c1.1-3,2.1-6,3.2-9c-1.3-0.1-2.6-0.2-3.9-0.4C384.8,497.4,383.5,496.9,382.3,497z M347.8,582.2
			c-1.1,0.5-0.8,1.8-0.8,3c0,1.6,0.6,2.9,2,3.8c0.5-1.4,2.4-4.4,1.8-5.9C350.5,582,348.8,581.8,347.8,582.2"/>
		<path class="st0" d="M561,249c0.7-0.7,1.9-1.1,2-2.2c0.1-1.1-0.9-2.8-1.2-3.8L561,249 M399.6,454.6c-1.9,0,0.2-3.9,0.5-4.8
			C400.7,450.7,402.1,454.6,399.6,454.6 M415.4,404.8c0.7-0.4,2.2-1,2.6-1.8c0.5-1-0.5-1-1.3-1c-1-0.1-2.3-0.1-3.3,0.1
			c-1,0.2-1.4,0.4-2.4-0.2c-0.5-0.3-1-1.2-1.6-1.3c-0.6-0.1-1.4,0.5-1.9,0.8c-1.9,0.9-4,0.3-6,0.4c-0.8,0-1.4,0.2-2.1-0.1
			c-0.9-0.4-1.1-1-2.2-0.9c-1.8,0.1-3.2,0.7-5.1,0.2c-1.2-0.3-2.7-1.5-4-1.1c-1.2,0.3-1.8,2.2-2.7,2.9c-0.3-1.6-0.5-3.3-1.7-4.5
			c-1.4-1.3-3.6-1.8-5.1-2.9c-3.6-2.5-6.1-6-8.8-9.3c-1.7,2.6-2.9,5-4.1,7.9c-1.1,2.8-2.2,5.6-3.3,8.4c-2.2,5.6-4.6,11.1-7,16.7
			c-4.9,11.2-10.4,22.1-15.3,33.3c3.3,0.1,6.5,1.7,9.4,3.3c0.7,0.4,0.8,0.6,1.3,1.2c0.2,0.3,0.5,1.1,1,1.2c0.2,0.1,1-0.4,1.4-0.3
			c0.6,0.1,1,0.5,1.4,0.8c2.8,2.2,5.5,4.5,8.2,6.9c1.2,1.1,2,2.1,2.9,3.5c0.9,1.5,1.9,2.5,3.3,3.7c2.2,1.8,3.5,5,5.1,7.4
			c0.9,1.4,1.8,2.8,2.5,4.3c0.6,1.4,0.8,3,2,4.1c2.4,2.3,6.1,1,9,1.3c1.1,0.1,1.4,0.5,2.4,0c0-0.4,0.2-0.5,0.5-0.4
			c0.3,0.1,0.6,0.2,0.9,0.5c0.8,0.4,1.5,0.9,2.2,1.4l1.3-3.1c-0.5,0-2.2,0.2-2.5-0.5c-0.2-0.6,0.7-0.8,1.1-1.1
			c0.4-0.4,0.6-1.8,1.4-1.7c0.6,0,0.6,0.6,0.6,1.1c1.4,0,1.4-1.2,1.6-2.2c0.2-0.7,0.4-1.4,0.6-2c0.1-0.5,0.9-2.3,0.7-2.7
			c-0.5-1-3.6-0.9-1.6-2.1c0.6-0.4,2.1-0.3,2.6-0.8c0.4-0.4,0.4-2.2,0.5-2.8c-0.9,0.1-2,0.6-2.6-0.2c-0.8-1.2,0.4-3,1-4
			c0.8,0.6,1.3,1.3,2.2,0.6c1-0.8,1.8-2.2,2.2-3.3c-1,0-0.9,0.2-1.4-0.6c-0.3-0.5-0.4-1.3-0.5-1.8c-0.3-1.1-0.9-1.9,0.4-2.2
			c0.8-0.2,1,0,1.2,0.8c0.3,1,0.2,2.7,0.3,3.8c1.3-1.6,2.5-3.3,2.1-5.4c-0.8,0.8-0.9,0.6-1.8,0c-1-0.6-1.9-1.3-2.9-1.9
			c1.2-1.1,3.1,0,4.3-0.9c0.8-0.6,0.4-2.5,0.5-3.3c0.1-1.1,0.5-2.1,0.5-3.2c-0.1-1.1-1.4-1.6-0.7-2.7c0.5-0.7,1.6-0.6,1.8-1.7
			c0.2-1.1-0.9-1.8-1.7-2.3c1.2-0.4,3.6-0.8,2.5-2.5c-0.5-0.8-1.2-0.8-1.2-2c0-0.8,0.5-1.7,0.9-2.4c0.5,1.1,1.1,3.5,2.6,3.5
			c1.2-0.1,2.3-1.1,1.9-2.2c-1.1-3.3-4.1-3.6-7-4.2c0.5-2,2-1.9,3.5-0.9c0.9,0.6,1.4,1.1,2.5,0.5c1.1-0.7,0.6-0.9,0.1-1.8
			c-1-1.9,0.4-3,1.8-4.1c0.8-0.6,1.2-1.4,1.9-2.1c0.7-0.7,1.9-0.9,2.7-1.3c-1.1-0.5-2-1.1-3.2-0.7c-0.8,0.3-1.4,0.8-2.3,0.3
			c-2-1,0.6-1.3,0.9-2.1c0.2-0.5-0.4-1.5-0.2-2.1c0.2-0.7,0.6-1.3,1-1.9c0.8-1.3,1.7-2.6,1.2-4.2c1,1.1,1.3,1.4,1.4,3
			c0.1,1.4,0.1,2.8,0.4,4.2c0.1-2.1,2-3.4,2.3-5.4c0.1-0.6-0.4-2.1,0.2-2.5c0.5-0.3,1.4,0.4,1.9,0.4c-0.3-1.9-0.4-3.9-1-5.7
			C418.3,406.7,416.7,406,415.4,404.8"/>
	</g>
	<g>
		<path d="M933.7,204.5c-2.5,0.5-4.9,1.3-7.5,1.8c-3,0.6-6,1.1-9,1.5c-2,0.3-3.9,0.8-5.2,2.4c-2.5,3.2-5,8.6-1.6,11.9
			c1.6,1.6,4.4,1.1,6.5,1.7c2.3,0.7,4.4,1.5,6.8,1.9c11.2,1.5,22.4,4.2,33.4,6.9c5,1.2,10,2.9,14.8,4.9c2.5,1,4.8,2.1,7,3.6
			c1.9,1.3,4,2.5,5.5,4.2c-6,1-12.7,1.1-18.8,0.1c-3-0.5-6-0.4-9.1-0.6c-3-0.2-6.1-0.4-9.1-0.7c-3-0.3-5.9-0.6-8.8-1
			c-1.1-0.2-2.2-0.3-3.3-0.2c-0.6,0.1-1,0.3-1.6,0.1c-0.5-0.1-1-0.5-1.5-0.7c-2.2-0.8-4.6-0.6-7-0.7c-1.7-0.1-3.6-0.6-5.4-0.2
			c-3.1,0.7-4.5,5-5.2,7.6c-0.4,1.7-0.1,3.7,0.5,5.4c0.6,1.9,1.8,1.9,3.3,2.7c2.2,1.2,4.1,2.6,6.4,3.5c2,0.8,4,1.5,5.9,2.4
			c4.3,1.9,8.9,3.5,13,5.9c2.2,1.3,4.3,2.6,6.6,3.7c2.1,1,4.1,2.2,5.9,3.5c3.9,2.7,7.2,6,10.1,9.7c-1.3,0-2.4,0.2-3.7-0.3
			c-1.6-0.5-3-1.4-4.6-1.9c-3-1-6-1.8-8.9-2.9c-3-1.1-6-2.2-9-3.1c-1.6-0.5-3.1-0.7-4.7-1c-1.4-0.3-2.6-0.9-3.9-1.5
			c-6.3-2.5-13.1-3.8-19.6-5.6c-6.4-1.8-12.6-3.6-19.1-4.9c-3-0.6-6-1.1-9.1-1.6c-3-0.4-5.6,0-8.5,0.8c-3,0.8-5.8,1.6-8.7,2.8
			c-2.1,0.9-5.1,1.7-6.8,3.3c-1,0.9-1.6,1.9-2.8,2.6c-0.9,0.5-2,0.9-3,1.3c-2.3,0.8-4.4,1.9-6.7,2.8c-1.4,0.5-2.9,1-4.4,1.1
			c-1.5,0.1-2,0.4-3.3,1.1c-2,1-4.3,1.5-6.4,2.1c-2.1,0.7-4.6,2.5-6.9,1.7c-2.3-0.8-3.7-3.7-5-5.5c-3.5-4.7-6.6-9.4-8.6-15.1
			c-2.1-6-4.1-11.9-6.1-17.9c-1.1-3.1-2.1-6.2-3.2-9.3c-0.6-1.7-1.8-3.6-0.5-5.2c1.6-1.8,2.1-4.7,3.7-6.8c1.6-2.1,3.4-3.9,5.1-5.9
			c1-1.1,2-2.3,2.9-3.6c0.7-1,1.3-2.3,2.1-3.2c0.7-0.9,1.8-1.4,2.6-2.1c0.9-0.9,1.7-1.9,2.5-2.8c2.1-2.4,4.1-5,6.3-7.3
			c1.8-1.9,4-3.6,5.9-5.5c4.1-4.1,8.5-7.9,12.8-11.8c4.2-3.8,8.4-7.5,12.4-11.4c3.8-3.7,8.4-6.6,12.6-9.7c4.7-3.4,9.1-6.9,14.2-9.7
			c4.8-2.7,9.6-3.5,15-4.3c-0.5,1-0.9,2.1-1.6,3.1c-1,1.4-2.4,2.6-3.6,3.9c-2.4,2.6-4.8,5.2-7.2,7.8c-4.7,5-9.6,9.8-14.2,15
			c-3.6,4.1-6.5,8.3-8,13.6c-0.8,2.8-1.2,5.8,0.5,8.4c1.3,2,3.4,1.8,5.6,1.6c5.6-0.5,11.1-2.4,16.6-3.4c6.1-1.1,12.4-1.4,18.5-2
			c3.1-0.3,6.2-1.2,9.3-1.4c1.4-0.1,2.8,0.2,4.2,0.1c1.4-0.1,2.8-0.5,4.2-0.7c2.9-0.5,5.5-0.8,8.4-0.4c2.9,0.4,5.7,0.1,8.6-0.2
			c6.1-0.5,12.4,0.2,18.5,0.8c5.8,0.6,11.6,1.3,17.3,2.7c-6,1.5-11.9,3.1-17.9,4.5c-6.1,1.4-12.4,2.4-18.4,4.2
			C939,203.8,936.4,204,933.7,204.5L933.7,204.5z M461.9,330.8c0.7-2.4,1.3-4.9,2.1-7.3c0.2-0.5,0.5-1,0.8-1.4
			c-0.6,0.9-1,1.9-1.3,3.1C462.9,327.1,462.4,329,461.9,330.8L461.9,330.8z M826.6,309.1c-2.4,1.5-4.7,2.5-6.6,4.6
			c-4.4,4.7-9.1,9.2-13.3,14.1c-1.7,2-2.6,4.4-4.5,6.2c-2.2,2.1-4.8,3.7-7.2,5.4c-5.4,3.8-10.8,7.9-16.5,11.2
			c-1.3,0.7-2.6,1.5-3.9,2.2c-0.9,0.4-2,0.7-2.7,1.3c-0.7,0.6-1,1.5-1.8,2c-0.6,0.4-1.3,0.8-1.9,1.2c-5,3.2-10.1,6.3-15.1,9.4
			c-5,3-9.9,6-14.8,9.2c-2.6,1.7-5,3.6-7.6,5.2c-2.1,1.4-4.3,2.6-6.4,4c-2.2,1.5-4.2,3-6.7,4.2c-2.3,1.1-4.7,2.1-7.1,3.2
			c-1.4,0.7-2.6,1.5-3.9,2.3c-0.8,0.5-1.6,0.4-2.5,0.8c-2.7,0.9-5.1,2.5-7.9,3.4c-11.4,3.5-22.5-1.5-32.4-6.9
			c-5-2.7-9.6-6.2-14.4-9.2c-2.1-1.3-4.7-2.3-6.7-3.9c-1-0.8-1.3-1.6-2.5-2.2c-1-0.6-2-1.1-2.9-1.8c-4.6-3.5-8.8-7.2-12.9-11.3
			c-2.2-2.2-4.4-4.5-6.6-6.8c-1.7-1.8-3-4-4.6-5.9c-3.8-4.6-7.4-9.3-11.1-14.1c-1.8-2.3-3.5-4.6-5.3-6.9c-1.2-1.5-3-3-3.4-5
			c-0.4-1.8,0.7-3.6,1.6-5.1c1.3-2.3,2.6-4.5,3.5-7c1.3-3.7,3.4-10.9-0.7-13.6c-1.5,2.5-3.4,4.7-5,7.1c-1.6,2.4-2.3,5.5-4.3,7.7
			c-2.1,2.3-4.8,3.9-7,6.1c-2.2,2.2-4.1,4.6-6.2,6.9c-2.2,2.4-4.5,4.6-6.8,6.9c-2.2,2.1-4.6,3.9-7.1,5.7c-2.5,1.9-5.2,3.6-7.9,5.2
			c-1.2,0.7-2.4,1.6-3.7,2c-1.4,0.5-2.6,0.8-3.9,1.5c-5.4,2.8-10.8,5.5-16.3,8.1c-1.5,0.7-3,1.7-4.6,2.1c-0.6,0.1-1,0-1.6,0.2
			c-0.7,0.2-1.4,0.6-2.1,0.9c-2.8,1.2-5.7,2.2-8.6,3.2c-6.1,2-12.2,3.9-18.2,6.1c-5.6,2.1-11.1,4.3-16.9,5.9
			c-5.7,1.6-11.7,1.9-17.6,2.4c-1.6,0.2-3.4,0-4.9,0.4c-1.4,0.4-2.1,0.7-3.6,0.6c-2.6-0.2-5.1,0.3-7.7,0.7c4-7.8,6-16.7,8.9-24.9
			c0.8-2.2,1.7-4.2,2.3-6.4c0.6-2,1.4-3.9,2.4-5.7c1.2-2.2,1.6-4.8,2.4-7.1c-0.6,1.9-1,3.8-1.6,5.7c0.8-1.6,1.7-3.1,2.5-4.7
			c0.8-1.7,0.8-2.6,0.8-4.4c2.1,0.2,2.2-1.9,2.5-3.5c0.5-2.4,1-4.7,1.5-7.1c0.3-0.5,0.2-1.4,0.3-2c0.2-0.7,0.4-1.4,0.7-2.1
			c1.9-5.3,3.9-10.4,5.2-15.8c1.5-6,2.8-12,4.1-18c0.7-3.2,1.6-6.4,2-9.7c0.1-1.6,0.9-6.6-1.3-7.3c-1.7-0.5-3.5,4.7-4,5.8
			c-1.1,2.8-2.1,5.6-3.1,8.4c-0.9,2.5-1.6,5-2.7,7.5c-1,2.5-1.4,5.1-2.3,7.6c-0.5,1.5-1.4,2.6-2,4c-0.4,1-0.6,2.2-1,3.2
			c-0.7,2.2-1.9,4.4-2.7,6.6c-1.1,2.8-2.4,5.5-3.5,8.3c-1.1,2.5-1.7,5.2-2.7,7.7c-1,2.4-2.5,4.6-3.4,7.1c-1.1,2.7-2,5.4-3.1,8.1
			c-2.2,5.6-4.3,11.1-6,16.9c-0.4,1.4-1.1,2.9-1.5,4.1c-0.3,1.2-0.9,2.1-1.3,3.2c-0.8,2.1-1.2,4.4-1.6,6.6l0.1-0.7
			c-0.9,0-1.8,0.2-2.4-0.5c-0.7-0.9-0.5-2.6-0.6-3.6c-1,0.1-0.6,0.6-0.5,1.5l0.2,1.4l0.4,3.5c0.3-0.2,1-1.3,1.3-1.3
			c0.4,0,0.9,1.1,1.1,1.7c-0.1,0.2-0.2,0.4-0.3,0.6c-0.3,0.5-0.5,0.9-0.7,1.5c-0.4,1.1-0.7,2.1-1.2,3.1c-0.3,0.5-0.6,1-0.9,1.4
			c-0.3,0.3-1.1,0.8-1.3,1.2c-0.4,0.8,0.2,2.9,0.1,3.9c-0.1,1.3-0.3,2.6-0.8,3.8c-0.2,0.5-0.7,0.8-0.9,1.2c-0.3,0.6-0.3,0.9-0.4,1.7
			c-0.2,2.7-1.3,5.3-2.2,7.8c-1.1,2.8-1.9,5.8-2.8,8.6c-0.9,2.7-2.1,5.3-3,8c-1.1,3.1-2.1,6.3-3.2,9.5c-0.8,2.4-2,4.5-2.8,6.8
			c-0.9,2.4-2.1,4.5-2.5,7c-0.5,2.7-1.9,5.5-3,8.1c-0.9,2.1-2.7,4.4-3,6.7c-0.2,1.1,0.1,2.1-0.3,3.1c-0.3,0.9-0.9,1.7-1.3,2.6
			c-0.5,1.2-0.1,2.3-0.5,3.6c-0.3,1.1-1.1,1.8-1.6,2.8c-1,1.6-0.7,3.5-1.8,5.2c-1.5,2.4-2,5.1-2.9,7.8c-0.4,1.3-0.7,2.7-1.1,4.1
			c-0.1,0.5-0.2,1.6-0.5,2.1c-0.4,0.6-1,0.4-1.3,0.7c-0.3,0.3-0.3,1.3-0.4,1.7c-0.4,1.3-0.9,2.5-1.4,3.7c-1.1,2.6-2.4,5.2-3.3,7.9
			c-1,2.8-2,5.6-3,8.4c-0.5,1.3-0.9,2.7-1.5,4c-0.5,1.3-1,1.7-1.9,2.7c-0.8,1-1.2,2.3-2,3.4c-0.7,1-1.2,1.7-1.6,2.9
			c-0.6,2.3-1.1,4.5-2,6.7c-2.4,5.5-5.4,10.7-7.8,16.2c-2.5,5.8-4.9,11.6-7.1,17.5c-2,5.5-3.4,11.3-5.4,16.8
			c-2.1,5.5-3.9,11-5.9,16.5c-2.1,5.7-4.2,11.3-6.1,17.1c-0.7,2.1-1.1,4.1-1.6,6.2c0.1-0.9,0.3-1.9,0.4-2.7c-2,3.4-3.9,7.1-3,11.1
			c0.6-0.8,1-1.7,1.3-2.6c-0.1,0.5-0.3,1-0.5,1.4c-0.6,1.2-1.1,2.1-1.5,3.5c-0.9,3-1.7,5.9-2.6,8.9c-0.4,1.4-0.8,2.9-1.3,4.3
			c-0.4,1.2-1.3,2.3-1.7,3.5c-0.4,1.4-0.3,3-0.6,4.4c-0.3,1.2-0.7,2.5-1.4,3.6c-0.5,0.9-1.2,1.6-1.6,2.5c-0.5,1.1-0.2,2.2-0.3,3.4
			c-0.2,1.5-0.7,2.9-0.9,4.3c-0.2,1.4,0.5,2.3,0.7,3.6c0.3,1.4-0.3,2.3-0.7,3.6c-0.4,1.1-0.6,2.3-0.8,3.4c-0.1,0.5-0.2,2-0.5,2.3
			c-0.2,0.2-1.7,0.3-2,0.3c-1.3,0.2-2.7,0.5-4.1,0.5c-2.9,0-5.8-0.4-8.7-0.7c-5.8-0.6-11.6-1.5-17.2-3.3c-5.3-1.7-10.6-4.2-15.5-6.8
			c-4.9-2.6-9.3-6.2-13.4-9.9c-2.2-2-4.4-4.2-6.5-6.3c-1-1-2-2.1-3.1-3.1c-0.8-0.8-1.9-1.6-2-2.8c-0.1-1.4,0.9-3,1.4-4.3
			c0.4-1.1,0.9-2.3,1.3-3.4c1.1-2.8,2.1-5.6,3.1-8.4c2.2-5.8,4.3-11.6,6.4-17.4c2.2-5.8,4.4-11.5,7-17.2c2.5-5.4,4.8-10.8,6.9-16.4
			c2-5.3,4.3-10.3,6.5-15.5c1.2-2.8,2.3-5.6,3.2-8.4c0.8-2.4,1.3-4.7,2.5-6.9c0.8-1.5,1.4-2.9,1.8-4.5c0.4-1.4,0.6-2.5,1.5-3.6
			c1.9-2.3,2.9-5,3.9-7.8c1.9-5.5,4-11,6.6-16.1c2.6-5.2,5.6-10.2,8-15.6c2.4-5.4,5.7-10.2,8-15.7c4.7-11.3,11.1-21.6,15.9-32.8
			c4.7-11.1,10.2-21.7,15-32.7c2.5-5.8,4.9-11.5,7.2-17.4c1.1-2.8,2.2-5.6,3.3-8.4c1-2.5,2.8-4.4,3.5-7c0.7-2.6,1.9-4.7,3.2-7.1
			c1.3-2.5,2-5.4,3-8c2.2-5.7,4.6-11.3,7-16.9c2.5-5.8,5.1-11.4,7.6-17.2c1-2.2,1.5-4.5,2.5-6.6c0.5-1.1,1.5-2,1.9-3
			c0.2-0.5,0.2-1.1,0.3-1.6c0.2-0.7,0.7-1.4,1-2c2.6-5.2,5.4-10.3,7.7-15.6c2.4-5.5,4.8-10.9,6.9-16.5c2.1-5.5,4.7-10.7,6.5-16.4
			c0.8-2.7,1.7-5.4,2.3-8.1c0.6-2.4,1.6-5.9,1.1-8.4c-0.3-1.5-2.1-4.6-3.9-3.2c-1.6,1.3-2.6,3.8-3.5,5.6c-1.3,2.7-2.8,5.4-3.9,8.2
			c-0.9,2.2-1.7,4.4-3,6.5c-3.1,5-5.5,10.2-8.3,15.4c-0.6,1.2-1.4,2.1-2.2,3.1c-0.8,1-0.6,1.4-0.9,2.7c-0.6,2.2-2.4,4-3.4,6.1
			c-1.2,2.8-2.3,5.4-3.9,8c-1.3,2.3-2.6,4.6-3.7,7c-2.5,5.5-4.9,11-7.4,16.5c-1.3,2.9-2.6,5.9-4,8.7c-0.6,1.3-1.2,2.5-1.9,3.8
			c-0.4,0.8-1.2,1.4-1.6,2.3c-0.4,0.9,0,1.7-0.3,2.6c-0.4,1-0.9,1.5-1.8,0.9c-2-1.4-2.4-4.3-3.5-6.3c-2.6-4.9-5-9.5-6-15
			c-0.5-3.1-0.3-6.2-0.3-9.3c0-2.8,1.7-4.6,3.1-6.9c3.4-5.3,6.7-10.7,10.2-16c1.5-2.3,2.8-4.8,4.4-7.1c1.5-2.2,3.5-3.9,5.1-5.9
			c0.9-1.2,1.6-2.4,2.6-3.5c0.8-0.9,1.6-1.9,2.3-3c1.3-2,2.2-4.2,3.6-6.1c3.3-4.6,6.7-9.1,10.2-13.6c1.9-2.4,4.1-3.8,6.4-5.7
			c2.3-1.8,4.3-4,6.3-6c4-3.9,7.8-8,12.2-11.5c4.6-3.5,9.3-6.8,14.1-10c2.4-1.5,5.3-2.7,7.2-4.8c0.8-0.9,1.6-1.7,2.6-2.3
			c1-0.6,2.1-0.7,3-1.3c2.7-1.5,5.1-3.9,7.6-5.8c2.4-1.9,4.8-3.7,7.3-5.6c1-0.8,2.9-1.7,3.7-2.7c0.4-0.6,0.4-1.3,0.8-1.9
			c1.1-1.3,3.2-1.5,4.7-2c2.9-1.1,5.8-1.7,8.8-2.3c2.7-0.5,5.2-1.7,7.8-2.6c5.6-2,11.4-3.1,17.3-3.7c-2.7,7.8-5.7,15.5-7.7,23.6
			c-0.8,3.2-1,7-2.3,10.1c-0.5,1.1-1.8,2.2-1.2,3.4c0.5,0.9,1.9,1.9,2.7,2.5c1.8,1.2,4.1-0.1,5.8-0.8c3-1.2,5.9-2.8,9.2-3.3
			c3.3-0.6,6.2-3.7,9.6-3.7c1.5,0,2.6,0.7,3.7,1.6c1.1,0.9,2.4,1.7,3.5,2.7c2.4,2.2,5.2,4,8.2,5.2c1,0.4,1.9,0.2,2.9,1
			c0.7,0.6,1.3,1.5,2.3,1.7c-4.6,4.9-9,9.8-12.9,15.3c-1.9,2.7-3.3,5.3-4.4,8.5c-0.5,1.5-0.9,2.6,0,4c0.5,0.8,1.4,1.4,2.3,1.3
			c2.4-0.4,4.5-3.6,5.8-5.3c1.5-2,3.2-3.9,4.8-5.9c3.3-4.1,6.2-8.4,10.3-11.8c1.2-1,2.5-2.1,3.8-3c1.1-0.7,1.8-0.2,3-0.4
			c3-0.5,5.7-2.1,8.3-3.4c2.9-1.5,5.8-2.9,8.7-4.3c1.5-0.7,3.8-2.3,5.6-1.6c2,0.8,3.1,4,4.2,5.7c1.1,1.6,2,3,3.7,3.9
			c2.8,1.5,8.4,3.3,10.8,0.4c3.5-4.1,3.2-10.8,2.9-15.9c-0.2-3.1-0.6-6.2-0.3-9.3c0.2-2.7,0.5-5.4,0.8-8.1c5,4.1,9.7,8.3,13.9,13.3
			c2.2,2.7,4.5,5.2,6.8,7.8c1.1,1.3,2.2,2.4,2.9,4c0.7,1.3,1.6,2.5,2.6,3.5c2.1,2.3,3.5,5.3,5.1,7.9c1.5,2.5,3.1,5.1,4.5,7.7
			c2.9,5,5.6,10,7.9,15.4c1.2,2.8,2.7,5.3,3.9,8.1c1.2,2.8,2.3,5.5,3.5,8.3c0.7,1.6,1.4,3.2,1.9,4.9c0.4,1.1,0,2.6,0.5,3.7
			c0.4,1,1.4,1.9,1.8,3c0.4,1.1,0.7,2.3,1.1,3.4c2.2,5.5,5.1,10.6,7.6,16c2.5,5.5,5,11.1,8.1,16.4c3.1,5.4,6.9,10.3,10.6,15.3
			c1.9,2.6,3.9,5.1,5.8,7.8c0.7,1,1.3,2,2.2,2.8c0.8,0.7,1.9,1,2.9,1.5c0.5-1.4,1.3-2.4,1-4c-0.2-1.4-0.7-2.7-1.1-4
			c-0.8-2.5-2.9-4.8-2.4-7.5c0.5-2.6,2.6-4.7,4.2-6.6c2.1-2.6,4.3-5.2,6.4-7.8c7.2-8.7,14.8-17,22.2-25.4c3.8-4.3,7.5-8.7,11.4-12.9
			c1.8-1.9,3.8-3.4,5.7-5.2c1.5-1.4,2.5-3.2,4-4.7c1.1-1.1,2.3-1.9,3.4-3l2.7-2.7c2-2,3.9-4,5.8-6c3.9-4,7.5-8.3,11.3-12.4
			c7.4-7.9,15.1-15.4,22.8-23c2.2,6.6,4.1,13.4,5.6,20.1c0.4,1.7,0.6,3.4,1.1,5c0.6,1.6,1.3,3.1,1.9,4.6c1.3,3.5,2.4,7.1,4.1,10.4
			c3.2,6.3,6,13.5,10.6,18.9c2.3,2.7,5.4,5,8.1,7.3l8.6,7.5C831.9,305.4,829.3,307.4,826.6,309.1L826.6,309.1z M588.8,350.7
			c-0.2-0.6-0.5-0.9-0.7-1c0.2,0.1,0.4,0.3,0.6,0.7c0.5,1,0.8,2,1.1,3.1C589.5,352.5,589.2,351.6,588.8,350.7z M519.4,400.4
			c2,2.2,4.1,4.3,6.1,6.5c1.9,2,3.3,4.2,5,6.4c3.6,4.7,7.3,9.3,11.2,13.7c3.7,4.3,7.8,8.3,11.4,12.7c3.6,4.4,6.3,9.2,9,14.2
			c1.2,2.3,2.7,4.5,4.3,6.6c0.8,0.9,1.8,1.8,2.3,2.9c0.5,1.3,0.7,2.8,1,4.1c2.8,11.9,5.6,23.8,8.3,35.7c1.3,5.8,2.2,11.6,3.4,17.4
			c1.3,5.9,3.2,11.5,4.4,17.4c2.4,11.9,4.1,24,6.7,35.8c2.6,11.5,7,22.5,9.4,34.1c0.3,1.6,0.8,3.1,0.5,4.8c-0.3,1.4-0.6,2.6-0.6,4
			c0,2.4-0.3,4.4-1.7,6.5c-2.8,4.1-6.7,7.7-11.2,9.7c-2.4,1.1-4.7,2.6-7.3,3.2c-1.3,0.3-2.5,0.1-3.7,0.3c-1.3,0.2-2.3,1.1-3.5,1.5
			c-4.7,1.9-10.6,1.3-15.5,1.3c-5.4,0-10.9-0.4-15.9-2.6c-0.4-0.2-0.8-0.4-1.2-0.6c-0.7-0.1-0.8-0.4-0.4-0.9c0-0.6,0.3-1.2,0.3-1.8
			c0.1-1.2-0.3-2.4-0.6-3.6c-0.7-2.8-1.4-5.6-2.1-8.5c-2.7-11.8-3.9-23.7-5.6-35.6c-0.8-6.1-2.1-12.2-3.1-18.4
			c-1-5.9-1.6-11.8-2.4-17.7c-0.8-5.9-1.6-11.8-2.4-17.6c-0.4-3.2-1.4-6.4-1.8-9.6c-0.3-2.4,0.3-4.7-0.2-7.2
			c-1.3-5.7-1.3-11.7-2.8-17.4c-1.5-5.9-3.7-11.6-5.7-17.3c-1-3-2.1-5.9-3.1-8.9c-0.6-1.7-1.3-3.6-3.1-4.5c-1-0.5-2-0.4-2.9-1.1
			c-1.1-0.8-2-2-3-3c-2.1-2.1-4.2-4.2-6.3-6.4c-8.2-8.2-16.2-16.8-25.2-24.1c-4.2-3.4-8.1-7.2-12.8-9.9c-5-3-9.9-6-14.9-9
			c-2.5-1.4-5-2.7-7.7-3.8c-2.4-0.9-0.9-3.2-0.2-5c1-2.8,2-5.7,2.8-8.5c0.7-2.2,1-5,3.2-6.2c1.5-0.8,2.1,0.1,3.5,0.6
			c1,0.3,2,0.4,3.1,0.3c2.3-0.1,5-1.1,7.3-0.8c1.5,0.2,2.3,0.3,3.9,0c1.4-0.2,2.8-0.3,4.2-0.4c2.6-0.2,5.2-0.2,7.8-0.7
			c5.6-1,11.3-2.3,16.6-4.2c5.7-2,11.2-4.8,16.7-7.4c0.4,2.5,0.7,5.1,1.7,7.5c0.7,1.9,2,4.5,3.8,5.5
			C514.4,393.2,516.5,397,519.4,400.4L519.4,400.4z M603.4,641.8c1.7-0.9,2.1,0.4,3.1,1.8c2.8,3.9,5.7,7.8,8.5,11.7
			c2.8,3.8,5.6,7.6,8.3,11.3c2.6,3.5,5.5,6.9,7.9,10.6c2.5,3.8,4.4,8,6.3,12c1.6,3.5,3.9,7.1,2.2,11c-1.6,3.6-6,5.1-9.3,6.8
			c-4.1,2.2-7.3,3.7-12,2.1c-8.8-3.1-17.4-7.2-25.8-11.4c-7.7-3.8-13.4-9.5-19.8-15.1c-3.3-2.9-6.8-5.6-9.9-8.8
			c-3.2-3.3-6.3-6.8-9.6-10c-5.1-5.1-10.4-9.6-9.5-17.5c4.8,1.6,9.6,3.7,14.6,4.6c5.3,1,10.7,1.7,16.1,1.4c2.3-0.1,4.5-0.8,6.7-1.2
			c2.2-0.4,4.5,0,6.6-1.1c1.8-1,3-2.1,5.1-2.6c2.1-0.5,4-1.2,5.8-2.5C600.4,643.9,601.8,642.7,603.4,641.8L603.4,641.8z
			 M450.6,431.9c0,0,0.1,0,0.1,0.1C450.7,432,450.7,431.9,450.6,431.9z M445,428.7c0.1,0,0.1,0.1,0.2,0.1
			C445.1,428.8,445,428.8,445,428.7z M341.2,708.1c2.3,4.1,4.5,8.2,6.7,12.3c1.1,2.1,2.1,4.2,3.1,6.2c0.9,1.9,1.8,3.4,1.9,5.6
			c-4.5-0.5-9.1-3.2-13-5.6c-4-2.5-7.5-5.6-10.9-8.8c-3.3-3.2-6.8-6.3-10.3-9.2c-1.7-1.3-3.4-2.5-5.2-3.6c-0.6-0.3-1.1-0.7-1.6-1.1
			c-0.6-0.6-0.8-1.6-1.4-2c-1.4-0.9-3.5,0.4-4.8,1c-1.6,0.8-3.2,1.8-4.6,3c-1.6,1.4-2.6,3.2-4,4.7c-1.3,1.5-2.6,2.9-3.7,4.5
			c-2.6,3.6-5.4,7.4-8.7,10.3c-1.5,1.3-3.4,2.4-4.7,3.9c-1.2,1.4-2.6,2.8-4,4c-3.3,2.7-6.1,5.4-8.9,8.5c-3.1,3.5-6.6,6.6-9.9,9.9
			c-0.5-2.1,0.4-3.8,1.3-5.6c1.1-2.1,1.8-4.3,2.7-6.5c1.9-4.7,4.1-9.3,6.4-13.7c2.2-4.2,4.5-8.3,6.6-12.5c1.8-3.5,4.5-7.8,3.7-11.9
			c-0.3-1.6-1.2-4-2.9-4.5c-1.7-0.5-3.4,1-4.8,1.8c-4,2.4-8.2,4.3-12.5,6.1c-4.3,1.8-8.7,3.5-12.8,5.7c-4,2.1-7.8,4.6-11.9,6.7
			c-2,1-4.1,1.8-6.1,2.9c-1.9,1-3.7,2.2-5.6,3.2c-3.7,2.1-7.6,3.5-11.9,4.1c3-3.9,7-6.8,10.9-9.8c4.5-3.5,9-7,13.6-10.3
			c4.2-3,8.4-5.8,12.5-8.9c1.9-1.4,3.8-2.9,5.6-4.5c1.5-1.3,3.2-2.6,3.6-4.7c0.3-1.9-0.5-4.1-2.1-5.2c-1.6-1.1-3.6-0.8-5.4-0.6
			c-5,0.7-10,2.3-14.9,3.7c-1.1,0.3-2.3,0.9-3.4,1.1c-1.1,0.3-2.5,0.2-3.6,0.2c-2.2,0.1-4.4,0.2-6.5,0.5c-2.3,0.3-4.6,0.2-6.8,0.6
			c-2,0.3-3.5,1.4-5.6,1.4c-9.3-0.2-17.9,4.9-27.1,4.9c5.5-3.2,11-6.4,16.5-9.6c2.5-1.5,5.2-2.7,7.6-4.3c2.7-1.8,5.2-3.8,8-5.4
			c10-5.9,21.1-10.2,30.2-17.5c2.2-1.8,4.3-3.7,6.4-5.5c0.5-0.4,1.1-1.2,1.7-1.5c0.9-0.4,0.6-0.5,1.4,0.3c0.9,0.9,1.5,2,2.2,3
			c2.9,4.1,6.5,7.6,10.5,10.6c4.7,3.4,10.1,5.5,15.3,7.9c5.3,2.4,10.5,5,16,6.9c5.6,1.8,11.5,2.8,17.3,3.5c6.2,0.7,11.9,0.3,18-0.4
			c0.4,4.6,0.8,8.5,3,12.7C336.5,700.6,339.1,704.2,341.2,708.1L341.2,708.1z M364.4,357.6c0.5,0.1,1,0.1,1.5,0.3
			c-0.4-0.1-0.8-0.1-1.1-0.2C364.6,357.7,364.5,357.7,364.4,357.6L364.4,357.6z M366.1,360.3c0.2-0.4,0.4-0.9,0.5-1.4
			C366.5,359.3,366.3,359.8,366.1,360.3L366.1,360.3z M313.4,438.1c-6.9,4.1-13,9.2-19.7,13.6c-3.3,2.2-6.8,4.2-10.3,6
			c-1.7,0.9-3.4,1.7-5.2,2.4c-1.5,0.6-3,1.6-4.6,2.1c-1.7,0.5-3.5,0.2-5.2,0c-1.5-0.2-3-0.1-4.2-1.1c-2.2-1.8-3.7-5.4-5-7.9
			c-1.9-3.5-4.1-7.2-5.5-10.9c-1.3-3.5-3-6.7-3.6-10.4c1.2-2,1.1-4,0.1-6c-0.5-0.9-1-1.8-1.6-2.6c-0.6-1-0.6-1.2-1.7-1.2l3.2,9.8
			c-1-3.2-2.4-6.5-3.2-9.8c-0.6-2.9-0.9-5.7-1.9-8.5c-0.5-1.4-1.4-2.8-1.8-4.2c-0.3-1.2-0.3-2.5-0.5-3.7c-0.4-3.4-1.3-6.8-1.9-10.2
			c-1-6.5-1.7-13.1-2.9-19.6c-1.3-6.7-2.9-13.3-4.4-19.9c-0.6-2.5-1.5-4.7,0.9-6.4c2.4-1.7,5-3,7.5-4.5c2.4-1.4,4.7-2.7,7.3-3.8
			c2.1-0.9,4.2-1.8,6.2-3c1.2-0.8,2.5-0.8,3.8-1.2c1.4-0.5,2.8-1,4.2-1.5c2.6-0.9,5.1-1.8,7.7-2.7c1.4-0.5,4.3-2.3,5.6-0.9
			c0.7,0.7,0.8,2.2,1,3.1c0.3,1.5,0.6,3,0.9,4.5c1.1,5.8,2.2,11.6,3.1,17.4c0.9,5.7,1.4,11.5,2.3,17.2c0.2,1.4,0.9,3.1,0.8,4.5
			c-0.1,1-0.8,1.6-1.5,2.3c-1.8,1.7-3.5,3.5-5.1,5.4c-1.8,2.1-3.5,4.3-5.4,6.2c-1.9,1.9-3.5,3.6-4.8,6c-1.1,2-2.6,3.8-2.1,6.2
			c0.4,1.8,0.9,3.7,3.1,2.9c2.5-0.9,4.7-3.3,6.7-5c1.9-1.7,3.8-3.4,5.8-5c2.2-1.8,4.6-3.3,6.7-5.2c1.8-1.6,3.4-3.5,5.1-5.3
			c4.2-4.2,8.6-7.9,13-11.7c2-1.8,3.7-4,5.5-5.9c1.8-1.9,3.8-3.7,5.7-5.6c4.1-4,8.5-8,12.3-12.3c1.9-2,3.8-4,5.7-6
			c0.8-0.8,1.3-1.9,2.1-2.7c0.7-0.8,1.8-1.3,2.6-2c3.5-3.2,5.4-7.6,8.8-10.8c0.9,2,1.6,4,2.2,6.1c0.6,1.9,1.1,4.2,2.2,5.9
			c0.5,0.8,1.4,1.4,1.8,2.2c0.4,0.8,0.3,1.7,0.6,2.6c0.6,1.6,1.7,3.3,2.6,4.8c1,1.6,2.3,3.1,3.6,4.5c0.3,0.4,0.7,0.7,1,1
			c-0.2-0.1-0.3-0.2-0.5-0.2c1,1.8,2,2.6,3.6,3.7l-0.1,0.3c-0.9,1.9-1.8,3.6-2.5,5.6c-1.2,3.4-2.9,6.6-4,10
			c-0.6,1.8-0.8,3.7-1.7,5.5c-0.8,1.5-1.8,2.9-2.5,4.5c-1.8,3.6-2.9,7.6-4.3,11.3c-1.4,3.9-3.1,7.6-4.8,11.4
			c-1.7,3.7-3.4,7.5-4.9,11.3c-0.7,1.7-1.2,3.6-2.3,5.1c-1.2,1.6-2.9,2.1-4.7,2.7C326.9,430.4,319.9,434.2,313.4,438.1L313.4,438.1z
			 M227.6,328.1c-4.1-3.4-9.7-2.5-14.7-2.5c-5.8,0-11.5,1.1-17.3,1.5c-5.8,0.4-11.6,0.7-17.3,0.5c-5.2-0.1-10.3-0.6-15.3-1.6
			c-2.5-0.5-4.9-0.8-7.5-1c-1.6-0.1-3.1-0.6-3.9-2.1c-1.1-2-0.8-5-0.9-7.1c-0.1-2.1-0.4-4.8,0.5-6.8c0.8-2,2.7-2.9,4.6-3.7
			c2.3-0.9,4.6-1.8,7-2.7c9.4-3.6,19.1-7.7,29.2-8.6c2.8-0.2,5.6-0.3,8.5-0.4c2.4-0.1,4.7-0.7,7.1-0.9c5-0.5,9.9-0.6,14.8-1.7
			c1.4-0.3,2.2,0.4,3.6,0.7c1.1,0.2,2.2,0.1,3.2,0.1c2.2-0.2,4.4-0.4,6.6-0.2c2.6,0.2,5.3,0.4,7.9,0.8c2.3,0.4,4.6,1,7,1.3
			c2.6,0.3,5.1,0.4,7.6,1c1.3,0.3,3.2,0.6,4,1.8c1,1.6,0.2,4.7,0.1,6.5c-0.1,2.5-0.3,5-0.3,7.5c0,2.7,0.4,5.4,1,8.1
			c0.4,1.9,1.2,4.2,0.8,6.2c-0.2,1.1-1,1.6-2.2,1.4c-0.8-0.1-1.4-0.9-2.2-1c-1.4-0.2,0,0.9-0.8,1.8c-0.6,0.7-1.7,0.5-2.6,0.8
			c-0.9,0.3-1.8,0.7-2.7,1.1c-2,0.9-4,1.5-6,2.4c-4.3,2.1-8.5,4.7-12.6,7.2c-0.7-2.1-1.2-5.2-2.6-6.9
			C230.9,330.1,229,329.3,227.6,328.1L227.6,328.1z M512.1,198c0.9-2.6,2.2-5.2,2.9-7.9c0.3-1,0.3-2.3,1.3-2.9
			c0.8-0.4,2.3-0.2,3.1-0.2c1.6,0,3.2,0,4.7,0c0.8,0,1.9-0.2,2.4,0.6c0.5,0.9-0.3,2.4-0.3,3.4c0,1.4,0.3,2.9,0.7,4.2
			c1.6,5.9,3.2,11.7,5,17.6c-1.8-0.8-3.2-2.7-5.2-2.9c-1.3-0.1-2.3,0.6-3.5,0.8c-1,0.2-2,0.2-3,0.5c-4.5,1.1-8.7,3.4-13.3,4.2
			c0.2-1.7,0.3-3.2,0.8-4.9c0.5-1.4,1-2.8,1.4-4.2C510.1,203.6,511.1,200.8,512.1,198L512.1,198z M527.1,158.4
			c2.2-1,4.4-3.8,2.3-6.1c-1.1-1.2-3.9-0.6-5.3-0.3c-2,0.4-9.8,5.5-10.7,2c-0.6-2.3,0.5-5.7,1.5-7.7c0.7-1.3,1.5-2.5,2.6-3.4
			c1.1-1,1.6-0.7,3-0.6c2.3,0.3,4.4-0.4,5.9,1.8c0.3,0.4,0.3,1,1,1.1c0.5,0.1,0.8-0.5,1.2-0.5c0.8,0,0.9,0.5,1.2,1.1
			c0.8,1.6,1.9,4.6,4.3,3.3c2.4-1.3,2.5-5.4,2.5-7.7c0-3.5,0.2-7,0.4-10.4c0.1-2.8,0.4-5.3,2.4-7.3c1.9-2,3.4-4.7,5.7-6.2
			c2.6-1.7,6-1.5,8.9-1.7c3.4-0.3,7-0.6,10.4-0.3c3.5,0.4,6.9,0.5,10.4,0.4c3.5-0.2,6.9-0.4,10.4-0.5c3.3-0.1,6.7,0.2,10-0.2
			c1.3-0.1,3.1-0.6,4,0.7c1,1.5,0.9,4.2,1.2,5.9c-3.6-0.7-9.4-2.3-10.8,2.7c-0.4,1.5,0.9,2.9,2,3.8c1.7,1.3,4,1.3,6,1.5
			c1.1,0.2,2.9,0.1,3.6,1.2c0.6,1.1,0.3,3.1,0.4,4.3c0.3,4.9,1,9.8,1.5,14.7c0.5,4.7,0.9,9.5,0.2,14.2c-0.4,2.4-1.3,4.7-1.5,7.1
			c-0.1,1.5,0.1,3.2-1.2,4.2c-1.6,1.1-4.3,1.2-6.2,1.6c-2.5,0.5-4.9,1.2-7.3,1.9c-3.8,1.1-8.5,1.7-9.9,6c-1.5,4.6-2.6,9.3-4,13.9
			c-0.7,2.3-1.7,4.4-2.8,6.7c-0.4,0.9-1,1.8-0.9,2.8c0.1,1,0.8,2,1.2,3c0.9-0.5,1.8-0.7,2.5-1.4c0.8-0.7,1.4-1.7,2-2.5
			c1.3-1.7,2.2-3.2,4.1-4.4c0.1,0.9,0.3,1.7-0.2,2.5c-0.3,0.6-1,1.1-1.4,1.6c-1.2,1.4-2.3,2.9-3.5,4.3c-2.5,2.7-5.5,4.9-8.1,7.6
			c-2.6,2.6-5,5.7-8.2,7.7c-3,1.9-6.3,3.5-9.5,5.2c2.8-6.3,0.9-12.7-2.5-18.4c-1.5-2.6-3.4-5.1-5.2-7.6c-1.4-2-4-4.7-4-7.2
			c0-1.4,1-2.5,1.6-3.7c0.7-1.2,1.3-2.6,1.9-3.9c1.2-2.7,2.8-5.5,3.3-8.4c0.4-2.6-0.2-6.1-1.9-8.2c-0.7-0.8-1.7-0.7-2.6-1.3
			c-0.9-0.6-1.6-1.4-2.3-2.1c-0.8-0.8-1.9-1.4-2.7-2.2c-0.9-0.9-1.5-2-2.1-3C530.2,163.3,528.6,160.9,527.1,158.4L527.1,158.4z
			 M536.7,102.7c2.6,0,4,1.5,5.2,3.6c-0.8,1.3-3,5.2-4.8,3.6c-0.3-0.3-0.5-0.9-0.9-1.2c-0.4-0.3-0.9-0.5-1.3-0.7
			c-1-0.4-2.1-0.9-2.8-1.8C530.6,104,535.1,102.7,536.7,102.7L536.7,102.7z M587.9,200.9c0.5-0.1,1.9,0.8,2.4,1
			c0.8,0.4,1.9,0.7,2.7,1.3c0.8,0.6,1,1.4,1.5,2.2c0.2,5.7,0.5,11.4,0.5,17.2l-0.5-17.2c-0.3,1.6-0.9,3-0.9,4.6c0,1.6,0.2,3.3,0.4,5
			c0.3,3.1,0.6,6.2,1,9.3c0,1.8-0.1,3.6-0.3,5.4c-2.3-3.2-4.5-6.4-6.8-9.5c-2-2.8-4.7-3-7.9-3.2l6.3-12.7
			C586.5,203.7,587.4,201,587.9,200.9L587.9,200.9z M959.3,210.6c3.4-0.9,6.9-2.2,10.4-2.7c3.3-0.4,6.3-1.9,9.4-2.8
			c2.8-0.8,5.7-1.5,8.4-2.5c2.1-0.7,4.4-1.5,6-3c1.7-1.6,2.6-4.1,2.3-6.5c-0.4-2.7-2.4-3.1-4.7-3.9c-11.8-4-23.7-6.4-36-8
			c-6.3-0.8-12.7-1.8-19.1-1.7c-3.3,0.1-6.6,0.3-9.9,0c-3-0.2-6,0.9-9,0.3c-3-0.6-5.8,0.2-8.9,0.6c-3.2,0.4-6.5,0.6-9.7,0.7
			c-3,0.1-6.1,0-9,0.8c-2.8,0.8-5,1.3-7.9,0.4c3-3.3,6-6.6,9-9.9c6.2-6.8,12.6-14.1,16.3-22.6c1.6-3.6,2.4-8.9-0.3-12.3
			c-2.4-3-7.6-2.4-10.9-1.9c-4.3,0.6-8.3,2.1-12,4.4c-3.5,2.2-7.4,3.9-10.6,6.5c-3.2,2.6-6.8,4.3-10,6.8c-3.3,2.6-6.6,5.1-9.9,7.6
			c-7.2,5.5-13.2,12.4-20,18.4c-3.6,3.1-7,6.5-10.2,10.1c-1.5,1.7-3.1,3.3-4.4,5.2c-1.1,1.6-2,3.2-3.2,4.7c-1.4,1.8-3.1,3.3-4.6,5.1
			c-1.3,1.6-2.6,3.3-3.8,5.1c-1.3,1.8-2.5,3.7-3.7,5.5c-0.7,1-1.3,2.6-2.6,2.4c-1.8-0.2-2.9-1.8-4.9-0.7c-0.7,0.4-1.1,1-1.7,1.5
			c-0.8,0.7-1.7,1-2.6,1.5c-1.9,0.9-3.5,2.4-5.2,3.6c-1.8,1.3-3.6,2.4-5.3,3.9c-7,6.3-13.4,13.1-20.1,19.6c-1.6,1.6-3.3,3.1-4.9,4.7
			c-1.3,1.3-2.2,2.8-3.5,4.1c-0.7,0.7-1.6,1-2.4,1.7c-0.7,0.6-1.3,1.5-1.9,2.3c-1.5,1.7-2.9,3.4-4.4,5.1c-3,3.2-6.2,6.1-9.1,9.5
			c-2.9,3.4-6.2,6.6-9.2,10c-6.3,7.2-12.1,14.5-17.9,22c-2.9,3.8-6.1,7.2-8.8,11.1c-2.6,3.7-4.8,7.6-6.7,11.6
			c-0.6,1.1-1.3,4.5-3.3,3.3c-0.7-0.4-1.2-1.7-1.7-2.4c-0.6-1-1.2-1.9-1.8-2.9c-2.6-4.2-5.4-8.3-7.5-12.8c-4-8.6-8-17.1-11.3-26
			c-1.7-4.5-3.6-8.9-5.4-13.3c-1.9-4.4-3.3-8.9-5.1-13.3c-3.6-8.7-8.4-17-13.2-25.1c-4.4-7.5-9-15.2-15.1-21.4
			c-3.2-3.3-5.7-7.1-9.1-10.2c-1.7-1.6-3.5-3.1-5.2-4.7c-1.2-1.2-2.3-2.9-3.8-3.6c-1.1-0.5-2.2-0.4-3.4-0.4c-0.9,0-1.9-0.2-2.8-0.2
			c-0.8,0.1-1.1,0.8-1.9,0.9c-0.8,0.2-1.3-0.2-1.9-0.6c-3.9-2.7-9.2-3.8-13.6-5.4c2.8-1.7,6.2-1.8,9.3-2.5c2.6-0.6,5.1-1.7,7.3-3.3
			c4.8-3.6,5.6-9.3,6.4-14.9c1-6.4,1.8-13.2,0.9-19.7c-0.8-6.3-1.7-12.7-2.7-19c-0.5-3.1-1-6.1-2-9c-0.7-2.4-1.7-4.9-1.6-7.5
			c0-1.3,0.1-3.2,1-4.1c0.7-0.7,1.7-1,2.5-1.7c1.8-1.6,3.2-3.4,4.3-5.5c0.9-1.7,2.3-4.2,1.5-6.1c-0.9-2.1-3.8-2.5-5.8-3
			c-5.8-1.5-11.7-1.3-17.6-2.1c-2.8-0.4-5.8-1.2-8.7-1.2c-2.8,0-5.6,0.1-8.4,0c-6.1-0.1-12.3-0.3-18.4,0.4c-1.6,0.2-3.2,0.3-4.8,0.4
			c-1.3,0.1-2.2,0.7-3.5,0.9c-0.7,0.1-1.8-0.3-2.5-0.3c-1.2-0.1-2.5,0-3.7,0.2c-2.6,0.5-4.6,2.1-7.2,2.7c-2,0.4-3.5,1.5-4.6,3.3
			c-2.6,4.5-2.7,10.7-3,15.7c-0.3,6,0.2,11.9-0.1,17.9c-0.1,1.4-0.2,2-1.8,1.9c-2.1-0.2-4-0.8-6.2-0.2c-4.1,1.1-6.7,4.8-8.3,8.5
			c-1.7,3.9-2.6,8.3-2.3,12.5c0.2,3.7,1.6,8.6,5.7,9.6c2.2,0.6,4.4-0.3,6.5-1c2-0.6,3.7-2.4,4.8,0.1c2.2,5,4.3,9.5,7.8,13.9
			c-3.2-0.2-6.5-0.5-9.7-0.7c-2.1-0.1-5.1-0.7-7.2,0.1c-1.2,0.5-1.2,1.3-2.1,2.1c-0.9,0.8-2.8,0.5-3.9,0.4
			c-3.5-0.1-6.7-0.7-10.2-0.4c-2.6,0.3-4.9,1.6-7.5,2c-3.1,0.6-6.3,1.8-9.2,3c-2.8,1.1-5.5,2.3-8.4,3.2c-2.9,0.9-5.8,1.9-8.6,3.1
			c-5,2.3-9.2,6-13.6,9.1c-1.2,0.8-2.4,1.5-3.5,2.5c-0.9,0.8-1.5,1.8-2.3,2.6c-1.4,1.3-3,1.2-4.5,1.9c-1.5,0.7-3,2.1-4.4,3
			c-1.3,0.9-2.5,1.7-3.8,2.6c-2.4,1.6-4.7,3.6-7.3,4.9c-4.8,2.4-8.5,6.2-12.4,9.9c-4.2,3.9-8.8,7.4-12.9,11.4
			c-4,4.1-7.7,8.4-11,13.1c-3.4,4.9-6.2,10.2-9.4,15.2c-1.5,2.3-3.3,4.2-5,6.3c-0.9,1.1-1.7,2.2-2.4,3.3c-0.7,1-1.1,2.3-2.1,3.1
			c-1.9,1.5-3.9,2.4-5.5,4.4c-1.8,2.2-3.3,4.7-4.8,7.1c-3,4.8-5.8,9.8-8.4,14.9c-0.8,1.5-0.8,2.6-0.9,4.2c-0.1,1.3-0.5,2.5-0.7,3.7
			c-0.4,2-0.1,4.1-0.7,6.1c-0.3,1.3-1.2,1.5-2.2,2.2c-1,0.7-1.9,1.5-2.8,2.4c-1.8,1.7-3.5,3.4-5.5,4.9c-2,1.6-4,3.1-5.8,4.9
			c-1.8,1.9-3.4,3.8-5.4,5.4c-4.4,3.5-8.5,7.5-12.8,11.1c-4.5,3.8-8.5,8-12.6,12.1c-4.2,4.3-8.7,8.4-13.2,12.5
			c-0.3-4.9-0.6-9.8-1-14.7c-0.4-5.3-1.6-10.4-2.7-15.6c-0.9-4.6-1.6-9.6-3.1-14c-1.1-3.1-3.2-5.6-6.4-6.3c-1.6-0.4-4.1,0.4-4.9-1.4
			c-0.8-1.8-0.9-4.6-1.2-6.5c-1.4-8.6,1.4-18.1-2.2-26.3c-1.6-3.6-4.4-5.4-7.9-7c-4.5-2-9.5-1.5-14.2-2.5c-2.2-0.5-3.9-1.6-6.2-1.7
			c-2.3-0.1-4.6,0-6.8,0.1c-2.4,0.1-4.7-0.4-7-0.4c-2.1,0-3.7,1.4-5.7,1.1c-2.3-0.4-4.1-0.9-6.4-0.3c-2,0.6-4,0.8-6.1,0.8
			c-2.6,0.1-5.2-0.2-7.8,0c-2.4,0.1-4.7,0.8-7,1.1c-5,0.6-9.8,1.2-14.7,2.5c-4.8,1.3-9.4,3.2-14.1,5c-7.5,2.8-16.1,4.9-18.2,13.8
			c-1.1,4.9-1.4,10.2-0.8,15.2c0.5,4,1.4,8.5,3.8,11.9c2.5,3.6,6.8,4.7,10.8,6c4.6,1.4,9.4,1.7,14.1,2.5c4.9,0.9,9.8,1.6,14.8,1.5
			c5-0.1,9.8-1.4,14.8-1.8c5.1-0.4,10.2-1,15.3-1.5c3.4-0.3,10-1.3,11.7,2.6c0.5,1.2,1.3,2.7,0.3,3.8c-1.2,1.3-2.2,2.6-3.3,4.1
			c-1.4,2-2.5,3.9-3,6.3c-0.4,2.4-0.5,4.8-0.5,7.2c-0.1,10,2.4,20.1,4.9,29.7c2.5,10,5.4,20,8.9,29.8c3.4,9.3,5.9,19,9.9,28
			c2,4.5,4.6,8.6,7.4,12.7c2.3,3.5,4.4,7.6,7.9,10.1c2.9,2.1,6.5,3.1,10.1,2.9c4.2-0.3,8.3-2.9,12-4.8c9-4.5,17.2-10.7,25.3-16.7
			c3.9-2.9,7.4-6.2,11.5-8.7c4-2.5,8.1-4.7,12.6-6c-3.8,7.9-7.2,16-11.2,23.8c-3.9,7.7-7.2,15.7-10.8,23.6c-1.5,3.2-3.6,6.1-5.1,9.3
			c-1.6,3.7-3.3,7.4-4.9,11.1c-3,6.8-6.2,13.5-8.9,20.4c-0.6,1.6-0.3,3.5-1.1,4.8c-0.8,1.4-1.7,2.6-2.3,4.1
			c-1.3,3.2-2.4,6.5-3.9,9.7c-3.3,7-5.4,14.6-8.6,21.7c-3.2,7.1-6.1,14.3-8.9,21.6c-1.4,3.6-3,7.1-4.3,10.7
			c-1.2,3.3-2.3,6.7-4.3,9.7c-4.3,6.5-7.6,13.6-10.9,20.7c-1.5,3.4-2.9,6.7-3.1,10.4c-0.2,3.4,1.9,6.1,3.6,8.8
			c-3.1,1.5-5.9,3.5-8.9,5.1c-3.3,1.7-6.7,3-10.1,4.4c-3.5,1.4-6.9,2.8-10.4,4.2c-3,1.3-5.8,2.8-8.8,4.2c-2.8,1.4-5.3,3.1-8,4.8
			c-2.9,1.7-5.7,3.4-8.6,5.2c-5.6,3.4-11,6.9-16.9,9.8c-3.1,1.5-6.1,3-9.2,4.6c-2.5,1.3-5.3,2.4-7.1,4.6c-2.7,3.3-2.5,8.6,0.1,11.9
			c1.7,2.2,5.9,2,8.4,2.1c1.7,0,3.5,0,5.2-0.4c1.4-0.3,2.6-1,4-1.4c1.6-0.4,3.3-0.3,4.9-0.5c1.6-0.2,3.1-0.5,4.7-0.8
			c3.3-0.7,6.7-1.5,10-2.2c3.3-0.7,6.5-1.4,9.7-2.3c1.3-0.4,2.7-1.2,4.1-1.1c1.5,0,2.8,0.1,4.3-0.1c1.5-0.3,3-0.7,4.6-0.9
			c1.4-0.2,2.9,0,4.3-0.2c1.6-0.3,3.1-1,4.6-1.4c1.5-0.4,2.9-0.3,4.4-0.3c-3.8,3-7.8,5.7-11.7,8.5c-3.9,2.9-7.6,6.1-11.4,9.1
			c-3.1,2.5-6.9,4.9-8.8,8.5c-1.5,2.9-1.8,6.4-1.2,9.6c0.8,4,3.7,4.5,7.3,4.7c4.6,0.3,8.2-1.6,12.2-3.6c7.9-3.9,15.5-8.4,23-13
			c3.7-2.3,7.8-4,11.7-5.9c2.1-1,4.2-2,6.2-3c1.7-0.8,3.9-2.4,5.8-2.2c-5.2,10.7-10.6,21.3-15.1,32.3c-1.9,4.6-3.4,9.4-3.8,14.4
			c-0.3,3.5-0.1,10.4,4.3,11.6c2,0.5,3.7-0.8,5-2.1c1.9-1.8,3.6-3.9,5.4-5.8c3.5-3.8,7.2-7.4,11-10.8c3.9-3.5,7.7-6.9,11.2-10.8
			c3.3-3.7,7.5-6.5,10.6-10.4c3.2-4,6.1-8.2,9.4-12.1c2.1-2.6,3.9-6.7,7.6-7.2c0.5,3.1,3.2,5.8,5,8.3c4.1,5.5,9,10.1,14.1,14.6
			c4.6,4.1,9.6,7.6,15.4,9.8c3.8,1.5,11.8,4.9,14.8,0.3c1.4-2.2,0.7-6.5,0.1-8.9c-0.7-3.4-2.4-6.5-3.8-9.6c-3-6.3-6.3-12.3-9.7-18.4
			c-1.7-3.1-3.3-6.1-5.2-9.1c-1.6-2.6-3.8-5.1-4.6-8c-0.3-1.2-0.5-2.9-0.1-4.1c0.4-1.3,1-1.1,2.1-1.2c2.6-0.4,1.8-5.1,1.5-7
			c-0.3-1.7-0.9-3.3-1.5-4.8c-0.5-1.3-1.6-3.1-1.6-4.6c0.1-1.4,1.4-2.8,1.9-4c0.6-1.4,1-2.9,1.5-4.4c2-6.8,4.7-13.4,6.3-20.3
			c1.7-6.9,3.4-13.6,5.9-20.3c2.5-6.9,5.3-13.7,7.6-20.7c2.2-6.8,4.5-13.5,6.9-20.3c4.9-13.5,10.2-26.8,16.1-39.9
			c5.8-12.9,12.3-25.5,17.3-38.8c2.4-6.4,4.8-12.7,7-19.1c2.3-6.6,4.8-13.2,7.5-19.7c2.8-6.7,5-13.5,7.4-20.3
			c2.3-6.7,4.3-13.6,7.2-20.1c0.7,0.8,1.4,1.4,1.9,2.3c0.5,0.9,1,1.8,1.7,2.6c1.3,1.5,3,2.5,4.6,3.6c1,0.7,1.8,1.5,3,1.7l0.1,0
			c-0.2,0-0.4,0-0.6,0.1c1.5,1,2.9,2,4.4,3c-0.1-0.3-0.2-0.5-0.4-0.8c0.5,0.8,1,1.6,2,1.8c-0.1,0-0.2,0-0.2,0
			c0.7,0.5,3.1,2.9,2.9,0.3c0.1,0.4-0.1,0.7,0.1,1.2c0.2,0.4,0.6,0.9,1,1.2c0.7,0.8,1.5,1.4,2.3,2c1.9,1.4,4,2.6,5.9,4
			c0.5,0.4,2.4,2.6,3,2.6l3.6,3.1c-0.5-1.6-0.9-3.2-1.4-4.8l1,3.5c0.4,1.3,1,1.8,2,2.7c1.8,1.6,3.5,3.2,5.3,4.7
			c3.3,2.7,7.2,4.9,10.8,7.3c1.9,1.3,3.9,2.7,5.7,4.1c1.5,1.2,3.4,1.6,4.9,2.7c1.9,1.4,3.6,3.3,5.2,5c1.5,1.5,3.2,3.1,4.2,5
			c1.2,2.1,1.2,5,1.5,7.3c0.4,2.4,0.7,4.8,1.1,7.2c0.7,4.9,1.4,9.9,2,14.8c0.6,4.9,1.3,9.7,1.7,14.6c0.4,4.9,0.3,9.9,0.9,14.8
			c1.1,9.9,2.4,20,4.5,29.7c2.1,9.8,3.5,19.8,5.4,29.6c1,5.1,2,10.1,3,15.2c0.5,2.5,1,5,1.5,7.5c0.4,2.1,0.2,4.1,0.6,6.2
			c0.2,1.1,0.5,2.2,0.5,3.4c0,1.1-0.7,2.1-0.7,3.1c-0.1,1.4,1.2,3.6,2,4.7c1.2,1.7,2.8,3.2,4.1,4.7c1.4,1.5,1.9,2.1,1.4,4.2
			c-2.1,9,3.2,16.5,8.9,22.8c6.3,7,12.5,13.7,19.7,19.7c3.8,3.2,7.3,6.6,10.9,9.9c3.5,3.2,7.2,5.7,11.2,8.2
			c4.1,2.5,8.4,4.3,12.7,6.5c4.2,2.1,8.2,4.2,12.7,5.7c4.2,1.5,8.5,2.8,12.6,4.6c3.2,1.5,7.3,1.4,10.5,0c2.2-0.9,4-2.6,6-3.9
			c1.8-1.2,3.7-2.4,5.6-3.5c3.1-1.8,6.2-3.9,7.6-7.5c1.6-4.2,0.2-9.2-0.7-13.4c-0.9-4.3-2.8-8.3-5.2-12c-2.4-3.9-5.4-7.2-8.1-10.9
			c-2.8-3.7-5.4-7.7-8.4-11.3c-2.9-3.6-6-7.1-9.4-10.3c-3.3-3.3-6.2-6.9-9.3-10.4c-0.7-0.8-1.9-1.7-2-2.9c-0.1-1,0.6-1.8,0.9-2.7
			c0.7-1.8,0.5-3.7,0.5-5.6c0-0.9,0-1.8,0.5-2.7c0.4-0.8,1.2-1.1,1.5-1.9c0.3-0.7,0.2-1.7,0.3-2.4c0.2-1,0.6-1.7,1-2.6
			c0.8-2.3-0.2-5-0.6-7.3c-0.4-2.2-0.8-4.3-1.2-6.5c-0.9-4.7-1.5-9.3-3-13.9c-3-9.2-5.9-18.3-6.1-28.1c-0.1-4.9-1.5-9.6-2.6-14.3
			c-1.2-5-2.4-10-3.7-15c-2.4-9.6-5.2-19-7.6-28.6c-2.4-9.5-4.6-19.1-7.5-28.5c-2.9-9.5-7-18.4-11.3-27.4c-2.1-4.3-4.4-8-7.4-11.7
			c-3.2-3.8-6.4-7.5-9.7-11.3c-6.6-7.5-13.2-15-19.8-22.5c-3.3-3.7-6.7-7.2-10.6-10.4c-3.5-2.8-8.2-5.1-9.3-9.7
			c-0.3-1.3-0.5-2.6-0.9-3.9c-0.2-0.7-0.8-1.9-0.7-2.7c0.2-1.6,3.2-2.2,4.3-2.8c4.1-1.9,8.3-3.7,12.4-5.8c2.2-1.1,4.2-2.5,6.3-3.9
			c1.8-1.2,3.8-1.5,5.7-2.1c4.4-1.4,8.5-3.3,12.5-5.5c4.2-2.2,8.4-4.4,12.5-6.9c4.1-2.5,7.3-5.5,10.8-8.8c1.6-1.5,2.7-0.7,3.8,0.9
			c1.3,1.9,2.8,3.8,4.2,5.7c0.7,0.9,1.2,1.9,2.1,2.5c0,0,0.1,0,0.1,0.1c-0.2-0.1-0.3-0.1-0.5-0.2c0.3,2.4,2.1,4,3.7,5.7
			c-0.2-0.4-0.3-0.8-0.4-1.2c0.4,1.1,1,1.9,1.7,2.9c1.5,1.9,3.1,3.6,4.8,5.4c0.9,0.9,1.8,1.8,2.7,2.6c0.4,0.3,0.7,0.7,1.1,1
			c0.6,0.6,0.9,0.7,1.5,1c1.2,0.6,1.5,1.5,2.6,2.3c1.6,1.2,3.6,1.9,5.3,3.1c1.4,0.9,2.5,2.8,4.1,3.2c0.6,0.1,1,0,1.4,0.5
			c0.6,0.6,0,0.6,0.9,0.8c0.5,0.1,1-0.2,1.5,0c0.5,0.2,1,0.6,1.4,0.9c1,0.7,2,1.4,2.9,2.1c1.8,1.3,3.5,2.6,5.2,3.9
			c3.5,2.6,6.6,5.6,10.1,8.2c1.8,1.4,3.7,2.3,5.6,3.5c1.6,1,2.9,2.3,4.4,3.4c1.8,1.3,3.9,1.9,5.7,3.1c1.8,1.2,3.6,2.4,5.5,3.4
			c4.1,2.3,8.3,4.4,12.7,6.2c4.4,1.8,9,3.2,13.8,3.5c4.9,0.2,9.5-1,14-2.8c4.5-1.8,8.8-3.8,13-6c4.1-2.2,7.9-4.8,11.9-7.2
			c4-2.3,7.9-4.8,11.7-7.4c3.7-2.5,7.1-5.3,11.1-7.4c4-2.1,7.5-4.8,11.3-7.2c3.9-2.5,7.7-5.1,11.5-7.6c8-5.3,16-10.8,23.5-16.7
			c3.6-2.8,7.2-5.8,10.4-9.1c3.4-3.6,7.5-6.6,11.2-9.8l10.8-10.4c0,0,0,0,0,0l-10.8,10.5c1.7-0.3,2.8-1.4,4.2-2.5
			c1.4-1.1,2.9-2.3,4.3-3.4c2.1-1.7,4.5-3.4,4.2-6.4c0.9-0.8,1.8-1.7,2.8-2.4c1.6-1.3,3.4-2,5.1-3.1c3.4-2.3,6.4-5.2,9.6-7.7
			c1.4-1.1,2.7-2,2.9-3.9c0.2-2.1,0-4.3-0.1-6.4c0-1.6-0.5-3.9,0.1-5.4c0.6-1.5,2.7-2.2,4-2.9c3.8-2.1,7.5-4.3,11.3-6.3
			c3.7-2,7-3.4,11.2-3.8c1.9-0.2,3.6-0.4,5.5-0.7c1.9-0.3,3.7,0.3,5.5,0.6c4.2,0.8,8.5,1.2,12.7,2c4.2,0.8,8.4,1.8,12.6,2.9
			c4.2,1,8.4,2.1,12.6,2.9c2.2,0.4,4.4,0.6,6.5,1.3c1.6,0.5,3.1,1.2,4.8,1.6c4,0.9,8,1,11.9,2.3c3.9,1.3,7.8,2,11.9,2.6
			c2.1,0.3,4.2,0.7,6.3,1.1c1.3,0.3,2.4,0.4,3.7,0.1c2.7-0.6,4.8-2.8,5.7-5.4c2.3-7.1-2.2-14.7-6.8-19.8c-5-5.4-11.2-9.2-17.1-13.4
			c2.4-0.3,4.7,0.1,7.1,0.1c2,0,4-0.1,6,0.1c4.5,0.2,9-1.1,13.5-1.2c6.1-0.1,13.6-1.4,15.2-8.3c1.5-6.5-5.4-12.3-10.3-15.2
			c-3.1-1.9-6.3-3.6-9.4-5.6c-3.3-2.1-7.4-3.4-11-4.8c-3.7-1.5-7.4-2.9-11.3-3.9c-3.7-1-7.4-1.5-11-2.9c3.2-1.4,6.7-1.7,10.2-2.4
			C952.6,212.3,956,211.5,959.3,210.6L959.3,210.6z"/>
		<path d="M980,463.7c-0.4,1.5-1.2,2.3-2.8,2.6c-2.5,0.6-5.2,0.7-7.8,1c-4.6,0.6-9.4,0.8-14,1.9c-4.3,1-8.5,2.6-12.4,4.7
			c1.3-6,2.7-11.9,2.2-18.1c-0.4-4.5-0.5-11.4-5.1-14c-1.1-0.6-2.8-0.4-3.9-0.4c-1.5-0.1-3.1-0.2-4.6-0.2c-3-0.2-6.1-0.5-9.1-0.8
			c-6-0.6-11.9-1.3-17.9-2.2c-1-0.1-2.8,0-3.4-0.9c-0.5-0.6-0.3-1.6-0.2-2.3c0.1-2.4,0-4.9-0.3-7.3c-0.7-5.3-2.1-10.5-3.8-15.6
			c-0.8-2.6-1.7-5.1-2.5-7.7c-0.4-1.2-1.3-2.9,0-3.8c0.8-0.6,2.3-0.5,3.3-0.8c1.2-0.3,2.3-0.7,3.4-1c2.7-0.9,5.3-1.8,8-2.7
			c10.1-3.4,20.3-6.5,30.4-10c1.4-0.5,2.8-1,4.2-1.5c0.6-0.2,1.7-0.7,2.3-0.5c0.8,0.3,0.6,1.2,1.2,1.7c0.5,0.4,1.6,0.5,2.2,0.8
			c1.6,0.9,2.6,2.5,3.8,3.8c1.6,1.6,3.4,3.1,5,4.8c6.4,6.8,11.1,14.9,15,23.3c1.1,2.2,1.8,4.6,2.4,7c0.6,2.3,1.4,4.5,1.8,6.8
			c0.8,5.4,0.9,11,1.5,16.5C979.6,453.5,981.1,459.1,980,463.7 M939.7,451.4c0,3.6-0.2,7.3-1,10.8c-0.8,3.7-2.3,7.2-3.6,10.7
			c-1.2,3.3-2.2,6.7-3.7,9.9c-1.4,3.2-3.2,6.1-4.4,9.4c-2.3,6.8-6.4,12.7-9.2,19.2c-2.9,6.7-6.1,13.1-9.7,19.4
			c-1.7,3-3.3,6.3-5.5,9.1c-1.1,1.4-2.3,2.7-3.5,3.9c-1.1,1-1.6,0.2-2.9,0.5c-1.9,0.3-2.9,2.8-4.1,4.1c-2.3,2.4-4.7,4.8-7.3,7
			c-2.6,2.2-5.5,4.1-8.2,6.2c-2.6,2.1-5.2,3.9-8.1,5.4c-5.8,3-12.5,6.6-19.2,6.3c-3.1-0.1-4.7-2.2-6-4.8c-1.4-2.8-0.9-6.2-0.7-9.3
			c0.3-3.7,1.2-6.9,3.1-10c1.9-3.1,0-5-1.9-7.5c-4.3-5.7-10-10.1-15.2-14.9c-2.7-2.5-5.3-5-8-7.5c-1.5-1.4-2.9-2.8-4.4-4.2
			c-1.1-1-2.1-1.7-2.5-3.1c2.9-1.6,6-2.9,8.7-4.9c5.5-4,10.5-8.9,15.7-13.3c2.5-2.1,4.5-4.8,6.5-7.3c1.9-2.5,4.1-4.8,5.8-7.5
			c3.6-5.8,7.7-11.5,10.5-17.6c1.4-3.1,2.1-6.2,2.9-9.5c0.4-2,1-3.9,1.5-5.9c0.3-1.3,0.4-3.4,1.2-4.5c1.5-1.9,6.2,1.2,7.9,1.7
			c3.2,1,6.6,1.5,10,2c7.1,1.1,14.2,2,21.3,3.4c3.7,0.7,7.4,1.5,11.1,1.9c3.6,0.4,7.3,0.2,10.9,0.1c0.8,0,1.7,0.1,2.3-0.6
			c0.3-0.4,0.1-0.9,0.6-1.3c0.6-0.5,1.4-0.2,2.2-0.2c1.5,0.2,2.9,0.2,4.4,0.4c0.6,0.1,1.9,0,2.4,0.3
			C939.9,449.6,939.7,450.6,939.7,451.4 M837.5,548.8c-1.7,3.4-2.7,8.2-2.7,12c0,2,0.2,4.1,0.7,6.1c0.4,1.7,1.4,3.7,1,5.5
			c-4.3-2-8.5-4.1-12.9-5.9c-3.8-1.6-6.6-4.3-9.8-6.8c-3.4-2.8-6.4-5.8-9.6-8.7c-3.5-3.1-7.1-6.1-10.6-9.1
			c-6.3-5.4-11.5-11.5-16.7-18c-4.5-5.7-11-13-10.7-20.7c0.1-3.6,0.4-7.6,2.2-10.9c1.5-2.7,4.1-5.6,6.6-7.4c2.4-1.7,4.7,2.6,6,4.1
			c2.9,3.3,5.8,6.5,8.7,9.7c5.5,6.1,10.8,12.5,16.8,18.2c6,5.7,12.2,11.3,18.7,16.5c3.3,2.6,6.8,5,9.8,8c1.1,1.1,3.2,2.3,3.9,3.6
			C839.7,546.3,838.1,547.5,837.5,548.8 M985.7,464.3c-0.9-0.1-0.9,0-0.9-0.9c-0.1-1.4,0.3-3,0.5-4.4c0.7-6.6,0.3-13.5-0.2-20.2
			c-1.1-13-3.8-25.8-10.6-37c-3.1-5.2-6.7-10.1-11.1-14.3c-2-1.9-4-4-6.3-5.7c-1.1-0.8-2.8-1.3-3.8-2.1c-0.6-0.5-0.8-1.4-1.3-2
			c-1.9-2.4-4-3-7-2.7c-3.1,0.3-6.4,1.2-9.4,2.1c-6.4,1.8-12.5,4.8-18.7,7.2c-6.2,2.4-12.4,4.9-18.5,7.5c-2.7,1.1-5.9,2-8.3,3.7
			c-1.4,1-1.9,2.3-1.7,4c0.5,6.1,2.8,12.1,4.5,17.9c1.8,6.2,3.3,12.6,3.8,19.1c-6.3-0.5-12.7-0.9-19-1.7c-3.2-0.4-6.3-0.7-9.5-1.2
			c-1.6-0.2-2.4-0.8-3.7-1.7c-1.2-0.7-1.7-0.1-2.2,1c-2.6,5.9-3.6,12.3-6.3,18.1c-1.2,2.6-2.8,5.1-4.1,7.7c-1.4,2.8-3.1,5.6-4.9,8.2
			c-0.8,1.2-1.9,2.2-2.8,3.3c-0.8,1.1-1.4,2.3-2.2,3.4c-1.6,2.3-3.6,4.3-5.5,6.3c-2,2-3.9,4-5.8,6.1c-1.9,2-4.1,3.7-6.1,5.6
			c-1.9,1.8-3.5,3.8-5.4,5.6c-1.8,1.7-2.7,4.1-4.7,5.6c-1.1,0.8-2.2,1.5-3.3,2.3c-0.9,0.7-1.8,1.9-3,1.7c-1.4-0.3-2.5-2.1-3.3-3.1
			c-1.1-1.2-2.2-2.5-3.4-3.7c-4.4-4.8-9-9.5-13.4-14.2c-2.2-2.3-4.6-4.4-6.7-6.8c-1.5-1.7-4.1-3-6.2-1.8c-2.2,1.2-4.8,2.2-6.6,4
			c-1.9,1.9-3.4,4.5-5,6.7c-1.6,2.3-2.3,5.1-2.7,7.8c-0.5,2.9-0.9,5.9-0.7,8.8c0.4,5.7,1.5,12,4.7,16.7c1.6,2.3,3.7,4,5.6,5.9
			c2.1,2.1,3.5,4.7,5.2,7.1c3.4,4.8,7.6,9.1,11.9,13.2c2,1.9,4.4,3.6,6.4,5.5c2.2,2.1,4.4,3.9,6.9,5.7c2.5,1.8,4.6,4.1,6.9,6.1
			c2.4,2.1,4.8,4.1,7.4,5.9c5,3.5,10,5.7,15.8,7.5c6.4,1.9,12.5,4.4,18.9,6.4c3,1,6-0.4,8.9-1.3c2.9-1,5.8-2.2,8.6-3.7
			c5.5-3.1,10.8-6.7,16.2-10c5.6-3.4,10.3-7.3,14.6-12.3c4.1-4.7,8.4-9.5,12.2-14.5c7.6-10.2,12.2-22.3,17.8-33.7c3-6,6-12,8.5-18.2
			c1.2-3.1,2.3-6.2,3.6-9.3c0.5-1.3,1-1.8,2.4-2c1.6-0.3,3.3-0.4,5-0.6c6.5-0.8,12.9-1.9,19.3-3c6-1,12-2.1,17.4-5.1
			c1.1-0.6,2.5-1.4,3.1-2.6c0.3-0.5,1-3.3,0.6-3.8C987.7,464.4,986.1,464.4,985.7,464.3 M719.2,53.3c2.1-1.1,4.2-2.1,6.3-3.1
			c4.5-2.2,8.9-4.5,13.4-6.6c2-0.9,4.2-1.5,6.3-2.3c2.2-0.8,4.4-1.9,6.5-3c4.5-2.2,9.1-4.1,13.8-5.8c1.4-0.5,2.9-1.1,4.3-1.6
			c1.1-0.4,2.4-1.2,3.6-1.3c1.8-0.2,3.2,1.6,4.4,2.8c6.7,6,11.4,15,14.3,23.4c1.6,4.6,2.3,9.4,3.1,14.2c0.9,4.9,1.8,9.7,1.8,14.7
			c0,5.1,0.6,10.1,0.3,15.1c-0.1,1.9,0.3,5.3-0.8,6.9c-1.1,1.7-3.7,2.1-5.4,2.8c-9.3,3.4-18.6,7-28.1,10c-9.8,3.1-19.7,6.2-29.5,9.4
			c0.4-2.8,0.9-5.6,1.2-8.4c0.3-2.6,0.1-5.4,0.1-8c0-5.8-0.2-11.6-1.4-17.3c-2.1-10.4-5.6-20.6-11.3-29.6c-1.3-2.1-3-4-4.6-5.9
			c-0.6-0.7-2.5-2.3-2.4-3.3C715.3,54.8,718.2,53.8,719.2,53.3 M831,52.2c2.2,0.1,3.5,0.6,3.7,2.9c0.2,2.9,0.2,5.9,0.3,8.8
			c0.2,5.6,0.4,11.3,0.3,16.9c-0.3,9.9-1.3,19.7-4.3,29.1c-1.5,4.6-3.2,9-5.1,13.4c-1.8,4.3-4.4,8.1-6.7,12.1
			c-1.1,2-2.4,3.6-3.9,5.2c-0.7,0.8-1.1,1.2-2.1,1.3c-1.1,0.1-2.4-0.1-3.4-0.2c-5-0.4-10-0.9-15-1.1c-5-0.2-9.9,0-14.9-0.3
			c-2.3-0.1-4.5-0.9-6.8-1.2c-2.3-0.4-4.6-0.5-6.9-0.8c-1.2-0.1-1.2,0.1-1.3-0.9c-0.1-0.6,0.1-1.3,0.1-1.9c0.1-1.1,0.1-2.3,0.2-3.4
			c0.1-1-0.1-2.8,0.3-3.8c0.4-0.9,1.2-1,2-1.2c4.6-1.3,9.1-2.8,13.5-4.6c4.5-1.8,9.1-3.5,13.6-5.5c1.9-0.8,4.1-1.6,5.6-3.2
			c1.2-1.3,1.9-3,2.4-4.6c2.9-9.1,2-19.7,1.1-29.1c-0.9-9.7-2.3-19.6-5.8-28.7C808.7,51.5,819.9,51.7,831,52.2 M706.6,60.5
			c3.1,1.2,5,3.9,6.8,6.5c2.2,3.2,4.4,6.5,6.1,10.1c3.7,7.5,6.1,15.7,7.5,23.8c1.3,7.8,2,16.5,0.5,24.4c-0.4,2.1-1.5,3.8-2.1,5.8
			c-0.4,1.3-0.1,3.3,0.2,4.6c0.5,1.9,2.3,1.3,3.8,0.9c2.2-0.4,4.4-0.9,6.5-1.4c8.2-1.7,16.4-4.8,24.7-5.4c-0.7,2.2-1.1,4.2-2.5,6.2
			c-1.3,1.8-3.1,3.3-3.9,5.5c-0.6,1.8-0.8,4.3-0.1,6.1c0.7,1.9,2.4,1.9,4.1,2.1c5,0.6,9.9,1.4,14.9,1.7c1.1,0.1,2.2,0.2,3.2,0
			c0.9-0.2,1.5-0.4,2.3-0.3c1.1,0.2,2.2,0.8,3.4,0.9c1.1,0.1,2.3,0.1,3.4,0c4.2-0.2,8.3,0.3,12.5-0.1c1.2-0.1,3.5-0.8,4.7-0.1
			c1.2,0.7,0.3,2.2,0.9,3.3c0.8,1.4,3.5,0.7,4.8,0.6c1.9-0.1,3.5-0.4,5.2-1.3c3.4-1.8,6.5-4.1,9-7c2.6-3,4.5-6.6,6.4-10.1
			c2-3.7,3.9-7.3,5.4-11.2c1.5-4,3-8.1,3.9-12.3c0.9-4.2,1.4-8.4,2.2-12.7c0.8-4.4,1-8.9,1.2-13.3c0.2-4.6,0.3-9.1,0-13.8
			c-0.3-4.5-0.8-9-1.3-13.5c-0.1-1.2-0.1-2.3-0.2-3.5c-0.1-0.8-0.5-1.5-0.6-2.3c-0.1-1.5,1.3-2.5,1.3-4.2c-0.1-3.8-4.1-5.2-7-6.1
			c-3.9-1.2-8.2-1.9-12.2-1.6c-8.7,0.6-17.6,0.7-25.8,3.9c-4.3-7.3-8.2-15.2-15.2-20.4c-0.8-0.6-1.6-1-2.2-1.8
			c-0.4-0.7-0.6-1.5-1.2-2.1c-1.4-1.6-3.2-1.8-5.2-1.4c-4.4,0.9-8.5,1.9-12.7,3.6c-1.8,0.7-3.8,1.1-5.6,1.8
			c-1.8,0.7-3.5,1.6-5.2,2.4c-3.7,1.8-7.6,3.4-11.3,5.3c-7.5,3.7-14.9,7.6-21.8,12.4c-3.3,2.3-7.1,4.7-10,7.6
			c-1.2,1.3-1.8,2.9-1.6,4.7C704.3,60.7,705.2,60,706.6,60.5 M216.1,74.8c0.4-4.8,0.2-9.5,0.6-14.3c0.3-4.5,1.2-9.1,2.1-13.6
			c0.9-4.5,2.5-8.5,4.4-12.7c1-2.3,2-4.6,3-7c0.6-1.4,1-2.9,2.7-3.3c2.2-0.5,4.8-0.1,7-0.2c2.2-0.1,4.5-0.2,6.7-0.4
			c4.9-0.4,9.7-1.1,14.6-1.7c4.7-0.5,9.3-0.8,13.9-1.7c2.4-0.5,4.7-1.1,7.1-1.6c1.8-0.4,4.2-1.5,6-1.1c-2.2,5-2.9,10.3-2.9,15.7
			c0,2.1-0.3,3-2.5,2.9c-2.8-0.2-5.5-0.4-8.3-0.8c-5.2-0.6-10.3-1.5-15.5-2.4c-2.4-0.4-4.8-1-7.2-1.6c-1.7-0.4-2.4,0.3-3,1.9
			c-0.4,1.1-0.5,1.6-1.6,2.3c-0.9,0.5-1.7,1-2.5,1.6c-1.4,1.1-2.6,2.4-3.7,3.9c-2.3,3.2-3.8,7.1-5.1,10.8
			c-3.4,9.4-5.1,19.5-5.4,29.5c-0.2,5.1-1,10-1,15.1c0,2.2,0.5,5.1-1.3,6.7c-1.8,1.6-4.2,2.7-6.2,4c-1.8-5.1-2.2-10.5-2.3-15.9
			C215.6,85.5,215.7,80.2,216.1,74.8 M291.6,47.8c2.2,0.6,4.5,1.1,6.7,1.6c-3.8,9.2-3.7,19.3-4,29c-0.1,4.4,0,8.7,0.4,13.1
			c0.4,4.4,1.4,8.7,2.3,13.1c0.2,1,0.7,2.5,0,3.4c-0.7,1-3,1.5-4,1.9c-3.9,1.8-7.8,3.7-11.8,5.3c-4.1,1.6-8.3,2.6-12.2,4.4
			c-3.9,1.8-7.8,3.5-11.8,4.9c-4,1.4-8.1,2.5-11.9,4.2c-3.6,1.7-6.6,4-9.7,6.5c-1.9-5.8-2.6-11.8-2.9-17.9
			c-0.3-5.8-0.8-11.9-0.2-17.8c0.3-2.7,0.3-5.1,0.2-7.8c0-2.4,0.5-4.7,0.7-7.1c0.4-5.2,0.4-10.4,1.1-15.7c1.3-9.8,4-20.3,9.4-28.7
			c0.3-0.5,0.7-1.4,1.1-1.8c0.8-0.7,0.5-0.5,1.6,0c1,0.5,1.9,1,2.9,1.5c2.1,0.9,4.4,1.3,6.6,2c2.4,0.7,4.7,1.8,7.2,2.2
			c2.5,0.4,5,0.4,7.4,0.8c1.4,0.2,2.6,0.7,3.9,1c1.1,0.3,2.1,0.2,3.3,0.3c2.2,0.2,4.3,0.8,6.5,1C287,47.6,289.2,47.1,291.6,47.8
			 M210.8,90.3c0.8,6,2.4,11.9,4.7,17.5c0.8,1.8,1.6,4.3,3.8,4.8c2,0.5,4.4-1,6.3-1.5c1.5,8.8,2.1,17.8,6,26c0.5,1,1.1,2.9,2.2,3.6
			c1,0.7,2.3,0,3.3-0.4c4.3-1.6,8.8-2.7,13.3-3.8c2.2-0.6,4.4-1,6.6-1.8c1.8-0.6,3.5-1.4,5.3-1.7c3.9-0.7,7.5-2,11.2-3.3
			c7.8-2.8,15.6-5.2,22.8-9.4c3.4-2,7-3.9,10.2-6.3c2.6-2,5.5-4.9,4.2-8.4c-0.4-1.1-1.4-2.8-2.7-3.2c-1.1-0.3-2.2,0.7-3.2,1
			c-1.6,0.4-1.2-0.9-1.4-2.2c-0.1-1-0.2-2-0.4-2.9c-0.2-2.1-0.5-4.1-0.7-6.2c-0.8-8.5-0.4-17.1-0.4-25.6c0-4.3,1-8,2-12.2
			c0.5-2.2,1-4.4,1.5-6.6c0.3-1.2,0.6-2.6,0.2-3.8c-0.8-2.8-4.8-3.5-7.1-4.3c-2-0.7-4.1-1.3-6.1-1.7c-1.1-0.2-4.2,0-4.9-1
			c-0.7-1,0.1-4,0.2-5.2c0.1-2.1,0.3-4.2,0.6-6.2c0.4-3.3,0.4-6.4-2.3-8.9c1.7-1.3,2.8-4.1,0.4-5.4c-2.8-1.4-6.5-1.6-9.4-0.9
			c-3.2,0.8-6.7,0.8-10,1.2c-3.5,0.4-7,0.8-10.5,1.3c-6,0.8-12.1,0.9-18.1,2.1c-3,0.6-5.9,1.1-8.9,1.5c-3.1,0.5-5,0.9-6.8,3.5
			c-3.5,5-6.8,10-8.7,15.8c-1.9,5.5-2.7,11.3-3.3,17c-0.6,6.2-0.7,12.4-0.6,18.6C210.1,77.8,210,84.1,210.8,90.3 M84.6,335.6
			c0.4-0.6,1.4-0.8,2-1c0.9-0.4,1.7-0.8,2.6-1.3c4.2-2.4,8.3-4.9,12.1-7.8c0.9-0.7,3.3-3.3,4.6-2.9c0.7,0.2,1,1.3,1.3,1.9
			c0.5,1,1,1.9,1.6,2.8c2.3,3.6,5.1,6.9,8.3,9.8c5.9,5.4,12.7,8.9,20.9,9.3c-5.3,7.2-10.3,14.6-16.3,21.2c-3,3.3-6.3,6.3-9.5,9.6
			c-0.5,0.5-0.8,0.9-1.5,1.2c-0.7,0.3-1.3,0.4-1.9,1c-1,1-1.1,2.4-0.8,3.7c-5.6,0.2-11.6-2.3-16.7-4.3c-3-1.2-5.9-2.5-8.7-4.1
			c-1.9-1.1-4-2.3-5.4-4c5.1-2.7,10.3-5.3,15.2-8.4c3.3-2.1,9.2-4.6,8.8-9.5c-0.1-0.8-0.4-1.7-1-2.1c-1-0.6-1.2,0.1-2.1,0.3
			c-1.5,0.3-3.2-1.6-4.3-2.5c-3-2.3-6-4.8-7.8-8.1C85.4,339.4,83.9,336.8,84.6,335.6 M53.5,378.8c0.8-2.7-3-4.8-4.7-6.1
			c-2.6-2-4.3-4.1-6.1-6.8c-6.7-10.6-9.1-23.6-8.6-36c0.2-3.4,0.5-6.9,0.6-10.3c0-1.8-0.1-3.5,0.3-5.2c0.4-1.7,0.8-3.3,1.2-5
			c0.8-3.3,1.2-6.7,2.2-10c0.9-3,2.1-6,3.6-8.8c1-1.9,1.9-4.5,4.4-4.2c3.2,0.5,6.2,2.1,9.3,2.9c3.4,0.9,6.8,1.7,10.3,2.5
			c3.3,0.8,6.6,1.9,9.9,2.6c1.8,0.4,3.5,0.5,5.3,0.5c0.8,0,2.2-0.1,2.2,1c0.1,1.2-1.7,2.4-2.4,3.1c-1,1-1.8,2-2.4,3.3
			c-1.3,3.2-2.6,6.5-3.1,9.9c-0.5,3.3-0.4,6.8-0.4,10.2c-0.1,6.8,0.9,13.3,3.3,19.7c2.2,5.8,5.7,9.7,10.4,13.6
			c-4.9,2.5-9.9,4.9-14.8,7.4c-4.5,2.2-9,4.1-12.8,7.4c-1.6,1.3-3.4,2.9-4.5,4.7c-1.4,2.2,0.6,3.7,2.7,2.8c2.3-1,4.6-2.1,6.8-3.1
			c1.5-0.7,3.9-2.6,5.6-2.5c1.4,0,2,1.9,2.6,2.9c1,1.6,2.3,3.1,3.7,4.4c3,2.8,6.5,5.1,10.2,6.9c4.1,1.9,8.4,3.3,12.9,4
			c2.4,0.4,4.9,0.6,7.3,0.5c1.8-0.1,4.4-0.1,6.1-1c1.4-0.8,0.7-2.4,2.1-3.2c1.5-0.9,3.1-1.5,4.5-2.4c3.4-2.3,5.4-5.2,7.4-8.6
			c4.6-8,10.2-15.3,13.6-23.9c0.8-2,1.3-4.4,2.6-6.2c0.9-1.2,2.8-1.9,3-3.4c0.2-1.5-0.4-4.8-1.9-5.5c-1.7-0.8-4.2-0.8-6.1-1.2
			c-8.1-1.9-15.7-4.8-22.2-10.2c-1.6-1.3-3.2-2.8-4.6-4.3c-1.1-1.1-2.2-2.3-2-4c0.2-1.5,1.4-3.7-1.1-4.1c-1.6-0.3-3.9,0.6-5.2,1.4
			c-4,2.5-7.7,5.6-11.6,8.4c-3.5,2.5-7.1,5-10.6,7.4c0.4-5.9,0.2-12.2,1.6-17.9c0.7-2.8,1.9-5.4,3.4-7.9c1.6-2.5,2.8-5.1,4.2-7.7
			c0.8,0.4,2,1.4,2.7,0.3c0.4-0.7,0.1-2.7,0-3.5c-1.2-6.3-10.7-6.9-15.6-8c-7-1.5-14.1-3.4-21.2-4.5c-3.3-0.5-6.6-0.6-9.9-0.8
			c-1.7-0.1-3.7-0.5-4.7,1.2c-0.3,0.5-0.3,1.1-0.6,1.5c-0.3,0.3-1.1,0.7-1.5,1c-1.1,0.9-2,1.9-2.9,3.1c-1.7,2.3-2.9,5-4,7.6
			c-2.7,6.4-4.3,13.1-5.1,19.9c-0.9,7-1.5,14.2-1,21.3c0.8,13,4.4,26.2,12.6,36.6c1.9,2.4,3.9,4.3,6.6,5.7
			C48.7,378.7,52.8,381.2,53.5,378.8 M146.7,531.6c-2.5,3.3-5.1,6.5-7.3,9.9c-2.3,3.5-4.5,7-6.7,10.5c-2.2,3.4-4.6,6.7-6.3,10.3
			c-1,2.1-1.1,4.9-3.8,4.8c-3.6-0.1-7.1-1.2-10.2-2.9c-6.4-3.4-11.7-8.2-15.7-14.2c-4.1-6.3-7.4-13.4-9.7-20.5
			c-1.3-3.9-2.3-8-3.3-12c-0.5-2.1-1-4.1-1-6.2c0-0.9,0.1-1.9,0.1-2.8c0-0.9,0.5-2.4-0.5-2.5c0.3-2.5,0.6-5.1,0.9-7.6
			c0.2-1.8,0.2-3.9,1.8-5.1c1.5-1.2,3.9-1.2,5.7-1.6c2.2-0.5,4.3-1.1,6.5-1.7c4.4-1.3,8.6-3.1,12.8-4.9c2.1-0.9,4.2-1.8,6.2-2.9
			c1.6-0.9,2.8-2.3,3.9-0.2c7.6,14.5,13.2,30.8,25.6,42c1,0.9,2.7,2,2.8,3.5C148.9,529.2,147.5,530.6,146.7,531.6 M156.8,521.4
			c-1.8-1.2-3.9-1.4-5.7-2.5c-2-1.3-3.4-4.2-4.8-6.1c-3.3-4.6-6.7-9.2-9.7-14c-2.7-4.4-5.2-8.9-7.8-13.3c-1.3-2.3-2.7-4.5-4.3-6.6
			c-0.7-0.9-2.4-4.1-3.8-3.9c-0.7,0.1-0.7,0.8-1.2,1c-0.3,0.1-0.5,0-0.8,0c-1,0.1-2-0.4-3-0.3c-2.5,0.2-5.1,1.3-7.5,2
			c-4.9,1.5-9.6,3.6-14.5,5.3c-4.8,1.7-10.2,2.8-14.6,5.5c-1.7,1-3.7,2.7-2,4.8c0.6,0.8,1.5,0.8,2.2,1.4c0.6,0.5,0.3,0.8,0.2,1.6
			l-0.2,1.5c-0.8,5.1-1.4,10.2-0.7,15.3c0.7,5.2,1.8,10.4,3.3,15.4c4.6,15.9,12.8,34.8,29,41.8c3.8,1.6,7.5,2,11.5,2.8
			c1.3,0.2,2.3,0.8,3.4,1.4c0.5,0.3,1.2,0.7,1.8,0.6c1.5-0.2,2.7-2.5,3.3-3.5c2.6-4.1,5.5-7.9,8.2-11.9c1.4-2.1,2.7-4.2,3.8-6.4
			c0.7-1.3,1.1-3.4,2.9-3.4l1.5,2c0.2,0.3,0.5,0.6,0.6,0.8c0.4,0.7,0.3,0.2,0.2,1.1c-0.2,1.1-1.2,2.4-1.9,3.2
			c-3.8,5.1-7.8,10.2-11.8,15.2c-3.9,4.9-7.9,9.8-12.5,14.1c-0.9,0.9-1.9,1.9-3.3,2c-1.3,0.1-2.6-0.6-3.9-0.8
			c-2.7-0.5-5.5-0.6-8.1-1.4c-1.4-0.4-2.5-1.2-3.9-1.3c-1.2-0.1-2-0.3-3.1-0.9c-2.4-1.4-5-2.2-7.4-3.6c-4.9-2.8-10.1-6.9-13.7-11.3
			c-1.9-2.3-3.4-4.8-5.3-7.1c-1.8-2.2-3.6-4.4-5.1-6.8c-3.1-4.7-5.5-9.9-7.4-15.2c-1-2.8-1.5-4.6,1-6.6c2.3-1.9,4.4-3.9,6.3-6.2
			c0.9-1.1,5.1-5.2,2-5.9c-1.7-0.4-4.4,2.5-5.7,3.6c-2.1,1.7-4.1,3.3-6.6,4.6c-2.7,1.4-2.8,3.1-2.7,6c0.1,5.9,2.3,11.7,4.6,17
			c2.3,5.5,5.3,10.8,8.8,15.7c6.8,9.3,14.3,18.7,24.8,24c5.2,2.6,10.8,3.9,16.5,4.6c3.4,0.4,6.8,0.5,10.2,0.4c1.4,0,3.3,0.2,4.7-0.3
			c1.1-0.4,1.3-1.2,1.7-2.2c1-2.4,3.5-3.7,5.2-5.6c1.8-2.1,3.7-4,5.6-6c4-4.3,6.7-9.5,9.9-14.4c1.8-2.7,3.7-5.4,5.3-8.2
			c1.3-2.3,2.8-5.4,3.3-8c0.4-2.1-1.3-5.1-3.6-5.2c-1.2-0.1-2.2,0.9-3.4,1c-0.4,0-1.6-0.2-2,0c1.9-4.7,4.8-9.1,7-13.7
			c1.2-2.6,2.4-5.2,3.5-7.8C157.9,524.4,158.8,522.8,156.8,521.4 M187.8,148.7c3.8,8.8,9.9,15.8,16.2,22.9
			c3.3,3.8,6.7,7.2,10.7,10.2c3.7,2.8,7.5,5.6,11.3,8.4c-3.8,4.9-8,9.3-12.2,13.8c-3.9,4.1-7.8,8.4-10.3,13.5c-0.3-2.5-1.9-4-4-5
			c-2.7-1.2-5.1-2.6-7.5-4.4c-4.9-3.9-9.5-8.6-13.7-13.2c-8.6-9.5-14-21.5-20-32.6C168,157.7,177.9,153.2,187.8,148.7 M156.1,170.9
			c1.4,4.1,3.5,8,5.5,11.8c1.9,3.8,3.8,7.6,6.1,11.2c4.2,6.9,9.3,13.3,15.8,18.2c3.2,2.4,6.6,4.7,10.2,6.5c1.7,0.9,3.5,1.5,5.4,1.4
			c1.2-0.1,2.8-1.1,3.7-0.2c0.9,0.9,0.6,2.8,2.6,1.9c1.6-0.8,3-2.4,4.2-3.6c3-3.2,6-6.4,8.9-9.8c2.8-3.2,5.1-6.9,7.4-10.4
			c1.3-2,2.6-3.9,3.9-5.9c0.9-1.4,2.2-2.8,2.2-4.6c-0.1-3.5-4.4-5.8-6.8-7.7c-3-2.4-5.7-4.8-8.2-7.6c-2.7-3-6.1-5.5-9-8.4
			c-3.2-3.1-6-6.4-8.8-9.8c-2.2-2.7-4.5-5.4-6.4-8.3c-1.5-2.3-3.2-4-6.1-3.6c-2.3,0.5-4.7,0.9-6.9,1.8c-2.3,0.9-4.4,1.9-6.6,2.9
			c-4,1.8-7.6,4.1-11.5,6.2c-0.9,0.5-1.7,0.9-2.5,1.5c-0.4,0.3-0.9,1-1.3,1.2c-0.3,0.2-0.6,0.1-1,0.2c-1.6,0.4-2.1,1.3-2.9,2.7
			c-1.3,2.2-1.2,3.4-0.1,5.6C154.9,166.3,155.4,168.7,156.1,170.9 M312.5,280.1c1,1.6,2.6,0.8,3.5-0.3c2.8-3.4,5.4-7,7.9-10.6
			c2.5-3.7,4.8-7.4,7.7-10.8c2.9-3.4,5.8-6.8,8.8-10.2c11.2-12.5,22.6-24.7,34.9-36c3-2.8,6.1-5.5,9-8.4c1.3-1.3,2.8-2.7,2.8-4.6
			c0-1.4-1-3.1-2.2-3.8c-2.7-1.6-6.2,2.2-8.2,3.6c-1.5,1.1-3.1,1.6-4.7,2.5c-1.4,0.8-2.8,2-4,3c-2.7,2.4-5.5,4.4-8.2,6.7
			c-2.7,2.4-5.2,5.1-7.9,7.5c-2.9,2.6-6,4.8-8.5,7.7c-2.5,2.9-4.7,6.1-7.3,8.9c-5.6,6-10.2,12.8-15,19.4c-2.3,3.2-4.1,6.7-5.6,10.4
			c-0.8,1.8-1.5,3.6-2.3,5.5c-0.7,1.7-0.8,3.5-1.1,5.3C312.4,276,312.1,279.5,312.5,280.1 M935.4,575.7c2.1-2.5,3.5-6.2,5-9.1
			c1.6-3.1,3.2-6,3.9-9.5c0.3-1.7,0.5-3.4,0.9-5.1c0.4-1.6,0.9-3,0.7-4.6c-0.2-1.7-1-6.9-3.6-6.3c-1.5,0.3-1.2,2-1.2,3.1
			c0,1.4-0.2,2.7-0.6,4c-0.9,3.1-3.2,5.8-4.6,8.7c-1.4,2.8-3,5.4-5.1,7.7c-2,2.3-4.2,4.4-6.6,6.3c-2.1,1.7-4.5,2.9-6,5.2
			c-0.9,1.4-1,1.8-2.7,2.1c-1.3,0.3-2.6,0.8-3.7,1.6c-1.3,0.9-2.2,2-3.6,2.6c-1.3,0.5-2.6,0.8-3.9,1.3c-3,1.1-5.6,3-8.7,4
			c-1.6,0.5-3.2,1-4.8,1.5c-1.3,0.4-2.8,0.6-3.9,1.5c-1.8,1.5-2.8,5.2-1.2,7.1c1.7,2.1,5.6,0.8,7.8,0.5c0,0.1,0.1,0.3,0.1,0.4
			c3.7-0.7,7.5-1.2,11.1-2.3c1.9-0.6,3.6-1.5,5.3-2.5c1.5-0.8,3-1.1,4.5-1.6c1.4-0.5,2.5-1.2,3.4-2.4c1.1-1.5,1.6-1.1,3.3-1.5
			c2.8-0.6,5.2-3.8,7.1-5.7C930.7,580.5,933.3,578.3,935.4,575.7 M405.7,128.5c0.6-1,2.9-2,3.9-2.6c1.4-0.9,2.8-1.8,4.2-2.8
			c2.5-1.8,4.2-0.6,6.4,1.1c4.1,3.2,5.7,7.4,5.4,12.4c0,1.5,0.4,3.9-0.7,5.1c-1.1,1.2-3.3,1-4.8,1.3c-1.9,0.4-4.7,2.7-6.6,2.1
			c-1.7-0.6-1.1-3.6-1.2-5c-0.3-2.5-1.1-4.9-2.6-6.9c-0.8-1-1.7-1.9-2.8-2.7C406.1,129.9,405,129.5,405.7,128.5 M398.2,136
			c1.6,0.3,3.2,1,4.7,1.6c1,0.4,2.3,0.8,3.1,1.5c1.3,1.2,0.8,3.1,1.1,4.6c0.2,0.9,0.6,1.7,0.3,2.6c-0.4,1.1-1.5,1.3-2.1,2.2
			c-0.9,1.3,0.2,3.2,1,4.3c1.3,1.9,3,0.9,5,0.7c2.4-0.4,4.8-0.4,7.1-1.2c1.9-0.6,3.4-2.1,4.8-0.1c0.5,0.7,0.6,1.4,1.7,1.1
			c0.9-0.2,1.8-1.4,2.3-2c3.7-3.8,4.6-8.9,4.7-14c0.2-5.6-1.9-10.9-4.8-15.7c-0.6-1-1.2-2.2-2.1-2.9c-0.9-0.8-2-1.1-2.8-1.9
			c-1.2-1.3-0.9-4-2.8-4.6c-2-0.6-4.9,1.8-6.4,2.9c-2.1,1.5-4.2,3-6.3,4.6c-4.4,3.4-9.4,6.6-13.4,10.5c-1.4,1.3-1.9,3.6-0.5,5.2
			C394.1,136.7,396.5,135.7,398.2,136 M635.4,539.7c-0.9-5-2.3-9.8-4.1-14.6c-1.1-3.1-3.7-8.4-7.9-8.1c-4.6,0.3-1.5,6.3-1.1,8.6
			c1.7,9.3,2.7,18.7,4.1,28c0.7,4.6,0.9,9.4,2,13.9c0.5,2.2,1.3,4.4,2.2,6.5c0.6,1.3,1.3,3.1,2.8,3.7c4.5,1.8,3.4-6.1,3.3-8.1
			c-0.1-4.8-0.2-9.6-0.4-14.4l0.4,0C636.2,550.1,636.3,544.8,635.4,539.7 M98.5,626.8c-2.5,0.8-4.3,1.4-7,1.2
			c-1.9-0.2-3.8-0.6-5.6-0.8c-4.8-0.6-9.5-1.9-13.9-3.9c-4-1.8-7.8-4-11.2-6.9c-1.8-1.5-3.3-3.2-4.9-4.9c-1.1-1.2-2.2-2.2-3.9-2.4
			c0.5,2.5,1,4.5,2.2,6.7c1,1.8,2.1,3.6,3.3,5.2c2.5,3.4,5.6,6.3,9.1,8.7c3.4,2.3,7.3,4.3,11.3,5.3c2.3,0.6,4.6,0.9,6.9,1.4
			c2.2,0.4,4.3,0.8,6.5,0.5c2.1-0.3,4.2-0.4,6.3-0.9c1.6-0.5,3.1-1.5,4.5-2.4C104.6,631.8,101.7,625.8,98.5,626.8 M179.1,63.8
			c1.2,1.6,3.9,1.7,3.7-0.8c-0.2-2.2-0.8-4.4-1.6-6.5c-0.7-2.1-0.6-4.4-0.6-6.7c-0.1-5.3,0.1-10.4,1.1-15.7c1-5,1.6-10.1,2.7-15.1
			c1.1-4.9,3.1-9.5,4.3-14.4c0.4-1.5,0.7-4.4-1.5-4.8c-1.8-0.3-2.9,2.3-3.6,3.5c-2.4,4-4.9,7.7-6.3,12.2c-1.3,4-2.2,8.3-2.7,12.5
			c-0.5,4.4-0.4,8.9-0.7,13.3c0.4,5.1,0.2,10.8,1.9,15.8C176.6,59.5,177.7,62,179.1,63.8 M868.7,84c-0.7,1.7-1.1,3.6,0.2,5.2
			c2.3,3,5.8-3.8,6.4-5.7c1.2-4.1,2.7-8.2,3.3-12.4c0.7-4.3,0.4-8.9,0.5-13.3c-0.4-5.2-1-10.3-2.3-15.3c-1.1-4.5-2.2-9-5.9-12
			c-1.5-1.2-2.5-0.3-2.8,1.5c-0.2,2,0.3,3.9,1.2,5.6c2.1,4,2.1,8.7,2.6,13.2c0.9,8.9,1.5,17.8-0.9,26.6
			C870.3,79.7,869.5,81.9,868.7,84 M102.6,183.8c0.5,2,1.1,4,1.8,6c1.4,3.8,3.3,7.4,5.6,10.7c3.8,5.5,8.8,10.7,14.3,14.6
			c1.8,1.3,6.2,4.8,8.5,3.6c3.2-1.6-1.1-5.8-2.4-7c-2.7-2.5-5.3-5-8-7.5c-2.7-2.5-4.7-5.7-6.9-8.6c-2.2-3-4.3-6-6.2-9.2
			c-1-1.6-1.9-3.3-2.9-4.9c-0.9-1.4-2.2-2.4-3.3-3.5c-0.9,0.4-0.8,0.4-1.1,1.2c-0.1,0.4-0.1,1.1-0.1,1.4
			C102,181.7,102.3,182.8,102.6,183.8 M332,215.3c5.1-4.6,10.6-8.5,15.4-13.4c1.2-1.2,2.1-1.9,1.1-3.6c-0.7-1.1-1.5-1.7-2.7-0.9
			c-2.8,1.8-5.5,4.1-8.2,6.1c-5.6,4.1-11.3,8.1-16.3,12.9c-2.3,2.2-4.4,4.5-6.1,7.1c-1.9,2.7-3.2,5.5-1.2,8.5
			C320.1,226.5,326,220.8,332,215.3 M949.6,593c-0.9-0.2-2.4,0.8-3.1,1.2c-2.7,1.8-5.5,3.4-8.2,5.1c-2.5,1.6-5,3.2-7.4,4.9
			c-2.1,1.4-3.4,3.1-2.7,5.7c0.3,1.2,0.9,2.6,2.2,1.9c1-0.5,1.9-1,3-1.4c2.8-1,5.6-2,8.2-3.4c4.5-2.5,8.7-6.3,9.4-11.7
			C950.7,594.6,950.6,593.3,949.6,593 M652.7,538.7c-0.9-1-2-1-2.5,0.2c-0.5,1.2,0.2,3.4,0.3,4.6c0.3,2,0.6,4,1,6.1
			c0.2,1.2,0.3,4.8,1.9,5.3c2.4,0.7,2.4-5,2.6-6.2c-0.5-1.7-1-3.4-1.5-5.1C654.1,542.1,653.8,539.9,652.7,538.7 M253.2,439.2
			c-0.6-0.3-1-0.2-1.1-0.8c-0.1-0.6,0.8-1.1,0.9-1.6c0.5-1.7-1.3,0.1-2,0.6c0.6,1.5,1.2,3.1,1.9,4.6c0.7-0.3,1.4-0.6,2.1-0.9
			C254.3,440.2,254.2,439.7,253.2,439.2 M585,159.9c1.2,0.4,2.9-0.1,4.1-0.4c1.2-0.2,2.5-0.5,3.6-1c2.7-1.1,2.5-4.3,1.9-6.8
			c-0.9-3.4-2.7-6.6-4.2-9.8c-0.8-1.6-1.5-3.3-2.2-4.9c-0.5-1.3-1.2-3-2.9-3c-2.5,0-1.3,5.9-0.9,7.3c1,3.5,2.9,6.8,4.4,10.1
			c-1.4,0.1-2.9,0.3-4.3,0.2c-1.5-0.1-1.9,0-2.3,1.7C581.6,155.7,582.4,159,585,159.9 M562.4,130.9c2.7-0.2,5.4-0.4,8.1-0.8
			c2-0.2,5.4-0.3,6.8-1.8c1-1.1,0.8-3.4,0-4.5c-1-1.3-3.3-0.8-4.8-0.8c-4,0.1-7.9,0.6-11.5,2.4c-1.3,0.7-4.3,1.8-4,3.6
			C557.4,131.3,560.8,131,562.4,130.9 M573.7,162.1c-2.3,0.6-1.8,4.4-1.1,6c1,2.4,3.7,3,6.1,2.9c1.2-0.1,2.8,0.3,3.7-0.7
			c0.9-1,0.8-2.9,0.2-4c-0.8-1.4-2.9-2.2-4.3-2.9C577,162.9,575.1,161.7,573.7,162.1 M574,142c0.2-2.2-1.1-7.2-4-7
			c-1.4,0.1-2.6,2.1-2.9,3.3c-0.3,1.3,0.1,2.6,0.4,3.9c0.6,2.1,1.4,5.2,4.1,4.8C573.9,146.6,574,143.9,574,142 M595.3,144.2
			c0.6,0.6,1.5,1,2.3,0.6c1.2-0.6,1-2,1-3.1l0.4-0.1c-0.7-1.9-1.2-6-3.6-6.6c-2.4-0.5-2.6,2.1-2.3,3.8
			C593.3,140.6,593.9,142.9,595.3,144.2 M520.2,144c-1.2,0.1-3.4,0.7-3.2,2.2c0.3,2.2,3.7,2.6,5.4,2.8c2,0.2,4.9,0,2.9-2.5
			C524.2,144.8,522.2,144.2,520.2,144 M420.3,403l-1.3,2.5l4,0.5C423.1,404.9,421,403.6,420.3,403"/>
	</g>
</g>
</svg>
